<svg viewBox="0 -320.0 135.41807563571118 352.0" xmlns="http://www.w3.org/2000/svg">
   <line x1="0" y1="0" x2="0.0" y2="-10.0" stroke-width="1" stroke="black" />
   <line x1="0.0" y1="-10.0" x2="5.877852522924732" y2="-18.090169943749473" stroke-width="1" stroke="black" />
   <line x1="0.0" y1="-10.0" x2="0.0" y2="-20.0" stroke-width="1" stroke="black" />
   <line x1="0.0" y1="-20.0" x2="5.877852522924732" y2="-28.090169943749473" stroke-width="1" stroke="black" />
   <line x1="5.877852522924732" y1="-28.090169943749473" x2="15.388417685876266" y2="-31.180339887498945" stroke-width="1" stroke="black" />
   <line x1="5.877852522924732" y1="-28.090169943749473" x2="11.755705045849464" y2="-36.180339887498945" stroke-width="1" stroke="black" />
   <line x1="0.0" y1="-20.0" x2="0.0" y2="-30.0" stroke-width="1" stroke="black" />
   <line x1="0.0" y1="-30.0" x2="5.877852522924732" y2="-38.09016994374947" stroke-width="1" stroke="black" />
   <line x1="0.0" y1="-30.0" x2="0.0" y2="-40.0" stroke-width="1" stroke="black" />
   <line x1="0.0" y1="-40.0" x2="5.877852522924732" y2="-48.09016994374947" stroke-width="1" stroke="black" />
   <line x1="5.877852522924732" y1="-48.09016994374947" x2="15.388417685876266" y2="-51.180339887498945" stroke-width="1" stroke="black" />
   <line x1="5.877852522924732" y1="-48.09016994374947" x2="11.755705045849464" y2="-56.180339887498945" stroke-width="1" stroke="black" />
   <line x1="11.755705045849464" y1="-56.180339887498945" x2="21.266270208800996" y2="-59.27050983124842" stroke-width="1" stroke="black" />
   <line x1="21.266270208800996" y1="-59.27050983124842" x2="30.776835371752533" y2="-56.180339887498945" stroke-width="1" stroke="black" />
   <line x1="21.266270208800996" y1="-59.27050983124842" x2="30.776835371752533" y2="-62.36067977499789" stroke-width="1" stroke="black" />
   <line x1="11.755705045849464" y1="-56.180339887498945" x2="17.633557568774194" y2="-64.27050983124842" stroke-width="1" stroke="black" />
   <line x1="17.633557568774194" y1="-64.27050983124842" x2="27.14412273172573" y2="-67.36067977499789" stroke-width="1" stroke="black" />
   <line x1="17.633557568774194" y1="-64.27050983124842" x2="23.511410091698927" y2="-72.36067977499789" stroke-width="1" stroke="black" />
   <line x1="0.0" y1="-40.0" x2="0.0" y2="-50.0" stroke-width="1" stroke="black" />
   <line x1="0.0" y1="-50.0" x2="5.877852522924732" y2="-58.09016994374947" stroke-width="1" stroke="black" />
   <line x1="0.0" y1="-50.0" x2="0.0" y2="-60.0" stroke-width="1" stroke="black" />
   <line x1="0.0" y1="-60.0" x2="5.877852522924732" y2="-68.09016994374947" stroke-width="1" stroke="black" />
   <line x1="5.877852522924732" y1="-68.09016994374947" x2="15.388417685876266" y2="-71.18033988749895" stroke-width="1" stroke="black" />
   <line x1="5.877852522924732" y1="-68.09016994374947" x2="11.755705045849464" y2="-76.18033988749895" stroke-width="1" stroke="black" />
   <line x1="0.0" y1="-60.0" x2="0.0" y2="-70.0" stroke-width="1" stroke="black" />
   <line x1="0.0" y1="-70.0" x2="5.877852522924732" y2="-78.09016994374947" stroke-width="1" stroke="black" />
   <line x1="0.0" y1="-70.0" x2="0.0" y2="-80.0" stroke-width="1" stroke="black" />
   <line x1="0.0" y1="-80.0" x2="5.877852522924732" y2="-88.09016994374947" stroke-width="1" stroke="black" />
   <line x1="5.877852522924732" y1="-88.09016994374947" x2="15.388417685876266" y2="-91.18033988749895" stroke-width="1" stroke="black" />
   <line x1="5.877852522924732" y1="-88.09016994374947" x2="11.755705045849464" y2="-96.18033988749895" stroke-width="1" stroke="black" />
   <line x1="11.755705045849464" y1="-96.18033988749895" x2="21.266270208800996" y2="-99.27050983124842" stroke-width="1" stroke="black" />
   <line x1="21.266270208800996" y1="-99.27050983124842" x2="30.776835371752533" y2="-96.18033988749895" stroke-width="1" stroke="black" />
   <line x1="21.266270208800996" y1="-99.27050983124842" x2="30.776835371752533" y2="-102.36067977499789" stroke-width="1" stroke="black" />
   <line x1="11.755705045849464" y1="-96.18033988749895" x2="17.633557568774194" y2="-104.27050983124842" stroke-width="1" stroke="black" />
   <line x1="17.633557568774194" y1="-104.27050983124842" x2="27.14412273172573" y2="-107.36067977499789" stroke-width="1" stroke="black" />
   <line x1="17.633557568774194" y1="-104.27050983124842" x2="23.511410091698927" y2="-112.36067977499789" stroke-width="1" stroke="black" />
   <line x1="23.511410091698927" y1="-112.36067977499789" x2="33.021975254650464" y2="-115.45084971874736" stroke-width="1" stroke="black" />
   <line x1="33.021975254650464" y1="-115.45084971874736" x2="42.532540417602" y2="-112.36067977499789" stroke-width="1" stroke="black" />
   <line x1="33.021975254650464" y1="-115.45084971874736" x2="42.532540417602" y2="-118.54101966249684" stroke-width="1" stroke="black" />
   <line x1="42.532540417602" y1="-118.54101966249684" x2="52.04310558055354" y2="-115.45084971874736" stroke-width="1" stroke="black" />
   <line x1="52.04310558055354" y1="-115.45084971874736" x2="57.92095810347827" y2="-107.36067977499789" stroke-width="1" stroke="black" />
   <line x1="52.04310558055354" y1="-115.45084971874736" x2="61.55367074350507" y2="-112.36067977499789" stroke-width="1" stroke="black" />
   <line x1="42.532540417602" y1="-118.54101966249684" x2="52.04310558055354" y2="-121.63118960624631" stroke-width="1" stroke="black" />
   <line x1="52.04310558055354" y1="-121.63118960624631" x2="61.55367074350507" y2="-118.54101966249684" stroke-width="1" stroke="black" />
   <line x1="52.04310558055354" y1="-121.63118960624631" x2="61.55367074350507" y2="-124.72135954999578" stroke-width="1" stroke="black" />
   <line x1="23.511410091698927" y1="-112.36067977499789" x2="29.38926261462366" y2="-120.45084971874736" stroke-width="1" stroke="black" />
   <line x1="29.38926261462366" y1="-120.45084971874736" x2="38.8998277775752" y2="-123.54101966249684" stroke-width="1" stroke="black" />
   <line x1="29.38926261462366" y1="-120.45084971874736" x2="35.267115137548394" y2="-128.54101966249684" stroke-width="1" stroke="black" />
   <line x1="35.267115137548394" y1="-128.54101966249684" x2="44.77768030049993" y2="-131.63118960624632" stroke-width="1" stroke="black" />
   <line x1="44.77768030049993" y1="-131.63118960624632" x2="54.28824546345147" y2="-128.54101966249684" stroke-width="1" stroke="black" />
   <line x1="44.77768030049993" y1="-131.63118960624632" x2="54.28824546345147" y2="-134.7213595499958" stroke-width="1" stroke="black" />
   <line x1="35.267115137548394" y1="-128.54101966249684" x2="41.14496766047313" y2="-136.63118960624632" stroke-width="1" stroke="black" />
   <line x1="41.14496766047313" y1="-136.63118960624632" x2="50.655532823424664" y2="-139.7213595499958" stroke-width="1" stroke="black" />
   <line x1="41.14496766047313" y1="-136.63118960624632" x2="47.02282018339786" y2="-144.7213595499958" stroke-width="1" stroke="black" />
   <line x1="0.0" y1="-80.0" x2="0.0" y2="-90.0" stroke-width="1" stroke="black" />
   <line x1="0.0" y1="-90.0" x2="5.877852522924732" y2="-98.09016994374947" stroke-width="1" stroke="black" />
   <line x1="0.0" y1="-90.0" x2="0.0" y2="-100.0" stroke-width="1" stroke="black" />
   <line x1="0.0" y1="-100.0" x2="5.877852522924732" y2="-108.09016994374947" stroke-width="1" stroke="black" />
   <line x1="5.877852522924732" y1="-108.09016994374947" x2="15.388417685876266" y2="-111.18033988749895" stroke-width="1" stroke="black" />
   <line x1="5.877852522924732" y1="-108.09016994374947" x2="11.755705045849464" y2="-116.18033988749895" stroke-width="1" stroke="black" />
   <line x1="0.0" y1="-100.0" x2="0.0" y2="-110.0" stroke-width="1" stroke="black" />
   <line x1="0.0" y1="-110.0" x2="5.877852522924732" y2="-118.09016994374947" stroke-width="1" stroke="black" />
   <line x1="0.0" y1="-110.0" x2="0.0" y2="-120.0" stroke-width="1" stroke="black" />
   <line x1="0.0" y1="-120.0" x2="5.877852522924732" y2="-128.0901699437495" stroke-width="1" stroke="black" />
   <line x1="5.877852522924732" y1="-128.0901699437495" x2="15.388417685876266" y2="-131.18033988749897" stroke-width="1" stroke="black" />
   <line x1="5.877852522924732" y1="-128.0901699437495" x2="11.755705045849464" y2="-136.18033988749897" stroke-width="1" stroke="black" />
   <line x1="11.755705045849464" y1="-136.18033988749897" x2="21.266270208800996" y2="-139.27050983124846" stroke-width="1" stroke="black" />
   <line x1="21.266270208800996" y1="-139.27050983124846" x2="30.776835371752533" y2="-136.18033988749897" stroke-width="1" stroke="black" />
   <line x1="21.266270208800996" y1="-139.27050983124846" x2="30.776835371752533" y2="-142.36067977499795" stroke-width="1" stroke="black" />
   <line x1="11.755705045849464" y1="-136.18033988749897" x2="17.633557568774194" y2="-144.27050983124846" stroke-width="1" stroke="black" />
   <line x1="17.633557568774194" y1="-144.27050983124846" x2="27.14412273172573" y2="-147.36067977499795" stroke-width="1" stroke="black" />
   <line x1="17.633557568774194" y1="-144.27050983124846" x2="23.511410091698927" y2="-152.36067977499795" stroke-width="1" stroke="black" />
   <line x1="0.0" y1="-120.0" x2="0.0" y2="-130.0" stroke-width="1" stroke="black" />
   <line x1="0.0" y1="-130.0" x2="5.877852522924732" y2="-138.0901699437495" stroke-width="1" stroke="black" />
   <line x1="0.0" y1="-130.0" x2="0.0" y2="-140.0" stroke-width="1" stroke="black" />
   <line x1="0.0" y1="-140.0" x2="5.877852522924732" y2="-148.0901699437495" stroke-width="1" stroke="black" />
   <line x1="5.877852522924732" y1="-148.0901699437495" x2="15.388417685876266" y2="-151.18033988749897" stroke-width="1" stroke="black" />
   <line x1="5.877852522924732" y1="-148.0901699437495" x2="11.755705045849464" y2="-156.18033988749897" stroke-width="1" stroke="black" />
   <line x1="0.0" y1="-140.0" x2="0.0" y2="-150.0" stroke-width="1" stroke="black" />
   <line x1="0.0" y1="-150.0" x2="5.877852522924732" y2="-158.0901699437495" stroke-width="1" stroke="black" />
   <line x1="0.0" y1="-150.0" x2="0.0" y2="-160.0" stroke-width="1" stroke="black" />
   <line x1="0.0" y1="-160.0" x2="5.877852522924732" y2="-168.0901699437495" stroke-width="1" stroke="black" />
   <line x1="5.877852522924732" y1="-168.0901699437495" x2="15.388417685876266" y2="-171.18033988749897" stroke-width="1" stroke="black" />
   <line x1="5.877852522924732" y1="-168.0901699437495" x2="11.755705045849464" y2="-176.18033988749897" stroke-width="1" stroke="black" />
   <line x1="11.755705045849464" y1="-176.18033988749897" x2="21.266270208800996" y2="-179.27050983124846" stroke-width="1" stroke="black" />
   <line x1="21.266270208800996" y1="-179.27050983124846" x2="30.776835371752533" y2="-176.18033988749897" stroke-width="1" stroke="black" />
   <line x1="21.266270208800996" y1="-179.27050983124846" x2="30.776835371752533" y2="-182.36067977499795" stroke-width="1" stroke="black" />
   <line x1="11.755705045849464" y1="-176.18033988749897" x2="17.633557568774194" y2="-184.27050983124846" stroke-width="1" stroke="black" />
   <line x1="17.633557568774194" y1="-184.27050983124846" x2="27.14412273172573" y2="-187.36067977499795" stroke-width="1" stroke="black" />
   <line x1="17.633557568774194" y1="-184.27050983124846" x2="23.511410091698927" y2="-192.36067977499795" stroke-width="1" stroke="black" />
   <line x1="23.511410091698927" y1="-192.36067977499795" x2="33.021975254650464" y2="-195.45084971874743" stroke-width="1" stroke="black" />
   <line x1="33.021975254650464" y1="-195.45084971874743" x2="42.532540417602" y2="-192.36067977499795" stroke-width="1" stroke="black" />
   <line x1="33.021975254650464" y1="-195.45084971874743" x2="42.532540417602" y2="-198.54101966249692" stroke-width="1" stroke="black" />
   <line x1="42.532540417602" y1="-198.54101966249692" x2="52.04310558055354" y2="-195.45084971874743" stroke-width="1" stroke="black" />
   <line x1="52.04310558055354" y1="-195.45084971874743" x2="57.92095810347827" y2="-187.36067977499795" stroke-width="1" stroke="black" />
   <line x1="52.04310558055354" y1="-195.45084971874743" x2="61.55367074350507" y2="-192.36067977499795" stroke-width="1" stroke="black" />
   <line x1="42.532540417602" y1="-198.54101966249692" x2="52.04310558055354" y2="-201.6311896062464" stroke-width="1" stroke="black" />
   <line x1="52.04310558055354" y1="-201.6311896062464" x2="61.55367074350507" y2="-198.54101966249692" stroke-width="1" stroke="black" />
   <line x1="52.04310558055354" y1="-201.6311896062464" x2="61.55367074350507" y2="-204.7213595499959" stroke-width="1" stroke="black" />
   <line x1="23.511410091698927" y1="-192.36067977499795" x2="29.38926261462366" y2="-200.45084971874743" stroke-width="1" stroke="black" />
   <line x1="29.38926261462366" y1="-200.45084971874743" x2="38.8998277775752" y2="-203.54101966249692" stroke-width="1" stroke="black" />
   <line x1="29.38926261462366" y1="-200.45084971874743" x2="35.267115137548394" y2="-208.54101966249692" stroke-width="1" stroke="black" />
   <line x1="35.267115137548394" y1="-208.54101966249692" x2="44.77768030049993" y2="-211.6311896062464" stroke-width="1" stroke="black" />
   <line x1="44.77768030049993" y1="-211.6311896062464" x2="54.28824546345147" y2="-208.54101966249692" stroke-width="1" stroke="black" />
   <line x1="44.77768030049993" y1="-211.6311896062464" x2="54.28824546345147" y2="-214.7213595499959" stroke-width="1" stroke="black" />
   <line x1="35.267115137548394" y1="-208.54101966249692" x2="41.14496766047313" y2="-216.6311896062464" stroke-width="1" stroke="black" />
   <line x1="41.14496766047313" y1="-216.6311896062464" x2="50.655532823424664" y2="-219.7213595499959" stroke-width="1" stroke="black" />
   <line x1="41.14496766047313" y1="-216.6311896062464" x2="47.02282018339786" y2="-224.7213595499959" stroke-width="1" stroke="black" />
   <line x1="47.02282018339786" y1="-224.7213595499959" x2="56.5333853463494" y2="-227.81152949374538" stroke-width="1" stroke="black" />
   <line x1="56.5333853463494" y1="-227.81152949374538" x2="66.04395050930094" y2="-224.7213595499959" stroke-width="1" stroke="black" />
   <line x1="56.5333853463494" y1="-227.81152949374538" x2="66.04395050930093" y2="-230.90169943749487" stroke-width="1" stroke="black" />
   <line x1="66.04395050930093" y1="-230.90169943749487" x2="75.55451567225246" y2="-227.81152949374538" stroke-width="1" stroke="black" />
   <line x1="75.55451567225246" y1="-227.81152949374538" x2="81.43236819517719" y2="-219.7213595499959" stroke-width="1" stroke="black" />
   <line x1="75.55451567225246" y1="-227.81152949374538" x2="85.065080835204" y2="-224.7213595499959" stroke-width="1" stroke="black" />
   <line x1="66.04395050930093" y1="-230.90169943749487" x2="75.55451567225246" y2="-233.99186938124436" stroke-width="1" stroke="black" />
   <line x1="75.55451567225246" y1="-233.99186938124436" x2="85.065080835204" y2="-230.90169943749487" stroke-width="1" stroke="black" />
   <line x1="75.55451567225246" y1="-233.99186938124436" x2="85.065080835204" y2="-237.08203932499384" stroke-width="1" stroke="black" />
   <line x1="85.065080835204" y1="-237.08203932499384" x2="94.57564599815554" y2="-233.99186938124436" stroke-width="1" stroke="black" />
   <line x1="94.57564599815554" y1="-233.99186938124436" x2="100.45349852108026" y2="-225.90169943749487" stroke-width="1" stroke="black" />
   <line x1="94.57564599815554" y1="-233.99186938124436" x2="104.08621116110707" y2="-230.90169943749487" stroke-width="1" stroke="black" />
   <line x1="104.08621116110707" y1="-230.90169943749487" x2="109.9640636840318" y2="-222.8115294937454" stroke-width="1" stroke="black" />
   <line x1="109.9640636840318" y1="-222.8115294937454" x2="109.9640636840318" y2="-212.8115294937454" stroke-width="1" stroke="black" />
   <line x1="109.9640636840318" y1="-222.8115294937454" x2="115.84191620695653" y2="-214.72135954999595" stroke-width="1" stroke="black" />
   <line x1="104.08621116110707" y1="-230.90169943749487" x2="113.59677632405861" y2="-227.81152949374538" stroke-width="1" stroke="black" />
   <line x1="113.59677632405861" y1="-227.81152949374538" x2="119.47462884698334" y2="-219.7213595499959" stroke-width="1" stroke="black" />
   <line x1="113.59677632405861" y1="-227.81152949374538" x2="123.10734148701015" y2="-224.7213595499959" stroke-width="1" stroke="black" />
   <line x1="85.065080835204" y1="-237.08203932499384" x2="94.57564599815554" y2="-240.17220926874333" stroke-width="1" stroke="black" />
   <line x1="94.57564599815554" y1="-240.17220926874333" x2="104.08621116110707" y2="-237.08203932499384" stroke-width="1" stroke="black" />
   <line x1="94.57564599815554" y1="-240.17220926874333" x2="104.08621116110707" y2="-243.26237921249282" stroke-width="1" stroke="black" />
   <line x1="104.08621116110707" y1="-243.26237921249282" x2="113.59677632405861" y2="-240.17220926874333" stroke-width="1" stroke="black" />
   <line x1="113.59677632405861" y1="-240.17220926874333" x2="119.47462884698334" y2="-232.08203932499384" stroke-width="1" stroke="black" />
   <line x1="113.59677632405861" y1="-240.17220926874333" x2="123.10734148701015" y2="-237.08203932499384" stroke-width="1" stroke="black" />
   <line x1="104.08621116110707" y1="-243.26237921249282" x2="113.59677632405861" y2="-246.3525491562423" stroke-width="1" stroke="black" />
   <line x1="113.59677632405861" y1="-246.3525491562423" x2="123.10734148701015" y2="-243.26237921249282" stroke-width="1" stroke="black" />
   <line x1="113.59677632405861" y1="-246.3525491562423" x2="123.10734148701015" y2="-249.4427190999918" stroke-width="1" stroke="black" />
   <line x1="47.02282018339786" y1="-224.7213595499959" x2="52.900672706322595" y2="-232.81152949374538" stroke-width="1" stroke="black" />
   <line x1="52.900672706322595" y1="-232.81152949374538" x2="62.41123786927413" y2="-235.90169943749487" stroke-width="1" stroke="black" />
   <line x1="52.900672706322595" y1="-232.81152949374538" x2="58.77852522924733" y2="-240.90169943749487" stroke-width="1" stroke="black" />
   <line x1="58.77852522924733" y1="-240.90169943749487" x2="68.28909039219886" y2="-243.99186938124436" stroke-width="1" stroke="black" />
   <line x1="68.28909039219886" y1="-243.99186938124436" x2="77.7996555551504" y2="-240.90169943749487" stroke-width="1" stroke="black" />
   <line x1="68.28909039219886" y1="-243.99186938124436" x2="77.7996555551504" y2="-247.08203932499384" stroke-width="1" stroke="black" />
   <line x1="58.77852522924733" y1="-240.90169943749487" x2="64.65637775217206" y2="-248.99186938124436" stroke-width="1" stroke="black" />
   <line x1="64.65637775217206" y1="-248.99186938124436" x2="74.1669429151236" y2="-252.08203932499384" stroke-width="1" stroke="black" />
   <line x1="64.65637775217206" y1="-248.99186938124436" x2="70.53423027509679" y2="-257.08203932499384" stroke-width="1" stroke="black" />
   <line x1="70.53423027509679" y1="-257.08203932499384" x2="80.04479543804833" y2="-260.1722092687433" stroke-width="1" stroke="black" />
   <line x1="80.04479543804833" y1="-260.1722092687433" x2="89.55536060099986" y2="-257.08203932499384" stroke-width="1" stroke="black" />
   <line x1="80.04479543804833" y1="-260.1722092687433" x2="89.55536060099986" y2="-263.26237921249276" stroke-width="1" stroke="black" />
   <line x1="89.55536060099986" y1="-263.26237921249276" x2="99.0659257639514" y2="-260.1722092687433" stroke-width="1" stroke="black" />
   <line x1="99.0659257639514" y1="-260.1722092687433" x2="104.94377828687612" y2="-252.08203932499384" stroke-width="1" stroke="black" />
   <line x1="99.0659257639514" y1="-260.1722092687433" x2="108.57649092690293" y2="-257.08203932499384" stroke-width="1" stroke="black" />
   <line x1="89.55536060099986" y1="-263.26237921249276" x2="99.0659257639514" y2="-266.3525491562422" stroke-width="1" stroke="black" />
   <line x1="99.0659257639514" y1="-266.3525491562422" x2="108.57649092690293" y2="-263.26237921249276" stroke-width="1" stroke="black" />
   <line x1="99.0659257639514" y1="-266.3525491562422" x2="108.57649092690293" y2="-269.4427190999917" stroke-width="1" stroke="black" />
   <line x1="70.53423027509679" y1="-257.08203932499384" x2="76.41208279802152" y2="-265.1722092687433" stroke-width="1" stroke="black" />
   <line x1="76.41208279802152" y1="-265.1722092687433" x2="85.92264796097305" y2="-268.26237921249276" stroke-width="1" stroke="black" />
   <line x1="76.41208279802152" y1="-265.1722092687433" x2="82.28993532094624" y2="-273.26237921249276" stroke-width="1" stroke="black" />
   <line x1="82.28993532094624" y1="-273.26237921249276" x2="91.80050048389778" y2="-276.3525491562422" stroke-width="1" stroke="black" />
   <line x1="91.80050048389778" y1="-276.3525491562422" x2="101.31106564684931" y2="-273.26237921249276" stroke-width="1" stroke="black" />
   <line x1="91.80050048389778" y1="-276.3525491562422" x2="101.31106564684931" y2="-279.4427190999917" stroke-width="1" stroke="black" />
   <line x1="82.28993532094624" y1="-273.26237921249276" x2="88.16778784387097" y2="-281.3525491562422" stroke-width="1" stroke="black" />
   <line x1="88.16778784387097" y1="-281.3525491562422" x2="97.6783530068225" y2="-284.4427190999917" stroke-width="1" stroke="black" />
   <line x1="88.16778784387097" y1="-281.3525491562422" x2="94.0456403667957" y2="-289.4427190999917" stroke-width="1" stroke="black" />
   <line x1="0.0" y1="-160.0" x2="0.0" y2="-170.0" stroke-width="1" stroke="black" />
   <line x1="0.0" y1="-170.0" x2="5.877852522924732" y2="-178.0901699437495" stroke-width="1" stroke="black" />
   <line x1="0.0" y1="-170.0" x2="0.0" y2="-180.0" stroke-width="1" stroke="black" />
   <line x1="0.0" y1="-180.0" x2="5.877852522924732" y2="-188.0901699437495" stroke-width="1" stroke="black" />
   <line x1="5.877852522924732" y1="-188.0901699437495" x2="15.388417685876266" y2="-191.18033988749897" stroke-width="1" stroke="black" />
   <line x1="5.877852522924732" y1="-188.0901699437495" x2="11.755705045849464" y2="-196.18033988749897" stroke-width="1" stroke="black" />
   <line x1="0.0" y1="-180.0" x2="0.0" y2="-190.0" stroke-width="1" stroke="black" />
   <line x1="0.0" y1="-190.0" x2="5.877852522924732" y2="-198.0901699437495" stroke-width="1" stroke="black" />
   <line x1="0.0" y1="-190.0" x2="0.0" y2="-200.0" stroke-width="1" stroke="black" />
   <line x1="0.0" y1="-200.0" x2="5.877852522924732" y2="-208.0901699437495" stroke-width="1" stroke="black" />
   <line x1="5.877852522924732" y1="-208.0901699437495" x2="15.388417685876266" y2="-211.18033988749897" stroke-width="1" stroke="black" />
   <line x1="5.877852522924732" y1="-208.0901699437495" x2="11.755705045849464" y2="-216.18033988749897" stroke-width="1" stroke="black" />
   <line x1="11.755705045849464" y1="-216.18033988749897" x2="21.266270208800996" y2="-219.27050983124846" stroke-width="1" stroke="black" />
   <line x1="21.266270208800996" y1="-219.27050983124846" x2="30.776835371752533" y2="-216.18033988749897" stroke-width="1" stroke="black" />
   <line x1="21.266270208800996" y1="-219.27050983124846" x2="30.776835371752533" y2="-222.36067977499795" stroke-width="1" stroke="black" />
   <line x1="11.755705045849464" y1="-216.18033988749897" x2="17.633557568774194" y2="-224.27050983124846" stroke-width="1" stroke="black" />
   <line x1="17.633557568774194" y1="-224.27050983124846" x2="27.14412273172573" y2="-227.36067977499795" stroke-width="1" stroke="black" />
   <line x1="17.633557568774194" y1="-224.27050983124846" x2="23.511410091698927" y2="-232.36067977499795" stroke-width="1" stroke="black" />
   <line x1="0.0" y1="-200.0" x2="0.0" y2="-210.0" stroke-width="1" stroke="black" />
   <line x1="0.0" y1="-210.0" x2="5.877852522924732" y2="-218.0901699437495" stroke-width="1" stroke="black" />
   <line x1="0.0" y1="-210.0" x2="0.0" y2="-220.0" stroke-width="1" stroke="black" />
   <line x1="0.0" y1="-220.0" x2="5.877852522924732" y2="-228.0901699437495" stroke-width="1" stroke="black" />
   <line x1="5.877852522924732" y1="-228.0901699437495" x2="15.388417685876266" y2="-231.18033988749897" stroke-width="1" stroke="black" />
   <line x1="5.877852522924732" y1="-228.0901699437495" x2="11.755705045849464" y2="-236.18033988749897" stroke-width="1" stroke="black" />
   <line x1="0.0" y1="-220.0" x2="0.0" y2="-230.0" stroke-width="1" stroke="black" />
   <line x1="0.0" y1="-230.0" x2="5.877852522924732" y2="-238.0901699437495" stroke-width="1" stroke="black" />
   <line x1="0.0" y1="-230.0" x2="0.0" y2="-240.0" stroke-width="1" stroke="black" />
   <line x1="0.0" y1="-240.0" x2="5.877852522924732" y2="-248.0901699437495" stroke-width="1" stroke="black" />
   <line x1="5.877852522924732" y1="-248.0901699437495" x2="15.388417685876266" y2="-251.18033988749897" stroke-width="1" stroke="black" />
   <line x1="5.877852522924732" y1="-248.0901699437495" x2="11.755705045849464" y2="-256.180339887499" stroke-width="1" stroke="black" />
   <line x1="11.755705045849464" y1="-256.180339887499" x2="21.266270208800996" y2="-259.27050983124843" stroke-width="1" stroke="black" />
   <line x1="21.266270208800996" y1="-259.27050983124843" x2="30.776835371752533" y2="-256.180339887499" stroke-width="1" stroke="black" />
   <line x1="21.266270208800996" y1="-259.27050983124843" x2="30.776835371752533" y2="-262.3606797749979" stroke-width="1" stroke="black" />
   <line x1="11.755705045849464" y1="-256.180339887499" x2="17.633557568774194" y2="-264.27050983124843" stroke-width="1" stroke="black" />
   <line x1="17.633557568774194" y1="-264.27050983124843" x2="27.14412273172573" y2="-267.3606797749979" stroke-width="1" stroke="black" />
   <line x1="17.633557568774194" y1="-264.27050983124843" x2="23.511410091698927" y2="-272.3606797749979" stroke-width="1" stroke="black" />
   <line x1="23.511410091698927" y1="-272.3606797749979" x2="33.021975254650464" y2="-275.45084971874735" stroke-width="1" stroke="black" />
   <line x1="33.021975254650464" y1="-275.45084971874735" x2="42.532540417602" y2="-272.3606797749979" stroke-width="1" stroke="black" />
   <line x1="33.021975254650464" y1="-275.45084971874735" x2="42.532540417602" y2="-278.5410196624968" stroke-width="1" stroke="black" />
   <line x1="42.532540417602" y1="-278.5410196624968" x2="52.04310558055354" y2="-275.45084971874735" stroke-width="1" stroke="black" />
   <line x1="52.04310558055354" y1="-275.45084971874735" x2="57.92095810347827" y2="-267.3606797749979" stroke-width="1" stroke="black" />
   <line x1="52.04310558055354" y1="-275.45084971874735" x2="61.55367074350507" y2="-272.3606797749979" stroke-width="1" stroke="black" />
   <line x1="42.532540417602" y1="-278.5410196624968" x2="52.04310558055354" y2="-281.63118960624627" stroke-width="1" stroke="black" />
   <line x1="52.04310558055354" y1="-281.63118960624627" x2="61.55367074350507" y2="-278.5410196624968" stroke-width="1" stroke="black" />
   <line x1="52.04310558055354" y1="-281.63118960624627" x2="61.55367074350507" y2="-284.7213595499957" stroke-width="1" stroke="black" />
   <line x1="23.511410091698927" y1="-272.3606797749979" x2="29.38926261462366" y2="-280.45084971874735" stroke-width="1" stroke="black" />
   <line x1="29.38926261462366" y1="-280.45084971874735" x2="38.8998277775752" y2="-283.5410196624968" stroke-width="1" stroke="black" />
   <line x1="29.38926261462366" y1="-280.45084971874735" x2="35.267115137548394" y2="-288.5410196624968" stroke-width="1" stroke="black" />
   <line x1="35.267115137548394" y1="-288.5410196624968" x2="44.77768030049993" y2="-291.63118960624627" stroke-width="1" stroke="black" />
   <line x1="44.77768030049993" y1="-291.63118960624627" x2="54.28824546345147" y2="-288.5410196624968" stroke-width="1" stroke="black" />
   <line x1="44.77768030049993" y1="-291.63118960624627" x2="54.28824546345147" y2="-294.7213595499957" stroke-width="1" stroke="black" />
   <line x1="35.267115137548394" y1="-288.5410196624968" x2="41.14496766047313" y2="-296.63118960624627" stroke-width="1" stroke="black" />
   <line x1="41.14496766047313" y1="-296.63118960624627" x2="50.655532823424664" y2="-299.7213595499957" stroke-width="1" stroke="black" />
   <line x1="41.14496766047313" y1="-296.63118960624627" x2="47.02282018339786" y2="-304.7213595499957" stroke-width="1" stroke="black" />
   <line x1="0.0" y1="-240.0" x2="0.0" y2="-250.0" stroke-width="1" stroke="black" />
   <line x1="0.0" y1="-250.0" x2="5.877852522924732" y2="-258.09016994374946" stroke-width="1" stroke="black" />
   <line x1="0.0" y1="-250.0" x2="0.0" y2="-260.0" stroke-width="1" stroke="black" />
   <line x1="0.0" y1="-260.0" x2="5.877852522924732" y2="-268.09016994374946" stroke-width="1" stroke="black" />
   <line x1="5.877852522924732" y1="-268.09016994374946" x2="15.388417685876266" y2="-271.1803398874989" stroke-width="1" stroke="black" />
   <line x1="5.877852522924732" y1="-268.09016994374946" x2="11.755705045849464" y2="-276.1803398874989" stroke-width="1" stroke="black" />
   <line x1="0.0" y1="-260.0" x2="0.0" y2="-270.0" stroke-width="1" stroke="black" />
   <line x1="0.0" y1="-270.0" x2="5.877852522924732" y2="-278.09016994374946" stroke-width="1" stroke="black" />
   <line x1="0.0" y1="-270.0" x2="0.0" y2="-280.0" stroke-width="1" stroke="black" />
   <line x1="0.0" y1="-280.0" x2="5.877852522924732" y2="-288.09016994374946" stroke-width="1" stroke="black" />
   <line x1="5.877852522924732" y1="-288.09016994374946" x2="15.388417685876266" y2="-291.1803398874989" stroke-width="1" stroke="black" />
   <line x1="5.877852522924732" y1="-288.09016994374946" x2="11.755705045849464" y2="-296.1803398874989" stroke-width="1" stroke="black" />
   <line x1="11.755705045849464" y1="-296.1803398874989" x2="21.266270208800996" y2="-299.2705098312484" stroke-width="1" stroke="black" />
   <line x1="21.266270208800996" y1="-299.2705098312484" x2="30.776835371752533" y2="-296.1803398874989" stroke-width="1" stroke="black" />
   <line x1="21.266270208800996" y1="-299.2705098312484" x2="30.776835371752533" y2="-302.36067977499783" stroke-width="1" stroke="black" />
   <line x1="11.755705045849464" y1="-296.1803398874989" x2="17.633557568774194" y2="-304.2705098312484" stroke-width="1" stroke="black" />
   <line x1="17.633557568774194" y1="-304.2705098312484" x2="27.14412273172573" y2="-307.36067977499783" stroke-width="1" stroke="black" />
   <line x1="17.633557568774194" y1="-304.2705098312484" x2="23.511410091698927" y2="-312.36067977499783" stroke-width="1" stroke="black" />
   <line x1="0.0" y1="-280.0" x2="0.0" y2="-290.0" stroke-width="1" stroke="black" />
   <line x1="0.0" y1="-290.0" x2="5.877852522924732" y2="-298.09016994374946" stroke-width="1" stroke="black" />
   <line x1="0.0" y1="-290.0" x2="0.0" y2="-300.0" stroke-width="1" stroke="black" />
   <line x1="0.0" y1="-300.0" x2="5.877852522924732" y2="-308.09016994374946" stroke-width="1" stroke="black" />
   <line x1="5.877852522924732" y1="-308.09016994374946" x2="15.388417685876266" y2="-311.1803398874989" stroke-width="1" stroke="black" />
   <line x1="5.877852522924732" y1="-308.09016994374946" x2="11.755705045849464" y2="-316.1803398874989" stroke-width="1" stroke="black" />
   <line x1="0.0" y1="-300.0" x2="0.0" y2="-310.0" stroke-width="1" stroke="black" />
   <line x1="0.0" y1="-310.0" x2="5.877852522924732" y2="-318.09016994374946" stroke-width="1" stroke="black" />
   <line x1="0.0" y1="-310.0" x2="0.0" y2="-320.0" stroke-width="1" stroke="black" />
</svg>