<svg viewBox="-147.84734938429037 -610.2113032590305 325.2641686454388 671.2324335849336" xmlns="http://www.w3.org/2000/svg">
   <line x1="0" y1="0" x2="0.0" y2="-10.0" stroke-width="1" stroke="black" />
   <line x1="0.0" y1="-10.0" x2="0.0" y2="-20.0" stroke-width="1" stroke="black" />
   <line x1="0.0" y1="-20.0" x2="0.0" y2="-30.0" stroke-width="1" stroke="black" />
   <line x1="0.0" y1="-30.0" x2="0.0" y2="-40.0" stroke-width="1" stroke="black" />
   <line x1="0.0" y1="-40.0" x2="0.0" y2="-50.0" stroke-width="1" stroke="black" />
   <line x1="0.0" y1="-50.0" x2="0.0" y2="-60.0" stroke-width="1" stroke="black" />
   <line x1="0.0" y1="-60.0" x2="0.0" y2="-70.0" stroke-width="1" stroke="black" />
   <line x1="0.0" y1="-70.0" x2="0.0" y2="-80.0" stroke-width="1" stroke="black" />
   <line x1="0.0" y1="-80.0" x2="0.0" y2="-90.0" stroke-width="1" stroke="black" />
   <line x1="0.0" y1="-90.0" x2="0.0" y2="-100.0" stroke-width="1" stroke="black" />
   <line x1="0.0" y1="-100.0" x2="0.0" y2="-110.0" stroke-width="1" stroke="black" />
   <line x1="0.0" y1="-110.0" x2="0.0" y2="-120.0" stroke-width="1" stroke="black" />
   <line x1="0.0" y1="-120.0" x2="0.0" y2="-130.0" stroke-width="1" stroke="black" />
   <line x1="0.0" y1="-130.0" x2="0.0" y2="-140.0" stroke-width="1" stroke="black" />
   <line x1="0.0" y1="-140.0" x2="0.0" y2="-150.0" stroke-width="1" stroke="black" />
   <line x1="0.0" y1="-150.0" x2="0.0" y2="-160.0" stroke-width="1" stroke="black" />
   <line x1="0.0" y1="-160.0" x2="3.090169943749474" y2="-169.51056516295154" stroke-width="1" stroke="black" />
   <line x1="3.090169943749474" y1="-169.51056516295154" x2="6.180339887498948" y2="-179.02113032590307" stroke-width="1" stroke="black" />
   <line x1="6.180339887498948" y1="-179.02113032590307" x2="9.270509831248422" y2="-188.5316954888546" stroke-width="1" stroke="black" />
   <line x1="9.270509831248422" y1="-188.5316954888546" x2="12.360679774997896" y2="-198.04226065180615" stroke-width="1" stroke="black" />
   <line x1="12.360679774997896" y1="-198.04226065180615" x2="15.45084971874737" y2="-207.55282581475768" stroke-width="1" stroke="black" />
   <line x1="15.45084971874737" y1="-207.55282581475768" x2="18.541019662496844" y2="-217.06339097770922" stroke-width="1" stroke="black" />
   <line x1="18.541019662496844" y1="-217.06339097770922" x2="21.631189606246316" y2="-226.57395614066075" stroke-width="1" stroke="black" />
   <line x1="21.631189606246316" y1="-226.57395614066075" x2="24.72135954999579" y2="-236.0845213036123" stroke-width="1" stroke="black" />
   <line x1="24.72135954999579" y1="-236.0845213036123" x2="30.599212072920523" y2="-244.17469124736178" stroke-width="1" stroke="black" />
   <line x1="30.599212072920523" y1="-244.17469124736178" x2="36.477064595845256" y2="-252.26486119111127" stroke-width="1" stroke="black" />
   <line x1="36.477064595845256" y1="-252.26486119111127" x2="42.35491711876999" y2="-260.3550311348607" stroke-width="1" stroke="black" />
   <line x1="42.35491711876999" y1="-260.3550311348607" x2="48.23276964169472" y2="-268.4452010786102" stroke-width="1" stroke="black" />
   <line x1="48.23276964169472" y1="-268.4452010786102" x2="56.322939585444196" y2="-274.3230536015349" stroke-width="1" stroke="black" />
   <line x1="56.322939585444196" y1="-274.3230536015349" x2="64.41310952919368" y2="-280.20090612445966" stroke-width="1" stroke="black" />
   <line x1="64.41310952919368" y1="-280.20090612445966" x2="73.92367469214521" y2="-283.2910760682091" stroke-width="1" stroke="black" />
   <line x1="73.92367469214521" y1="-283.2910760682091" x2="83.43423985509675" y2="-286.3812460119586" stroke-width="1" stroke="black" />
   <line x1="64.41310952919368" y1="-280.20090612445966" x2="72.50327947294315" y2="-286.0787586473844" stroke-width="1" stroke="black" />
   <line x1="72.50327947294315" y1="-286.0787586473844" x2="80.59344941669262" y2="-291.95661117030915" stroke-width="1" stroke="black" />
   <line x1="80.59344941669262" y1="-291.95661117030915" x2="86.47130193961735" y2="-300.0467811140586" stroke-width="1" stroke="black" />
   <line x1="86.47130193961735" y1="-300.0467811140586" x2="92.34915446254207" y2="-308.13695105780806" stroke-width="1" stroke="black" />
   <line x1="80.59344941669262" y1="-291.95661117030915" x2="90.10401457964416" y2="-295.0467811140586" stroke-width="1" stroke="black" />
   <line x1="90.10401457964416" y1="-295.0467811140586" x2="99.6145797425957" y2="-298.13695105780806" stroke-width="1" stroke="black" />
   <line x1="48.23276964169472" y1="-268.4452010786102" x2="54.11062216461946" y2="-276.53537102235964" stroke-width="1" stroke="black" />
   <line x1="54.11062216461946" y1="-276.53537102235964" x2="59.98847468754419" y2="-284.6255409661091" stroke-width="1" stroke="black" />
   <line x1="59.98847468754419" y1="-284.6255409661091" x2="65.86632721046892" y2="-292.71571090985856" stroke-width="1" stroke="black" />
   <line x1="65.86632721046892" y1="-292.71571090985856" x2="71.74417973339365" y2="-300.805880853608" stroke-width="1" stroke="black" />
   <line x1="71.74417973339365" y1="-300.805880853608" x2="74.83434967714312" y2="-310.31644601655955" stroke-width="1" stroke="black" />
   <line x1="74.83434967714312" y1="-310.31644601655955" x2="77.9245196208926" y2="-319.8270111795111" stroke-width="1" stroke="black" />
   <line x1="77.9245196208926" y1="-319.8270111795111" x2="83.80237214381732" y2="-327.91718112326055" stroke-width="1" stroke="black" />
   <line x1="83.80237214381732" y1="-327.91718112326055" x2="89.68022466674205" y2="-336.00735106701" stroke-width="1" stroke="black" />
   <line x1="77.9245196208926" y1="-319.8270111795111" x2="81.01468956464207" y2="-329.3375763424626" stroke-width="1" stroke="black" />
   <line x1="81.01468956464207" y1="-329.3375763424626" x2="84.10485950839154" y2="-338.84814150541416" stroke-width="1" stroke="black" />
   <line x1="84.10485950839154" y1="-338.84814150541416" x2="84.10485950839154" y2="-348.84814150541416" stroke-width="1" stroke="black" />
   <line x1="84.10485950839154" y1="-348.84814150541416" x2="84.10485950839154" y2="-358.84814150541416" stroke-width="1" stroke="black" />
   <line x1="84.10485950839154" y1="-338.84814150541416" x2="89.98271203131627" y2="-346.9383114491636" stroke-width="1" stroke="black" />
   <line x1="89.98271203131627" y1="-346.9383114491636" x2="95.860564554241" y2="-355.0284813929131" stroke-width="1" stroke="black" />
   <line x1="71.74417973339365" y1="-300.805880853608" x2="79.83434967714312" y2="-306.68373337653276" stroke-width="1" stroke="black" />
   <line x1="79.83434967714312" y1="-306.68373337653276" x2="87.9245196208926" y2="-312.5615858994575" stroke-width="1" stroke="black" />
   <line x1="87.9245196208926" y1="-312.5615858994575" x2="97.43508478384413" y2="-315.65175584320696" stroke-width="1" stroke="black" />
   <line x1="97.43508478384413" y1="-315.65175584320696" x2="106.94564994679567" y2="-318.7419257869564" stroke-width="1" stroke="black" />
   <line x1="87.9245196208926" y1="-312.5615858994575" x2="96.01468956464207" y2="-318.43943842238224" stroke-width="1" stroke="black" />
   <line x1="96.01468956464207" y1="-318.43943842238224" x2="104.10485950839154" y2="-324.317290945307" stroke-width="1" stroke="black" />
   <line x1="104.10485950839154" y1="-324.317290945307" x2="109.98271203131627" y2="-332.40746088905644" stroke-width="1" stroke="black" />
   <line x1="109.98271203131627" y1="-332.40746088905644" x2="115.860564554241" y2="-340.4976308328059" stroke-width="1" stroke="black" />
   <line x1="104.10485950839154" y1="-324.317290945307" x2="113.61542467134308" y2="-327.40746088905644" stroke-width="1" stroke="black" />
   <line x1="113.61542467134308" y1="-327.40746088905644" x2="123.12598983429461" y2="-330.4976308328059" stroke-width="1" stroke="black" />
   <line x1="24.72135954999579" y1="-236.0845213036123" x2="27.81152949374526" y2="-245.59508646656383" stroke-width="1" stroke="black" />
   <line x1="27.81152949374526" y1="-245.59508646656383" x2="30.901699437494734" y2="-255.10565162951536" stroke-width="1" stroke="black" />
   <line x1="30.901699437494734" y1="-255.10565162951536" x2="33.99186938124421" y2="-264.6162167924669" stroke-width="1" stroke="black" />
   <line x1="33.99186938124421" y1="-264.6162167924669" x2="37.08203932499368" y2="-274.12678195541844" stroke-width="1" stroke="black" />
   <line x1="37.08203932499368" y1="-274.12678195541844" x2="40.17220926874315" y2="-283.63734711837" stroke-width="1" stroke="black" />
   <line x1="40.17220926874315" y1="-283.63734711837" x2="43.262379212492625" y2="-293.1479122813215" stroke-width="1" stroke="black" />
   <line x1="43.262379212492625" y1="-293.1479122813215" x2="46.3525491562421" y2="-302.65847744427305" stroke-width="1" stroke="black" />
   <line x1="46.3525491562421" y1="-302.65847744427305" x2="49.44271909999157" y2="-312.1690426072246" stroke-width="1" stroke="black" />
   <line x1="49.44271909999157" y1="-312.1690426072246" x2="49.44271909999157" y2="-322.1690426072246" stroke-width="1" stroke="black" />
   <line x1="49.44271909999157" y1="-322.1690426072246" x2="49.44271909999157" y2="-332.1690426072246" stroke-width="1" stroke="black" />
   <line x1="49.44271909999157" y1="-332.1690426072246" x2="49.44271909999157" y2="-342.1690426072246" stroke-width="1" stroke="black" />
   <line x1="49.44271909999157" y1="-342.1690426072246" x2="49.44271909999157" y2="-352.1690426072246" stroke-width="1" stroke="black" />
   <line x1="49.44271909999157" y1="-352.1690426072246" x2="52.532889043741044" y2="-361.6796077701761" stroke-width="1" stroke="black" />
   <line x1="52.532889043741044" y1="-361.6796077701761" x2="55.623058987490516" y2="-371.19017293312766" stroke-width="1" stroke="black" />
   <line x1="55.623058987490516" y1="-371.19017293312766" x2="61.50091151041525" y2="-379.2803428768771" stroke-width="1" stroke="black" />
   <line x1="61.50091151041525" y1="-379.2803428768771" x2="67.37876403333998" y2="-387.3705128206266" stroke-width="1" stroke="black" />
   <line x1="55.623058987490516" y1="-371.19017293312766" x2="58.71322893123999" y2="-380.7007380960792" stroke-width="1" stroke="black" />
   <line x1="58.71322893123999" y1="-380.7007380960792" x2="61.80339887498946" y2="-390.21130325903073" stroke-width="1" stroke="black" />
   <line x1="61.80339887498946" y1="-390.21130325903073" x2="61.80339887498946" y2="-400.21130325903073" stroke-width="1" stroke="black" />
   <line x1="61.80339887498946" y1="-400.21130325903073" x2="61.80339887498946" y2="-410.21130325903073" stroke-width="1" stroke="black" />
   <line x1="61.80339887498946" y1="-390.21130325903073" x2="67.6812513979142" y2="-398.3014732027802" stroke-width="1" stroke="black" />
   <line x1="67.6812513979142" y1="-398.3014732027802" x2="73.55910392083892" y2="-406.39164314652965" stroke-width="1" stroke="black" />
   <line x1="49.44271909999157" y1="-352.1690426072246" x2="49.44271909999157" y2="-362.1690426072246" stroke-width="1" stroke="black" />
   <line x1="49.44271909999157" y1="-362.1690426072246" x2="49.44271909999157" y2="-372.1690426072246" stroke-width="1" stroke="black" />
   <line x1="49.44271909999157" y1="-372.1690426072246" x2="49.44271909999157" y2="-382.1690426072246" stroke-width="1" stroke="black" />
   <line x1="49.44271909999157" y1="-382.1690426072246" x2="49.44271909999157" y2="-392.1690426072246" stroke-width="1" stroke="black" />
   <line x1="49.44271909999157" y1="-392.1690426072246" x2="46.3525491562421" y2="-401.6796077701761" stroke-width="1" stroke="black" />
   <line x1="46.3525491562421" y1="-401.6796077701761" x2="43.262379212492625" y2="-411.19017293312766" stroke-width="1" stroke="black" />
   <line x1="43.262379212492625" y1="-411.19017293312766" x2="43.262379212492625" y2="-421.19017293312766" stroke-width="1" stroke="black" />
   <line x1="43.262379212492625" y1="-421.19017293312766" x2="43.262379212492625" y2="-431.19017293312766" stroke-width="1" stroke="black" />
   <line x1="43.262379212492625" y1="-411.19017293312766" x2="40.17220926874315" y2="-420.7007380960792" stroke-width="1" stroke="black" />
   <line x1="40.17220926874315" y1="-420.7007380960792" x2="37.08203932499368" y2="-430.21130325903073" stroke-width="1" stroke="black" />
   <line x1="37.08203932499368" y1="-430.21130325903073" x2="31.204186802068946" y2="-438.3014732027802" stroke-width="1" stroke="black" />
   <line x1="31.204186802068946" y1="-438.3014732027802" x2="25.326334279144213" y2="-446.39164314652965" stroke-width="1" stroke="black" />
   <line x1="37.08203932499368" y1="-430.21130325903073" x2="37.08203932499368" y2="-440.21130325903073" stroke-width="1" stroke="black" />
   <line x1="37.08203932499368" y1="-440.21130325903073" x2="37.08203932499368" y2="-450.21130325903073" stroke-width="1" stroke="black" />
   <line x1="49.44271909999157" y1="-392.1690426072246" x2="52.532889043741044" y2="-401.6796077701761" stroke-width="1" stroke="black" />
   <line x1="52.532889043741044" y1="-401.6796077701761" x2="55.623058987490516" y2="-411.19017293312766" stroke-width="1" stroke="black" />
   <line x1="55.623058987490516" y1="-411.19017293312766" x2="61.50091151041525" y2="-419.2803428768771" stroke-width="1" stroke="black" />
   <line x1="61.50091151041525" y1="-419.2803428768771" x2="67.37876403333998" y2="-427.3705128206266" stroke-width="1" stroke="black" />
   <line x1="55.623058987490516" y1="-411.19017293312766" x2="58.71322893123999" y2="-420.7007380960792" stroke-width="1" stroke="black" />
   <line x1="58.71322893123999" y1="-420.7007380960792" x2="61.80339887498946" y2="-430.21130325903073" stroke-width="1" stroke="black" />
   <line x1="61.80339887498946" y1="-430.21130325903073" x2="61.80339887498946" y2="-440.21130325903073" stroke-width="1" stroke="black" />
   <line x1="61.80339887498946" y1="-440.21130325903073" x2="61.80339887498946" y2="-450.21130325903073" stroke-width="1" stroke="black" />
   <line x1="61.80339887498946" y1="-430.21130325903073" x2="67.6812513979142" y2="-438.3014732027802" stroke-width="1" stroke="black" />
   <line x1="67.6812513979142" y1="-438.3014732027802" x2="73.55910392083892" y2="-446.39164314652965" stroke-width="1" stroke="black" />
   <line x1="49.44271909999157" y1="-312.1690426072246" x2="55.320571622916304" y2="-320.25921255097404" stroke-width="1" stroke="black" />
   <line x1="55.320571622916304" y1="-320.25921255097404" x2="61.19842414584104" y2="-328.3493824947235" stroke-width="1" stroke="black" />
   <line x1="61.19842414584104" y1="-328.3493824947235" x2="67.07627666876577" y2="-336.43955243847296" stroke-width="1" stroke="black" />
   <line x1="67.07627666876577" y1="-336.43955243847296" x2="72.9541291916905" y2="-344.5297223822224" stroke-width="1" stroke="black" />
   <line x1="72.9541291916905" y1="-344.5297223822224" x2="81.04429913543997" y2="-350.40757490514716" stroke-width="1" stroke="black" />
   <line x1="81.04429913543997" y1="-350.40757490514716" x2="89.13446907918944" y2="-356.2854274280719" stroke-width="1" stroke="black" />
   <line x1="89.13446907918944" y1="-356.2854274280719" x2="98.64503424214098" y2="-359.37559737182136" stroke-width="1" stroke="black" />
   <line x1="98.64503424214098" y1="-359.37559737182136" x2="108.15559940509252" y2="-362.4657673155708" stroke-width="1" stroke="black" />
   <line x1="89.13446907918944" y1="-356.2854274280719" x2="97.22463902293892" y2="-362.16327995099664" stroke-width="1" stroke="black" />
   <line x1="97.22463902293892" y1="-362.16327995099664" x2="105.31480896668839" y2="-368.0411324739214" stroke-width="1" stroke="black" />
   <line x1="105.31480896668839" y1="-368.0411324739214" x2="111.19266148961312" y2="-376.13130241767084" stroke-width="1" stroke="black" />
   <line x1="111.19266148961312" y1="-376.13130241767084" x2="117.07051401253784" y2="-384.2214723614203" stroke-width="1" stroke="black" />
   <line x1="105.31480896668839" y1="-368.0411324739214" x2="114.82537412963993" y2="-371.13130241767084" stroke-width="1" stroke="black" />
   <line x1="114.82537412963993" y1="-371.13130241767084" x2="124.33593929259146" y2="-374.2214723614203" stroke-width="1" stroke="black" />
   <line x1="72.9541291916905" y1="-344.5297223822224" x2="78.83198171461522" y2="-352.6198923259719" stroke-width="1" stroke="black" />
   <line x1="78.83198171461522" y1="-352.6198923259719" x2="84.70983423753995" y2="-360.71006226972133" stroke-width="1" stroke="black" />
   <line x1="84.70983423753995" y1="-360.71006226972133" x2="90.58768676046468" y2="-368.8002322134708" stroke-width="1" stroke="black" />
   <line x1="90.58768676046468" y1="-368.8002322134708" x2="96.4655392833894" y2="-376.89040215722025" stroke-width="1" stroke="black" />
   <line x1="96.4655392833894" y1="-376.89040215722025" x2="99.55570922713888" y2="-386.4009673201718" stroke-width="1" stroke="black" />
   <line x1="99.55570922713888" y1="-386.4009673201718" x2="102.64587917088835" y2="-395.9115324831233" stroke-width="1" stroke="black" />
   <line x1="102.64587917088835" y1="-395.9115324831233" x2="108.52373169381308" y2="-404.0017024268728" stroke-width="1" stroke="black" />
   <line x1="108.52373169381308" y1="-404.0017024268728" x2="114.4015842167378" y2="-412.09187237062224" stroke-width="1" stroke="black" />
   <line x1="102.64587917088835" y1="-395.9115324831233" x2="105.73604911463782" y2="-405.42209764607486" stroke-width="1" stroke="black" />
   <line x1="105.73604911463782" y1="-405.42209764607486" x2="108.8262190583873" y2="-414.9326628090264" stroke-width="1" stroke="black" />
   <line x1="108.8262190583873" y1="-414.9326628090264" x2="108.8262190583873" y2="-424.9326628090264" stroke-width="1" stroke="black" />
   <line x1="108.8262190583873" y1="-424.9326628090264" x2="108.8262190583873" y2="-434.9326628090264" stroke-width="1" stroke="black" />
   <line x1="108.8262190583873" y1="-414.9326628090264" x2="114.70407158131202" y2="-423.02283275277586" stroke-width="1" stroke="black" />
   <line x1="114.70407158131202" y1="-423.02283275277586" x2="120.58192410423675" y2="-431.1130026965253" stroke-width="1" stroke="black" />
   <line x1="96.4655392833894" y1="-376.89040215722025" x2="104.55570922713888" y2="-382.768254680145" stroke-width="1" stroke="black" />
   <line x1="104.55570922713888" y1="-382.768254680145" x2="112.64587917088835" y2="-388.64610720306973" stroke-width="1" stroke="black" />
   <line x1="112.64587917088835" y1="-388.64610720306973" x2="122.15644433383989" y2="-391.7362771468192" stroke-width="1" stroke="black" />
   <line x1="122.15644433383989" y1="-391.7362771468192" x2="131.66700949679142" y2="-394.82644709056865" stroke-width="1" stroke="black" />
   <line x1="112.64587917088835" y1="-388.64610720306973" x2="120.73604911463782" y2="-394.5239597259945" stroke-width="1" stroke="black" />
   <line x1="120.73604911463782" y1="-394.5239597259945" x2="128.8262190583873" y2="-400.4018122489192" stroke-width="1" stroke="black" />
   <line x1="128.8262190583873" y1="-400.4018122489192" x2="134.70407158131204" y2="-408.4919821926687" stroke-width="1" stroke="black" />
   <line x1="134.70407158131204" y1="-408.4919821926687" x2="140.58192410423678" y2="-416.58215213641813" stroke-width="1" stroke="black" />
   <line x1="128.8262190583873" y1="-400.4018122489192" x2="138.33678422133883" y2="-403.4919821926687" stroke-width="1" stroke="black" />
   <line x1="138.33678422133883" y1="-403.4919821926687" x2="147.84734938429037" y2="-406.58215213641813" stroke-width="1" stroke="black" />
   <line x1="0.0" y1="-160.0" x2="0.0" y2="-170.0" stroke-width="1" stroke="black" />
   <line x1="0.0" y1="-170.0" x2="0.0" y2="-180.0" stroke-width="1" stroke="black" />
   <line x1="0.0" y1="-180.0" x2="0.0" y2="-190.0" stroke-width="1" stroke="black" />
   <line x1="0.0" y1="-190.0" x2="0.0" y2="-200.0" stroke-width="1" stroke="black" />
   <line x1="0.0" y1="-200.0" x2="0.0" y2="-210.0" stroke-width="1" stroke="black" />
   <line x1="0.0" y1="-210.0" x2="0.0" y2="-220.0" stroke-width="1" stroke="black" />
   <line x1="0.0" y1="-220.0" x2="0.0" y2="-230.0" stroke-width="1" stroke="black" />
   <line x1="0.0" y1="-230.0" x2="0.0" y2="-240.0" stroke-width="1" stroke="black" />
   <line x1="0.0" y1="-240.0" x2="0.0" y2="-250.0" stroke-width="1" stroke="black" />
   <line x1="0.0" y1="-250.0" x2="0.0" y2="-260.0" stroke-width="1" stroke="black" />
   <line x1="0.0" y1="-260.0" x2="0.0" y2="-270.0" stroke-width="1" stroke="black" />
   <line x1="0.0" y1="-270.0" x2="0.0" y2="-280.0" stroke-width="1" stroke="black" />
   <line x1="0.0" y1="-280.0" x2="0.0" y2="-290.0" stroke-width="1" stroke="black" />
   <line x1="0.0" y1="-290.0" x2="0.0" y2="-300.0" stroke-width="1" stroke="black" />
   <line x1="0.0" y1="-300.0" x2="0.0" y2="-310.0" stroke-width="1" stroke="black" />
   <line x1="0.0" y1="-310.0" x2="0.0" y2="-320.0" stroke-width="1" stroke="black" />
   <line x1="0.0" y1="-320.0" x2="-3.090169943749474" y2="-329.51056516295154" stroke-width="1" stroke="black" />
   <line x1="-3.090169943749474" y1="-329.51056516295154" x2="-6.180339887498948" y2="-339.0211303259031" stroke-width="1" stroke="black" />
   <line x1="-6.180339887498948" y1="-339.0211303259031" x2="-9.270509831248422" y2="-348.5316954888546" stroke-width="1" stroke="black" />
   <line x1="-9.270509831248422" y1="-348.5316954888546" x2="-12.360679774997896" y2="-358.04226065180615" stroke-width="1" stroke="black" />
   <line x1="-12.360679774997896" y1="-358.04226065180615" x2="-15.45084971874737" y2="-367.5528258147577" stroke-width="1" stroke="black" />
   <line x1="-15.45084971874737" y1="-367.5528258147577" x2="-18.541019662496844" y2="-377.0633909777092" stroke-width="1" stroke="black" />
   <line x1="-18.541019662496844" y1="-377.0633909777092" x2="-21.631189606246316" y2="-386.57395614066075" stroke-width="1" stroke="black" />
   <line x1="-21.631189606246316" y1="-386.57395614066075" x2="-24.72135954999579" y2="-396.0845213036123" stroke-width="1" stroke="black" />
   <line x1="-24.72135954999579" y1="-396.0845213036123" x2="-24.72135954999579" y2="-406.0845213036123" stroke-width="1" stroke="black" />
   <line x1="-24.72135954999579" y1="-406.0845213036123" x2="-24.72135954999579" y2="-416.0845213036123" stroke-width="1" stroke="black" />
   <line x1="-24.72135954999579" y1="-416.0845213036123" x2="-24.72135954999579" y2="-426.0845213036123" stroke-width="1" stroke="black" />
   <line x1="-24.72135954999579" y1="-426.0845213036123" x2="-24.72135954999579" y2="-436.0845213036123" stroke-width="1" stroke="black" />
   <line x1="-24.72135954999579" y1="-436.0845213036123" x2="-21.631189606246316" y2="-445.5950864665638" stroke-width="1" stroke="black" />
   <line x1="-21.631189606246316" y1="-445.5950864665638" x2="-18.541019662496844" y2="-455.10565162951536" stroke-width="1" stroke="black" />
   <line x1="-18.541019662496844" y1="-455.10565162951536" x2="-12.663167139572112" y2="-463.1958215732648" stroke-width="1" stroke="black" />
   <line x1="-12.663167139572112" y1="-463.1958215732648" x2="-6.78531461664738" y2="-471.2859915170143" stroke-width="1" stroke="black" />
   <line x1="-18.541019662496844" y1="-455.10565162951536" x2="-15.450849718747369" y2="-464.6162167924669" stroke-width="1" stroke="black" />
   <line x1="-15.450849718747369" y1="-464.6162167924669" x2="-12.360679774997894" y2="-474.12678195541844" stroke-width="1" stroke="black" />
   <line x1="-12.360679774997894" y1="-474.12678195541844" x2="-12.360679774997894" y2="-484.12678195541844" stroke-width="1" stroke="black" />
   <line x1="-12.360679774997894" y1="-484.12678195541844" x2="-12.360679774997894" y2="-494.12678195541844" stroke-width="1" stroke="black" />
   <line x1="-12.360679774997894" y1="-474.12678195541844" x2="-6.482827252073163" y2="-482.2169518991679" stroke-width="1" stroke="black" />
   <line x1="-6.482827252073163" y1="-482.2169518991679" x2="-0.6049747291484309" y2="-490.30712184291735" stroke-width="1" stroke="black" />
   <line x1="-24.72135954999579" y1="-436.0845213036123" x2="-24.72135954999579" y2="-446.0845213036123" stroke-width="1" stroke="black" />
   <line x1="-24.72135954999579" y1="-446.0845213036123" x2="-24.72135954999579" y2="-456.0845213036123" stroke-width="1" stroke="black" />
   <line x1="-24.72135954999579" y1="-456.0845213036123" x2="-24.72135954999579" y2="-466.0845213036123" stroke-width="1" stroke="black" />
   <line x1="-24.72135954999579" y1="-466.0845213036123" x2="-24.72135954999579" y2="-476.0845213036123" stroke-width="1" stroke="black" />
   <line x1="-24.72135954999579" y1="-476.0845213036123" x2="-27.81152949374526" y2="-485.5950864665638" stroke-width="1" stroke="black" />
   <line x1="-27.81152949374526" y1="-485.5950864665638" x2="-30.901699437494734" y2="-495.10565162951536" stroke-width="1" stroke="black" />
   <line x1="-30.901699437494734" y1="-495.10565162951536" x2="-30.901699437494734" y2="-505.10565162951536" stroke-width="1" stroke="black" />
   <line x1="-30.901699437494734" y1="-505.10565162951536" x2="-30.901699437494734" y2="-515.1056516295154" stroke-width="1" stroke="black" />
   <line x1="-30.901699437494734" y1="-495.10565162951536" x2="-33.99186938124421" y2="-504.6162167924669" stroke-width="1" stroke="black" />
   <line x1="-33.99186938124421" y1="-504.6162167924669" x2="-37.08203932499368" y2="-514.1267819554184" stroke-width="1" stroke="black" />
   <line x1="-37.08203932499368" y1="-514.1267819554184" x2="-42.95989184791841" y2="-522.216951899168" stroke-width="1" stroke="black" />
   <line x1="-42.95989184791841" y1="-522.216951899168" x2="-48.83774437084315" y2="-530.3071218429175" stroke-width="1" stroke="black" />
   <line x1="-37.08203932499368" y1="-514.1267819554184" x2="-37.08203932499368" y2="-524.1267819554184" stroke-width="1" stroke="black" />
   <line x1="-37.08203932499368" y1="-524.1267819554184" x2="-37.08203932499368" y2="-534.1267819554184" stroke-width="1" stroke="black" />
   <line x1="-24.72135954999579" y1="-476.0845213036123" x2="-21.631189606246316" y2="-485.5950864665638" stroke-width="1" stroke="black" />
   <line x1="-21.631189606246316" y1="-485.5950864665638" x2="-18.541019662496844" y2="-495.10565162951536" stroke-width="1" stroke="black" />
   <line x1="-18.541019662496844" y1="-495.10565162951536" x2="-12.663167139572112" y2="-503.1958215732648" stroke-width="1" stroke="black" />
   <line x1="-12.663167139572112" y1="-503.1958215732648" x2="-6.78531461664738" y2="-511.2859915170143" stroke-width="1" stroke="black" />
   <line x1="-18.541019662496844" y1="-495.10565162951536" x2="-15.450849718747369" y2="-504.6162167924669" stroke-width="1" stroke="black" />
   <line x1="-15.450849718747369" y1="-504.6162167924669" x2="-12.360679774997894" y2="-514.1267819554184" stroke-width="1" stroke="black" />
   <line x1="-12.360679774997894" y1="-514.1267819554184" x2="-12.360679774997894" y2="-524.1267819554184" stroke-width="1" stroke="black" />
   <line x1="-12.360679774997894" y1="-524.1267819554184" x2="-12.360679774997894" y2="-534.1267819554184" stroke-width="1" stroke="black" />
   <line x1="-12.360679774997894" y1="-514.1267819554184" x2="-6.482827252073163" y2="-522.216951899168" stroke-width="1" stroke="black" />
   <line x1="-6.482827252073163" y1="-522.216951899168" x2="-0.6049747291484309" y2="-530.3071218429175" stroke-width="1" stroke="black" />
   <line x1="-24.72135954999579" y1="-396.0845213036123" x2="-27.81152949374526" y2="-405.5950864665638" stroke-width="1" stroke="black" />
   <line x1="-27.81152949374526" y1="-405.5950864665638" x2="-30.901699437494734" y2="-415.10565162951536" stroke-width="1" stroke="black" />
   <line x1="-30.901699437494734" y1="-415.10565162951536" x2="-33.99186938124421" y2="-424.6162167924669" stroke-width="1" stroke="black" />
   <line x1="-33.99186938124421" y1="-424.6162167924669" x2="-37.08203932499368" y2="-434.12678195541844" stroke-width="1" stroke="black" />
   <line x1="-37.08203932499368" y1="-434.12678195541844" x2="-40.17220926874315" y2="-443.63734711837" stroke-width="1" stroke="black" />
   <line x1="-40.17220926874315" y1="-443.63734711837" x2="-43.262379212492625" y2="-453.1479122813215" stroke-width="1" stroke="black" />
   <line x1="-43.262379212492625" y1="-453.1479122813215" x2="-46.3525491562421" y2="-462.65847744427305" stroke-width="1" stroke="black" />
   <line x1="-46.3525491562421" y1="-462.65847744427305" x2="-49.44271909999157" y2="-472.1690426072246" stroke-width="1" stroke="black" />
   <line x1="-49.44271909999157" y1="-472.1690426072246" x2="-55.320571622916304" y2="-480.25921255097404" stroke-width="1" stroke="black" />
   <line x1="-55.320571622916304" y1="-480.25921255097404" x2="-61.19842414584104" y2="-488.3493824947235" stroke-width="1" stroke="black" />
   <line x1="-61.19842414584104" y1="-488.3493824947235" x2="-67.07627666876577" y2="-496.43955243847296" stroke-width="1" stroke="black" />
   <line x1="-67.07627666876577" y1="-496.43955243847296" x2="-72.9541291916905" y2="-504.5297223822224" stroke-width="1" stroke="black" />
   <line x1="-72.9541291916905" y1="-504.5297223822224" x2="-76.04429913543997" y2="-514.0402875451739" stroke-width="1" stroke="black" />
   <line x1="-76.04429913543997" y1="-514.0402875451739" x2="-79.13446907918944" y2="-523.5508527081254" stroke-width="1" stroke="black" />
   <line x1="-79.13446907918944" y1="-523.5508527081254" x2="-79.13446907918944" y2="-533.5508527081254" stroke-width="1" stroke="black" />
   <line x1="-79.13446907918944" y1="-533.5508527081254" x2="-79.13446907918944" y2="-543.5508527081254" stroke-width="1" stroke="black" />
   <line x1="-79.13446907918944" y1="-523.5508527081254" x2="-82.22463902293892" y2="-533.0614178710769" stroke-width="1" stroke="black" />
   <line x1="-82.22463902293892" y1="-533.0614178710769" x2="-85.31480896668839" y2="-542.5719830340283" stroke-width="1" stroke="black" />
   <line x1="-85.31480896668839" y1="-542.5719830340283" x2="-91.19266148961312" y2="-550.6621529777779" stroke-width="1" stroke="black" />
   <line x1="-91.19266148961312" y1="-550.6621529777779" x2="-97.07051401253784" y2="-558.7523229215274" stroke-width="1" stroke="black" />
   <line x1="-85.31480896668839" y1="-542.5719830340283" x2="-85.31480896668839" y2="-552.5719830340283" stroke-width="1" stroke="black" />
   <line x1="-85.31480896668839" y1="-552.5719830340283" x2="-85.31480896668839" y2="-562.5719830340283" stroke-width="1" stroke="black" />
   <line x1="-72.9541291916905" y1="-504.5297223822224" x2="-78.83198171461522" y2="-512.6198923259719" stroke-width="1" stroke="black" />
   <line x1="-78.83198171461522" y1="-512.6198923259719" x2="-84.70983423753995" y2="-520.7100622697214" stroke-width="1" stroke="black" />
   <line x1="-84.70983423753995" y1="-520.7100622697214" x2="-90.58768676046468" y2="-528.800232213471" stroke-width="1" stroke="black" />
   <line x1="-90.58768676046468" y1="-528.800232213471" x2="-96.4655392833894" y2="-536.8904021572205" stroke-width="1" stroke="black" />
   <line x1="-96.4655392833894" y1="-536.8904021572205" x2="-104.55570922713888" y2="-542.7682546801452" stroke-width="1" stroke="black" />
   <line x1="-104.55570922713888" y1="-542.7682546801452" x2="-112.64587917088835" y2="-548.64610720307" stroke-width="1" stroke="black" />
   <line x1="-112.64587917088835" y1="-548.64610720307" x2="-118.52373169381308" y2="-556.7362771468195" stroke-width="1" stroke="black" />
   <line x1="-118.52373169381308" y1="-556.7362771468195" x2="-124.4015842167378" y2="-564.826447090569" stroke-width="1" stroke="black" />
   <line x1="-112.64587917088835" y1="-548.64610720307" x2="-120.73604911463782" y2="-554.5239597259947" stroke-width="1" stroke="black" />
   <line x1="-120.73604911463782" y1="-554.5239597259947" x2="-128.8262190583873" y2="-560.4018122489194" stroke-width="1" stroke="black" />
   <line x1="-128.8262190583873" y1="-560.4018122489194" x2="-138.33678422133883" y2="-563.491982192669" stroke-width="1" stroke="black" />
   <line x1="-138.33678422133883" y1="-563.491982192669" x2="-147.84734938429037" y2="-566.5821521364185" stroke-width="1" stroke="black" />
   <line x1="-128.8262190583873" y1="-560.4018122489194" x2="-134.70407158131204" y2="-568.491982192669" stroke-width="1" stroke="black" />
   <line x1="-134.70407158131204" y1="-568.491982192669" x2="-140.58192410423678" y2="-576.5821521364185" stroke-width="1" stroke="black" />
   <line x1="-96.4655392833894" y1="-536.8904021572205" x2="-99.55570922713888" y2="-546.400967320172" stroke-width="1" stroke="black" />
   <line x1="-99.55570922713888" y1="-546.400967320172" x2="-102.64587917088835" y2="-555.9115324831234" stroke-width="1" stroke="black" />
   <line x1="-102.64587917088835" y1="-555.9115324831234" x2="-102.64587917088835" y2="-565.9115324831234" stroke-width="1" stroke="black" />
   <line x1="-102.64587917088835" y1="-565.9115324831234" x2="-102.64587917088835" y2="-575.9115324831234" stroke-width="1" stroke="black" />
   <line x1="-102.64587917088835" y1="-555.9115324831234" x2="-105.73604911463782" y2="-565.4220976460749" stroke-width="1" stroke="black" />
   <line x1="-105.73604911463782" y1="-565.4220976460749" x2="-108.8262190583873" y2="-574.9326628090264" stroke-width="1" stroke="black" />
   <line x1="-108.8262190583873" y1="-574.9326628090264" x2="-114.70407158131202" y2="-583.0228327527759" stroke-width="1" stroke="black" />
   <line x1="-114.70407158131202" y1="-583.0228327527759" x2="-120.58192410423675" y2="-591.1130026965254" stroke-width="1" stroke="black" />
   <line x1="-108.8262190583873" y1="-574.9326628090264" x2="-108.8262190583873" y2="-584.9326628090264" stroke-width="1" stroke="black" />
   <line x1="-108.8262190583873" y1="-584.9326628090264" x2="-108.8262190583873" y2="-594.9326628090264" stroke-width="1" stroke="black" />
   <line x1="-49.44271909999157" y1="-472.1690426072246" x2="-49.44271909999157" y2="-482.1690426072246" stroke-width="1" stroke="black" />
   <line x1="-49.44271909999157" y1="-482.1690426072246" x2="-49.44271909999157" y2="-492.1690426072246" stroke-width="1" stroke="black" />
   <line x1="-49.44271909999157" y1="-492.1690426072246" x2="-49.44271909999157" y2="-502.1690426072246" stroke-width="1" stroke="black" />
   <line x1="-49.44271909999157" y1="-502.1690426072246" x2="-49.44271909999157" y2="-512.1690426072246" stroke-width="1" stroke="black" />
   <line x1="-49.44271909999157" y1="-512.1690426072246" x2="-46.3525491562421" y2="-521.6796077701761" stroke-width="1" stroke="black" />
   <line x1="-46.3525491562421" y1="-521.6796077701761" x2="-43.262379212492625" y2="-531.1901729331275" stroke-width="1" stroke="black" />
   <line x1="-43.262379212492625" y1="-531.1901729331275" x2="-37.38452668956789" y2="-539.2803428768771" stroke-width="1" stroke="black" />
   <line x1="-37.38452668956789" y1="-539.2803428768771" x2="-31.50667416664316" y2="-547.3705128206266" stroke-width="1" stroke="black" />
   <line x1="-43.262379212492625" y1="-531.1901729331275" x2="-40.17220926874315" y2="-540.700738096079" stroke-width="1" stroke="black" />
   <line x1="-40.17220926874315" y1="-540.700738096079" x2="-37.08203932499368" y2="-550.2113032590305" stroke-width="1" stroke="black" />
   <line x1="-37.08203932499368" y1="-550.2113032590305" x2="-37.08203932499368" y2="-560.2113032590305" stroke-width="1" stroke="black" />
   <line x1="-37.08203932499368" y1="-560.2113032590305" x2="-37.08203932499368" y2="-570.2113032590305" stroke-width="1" stroke="black" />
   <line x1="-37.08203932499368" y1="-550.2113032590305" x2="-31.204186802068946" y2="-558.30147320278" stroke-width="1" stroke="black" />
   <line x1="-31.204186802068946" y1="-558.30147320278" x2="-25.326334279144213" y2="-566.3916431465295" stroke-width="1" stroke="black" />
   <line x1="-49.44271909999157" y1="-512.1690426072246" x2="-49.44271909999157" y2="-522.1690426072246" stroke-width="1" stroke="black" />
   <line x1="-49.44271909999157" y1="-522.1690426072246" x2="-49.44271909999157" y2="-532.1690426072246" stroke-width="1" stroke="black" />
   <line x1="-49.44271909999157" y1="-532.1690426072246" x2="-49.44271909999157" y2="-542.1690426072246" stroke-width="1" stroke="black" />
   <line x1="-49.44271909999157" y1="-542.1690426072246" x2="-49.44271909999157" y2="-552.1690426072246" stroke-width="1" stroke="black" />
   <line x1="-49.44271909999157" y1="-552.1690426072246" x2="-52.532889043741044" y2="-561.6796077701761" stroke-width="1" stroke="black" />
   <line x1="-52.532889043741044" y1="-561.6796077701761" x2="-55.623058987490516" y2="-571.1901729331275" stroke-width="1" stroke="black" />
   <line x1="-55.623058987490516" y1="-571.1901729331275" x2="-55.623058987490516" y2="-581.1901729331275" stroke-width="1" stroke="black" />
   <line x1="-55.623058987490516" y1="-581.1901729331275" x2="-55.623058987490516" y2="-591.1901729331275" stroke-width="1" stroke="black" />
   <line x1="-55.623058987490516" y1="-571.1901729331275" x2="-58.71322893123999" y2="-580.700738096079" stroke-width="1" stroke="black" />
   <line x1="-58.71322893123999" y1="-580.700738096079" x2="-61.80339887498946" y2="-590.2113032590305" stroke-width="1" stroke="black" />
   <line x1="-61.80339887498946" y1="-590.2113032590305" x2="-67.6812513979142" y2="-598.30147320278" stroke-width="1" stroke="black" />
   <line x1="-67.6812513979142" y1="-598.30147320278" x2="-73.55910392083892" y2="-606.3916431465295" stroke-width="1" stroke="black" />
   <line x1="-61.80339887498946" y1="-590.2113032590305" x2="-61.80339887498946" y2="-600.2113032590305" stroke-width="1" stroke="black" />
   <line x1="-61.80339887498946" y1="-600.2113032590305" x2="-61.80339887498946" y2="-610.2113032590305" stroke-width="1" stroke="black" />
   <line x1="-49.44271909999157" y1="-552.1690426072246" x2="-46.3525491562421" y2="-561.6796077701761" stroke-width="1" stroke="black" />
   <line x1="-46.3525491562421" y1="-561.6796077701761" x2="-43.262379212492625" y2="-571.1901729331275" stroke-width="1" stroke="black" />
   <line x1="-43.262379212492625" y1="-571.1901729331275" x2="-37.38452668956789" y2="-579.2803428768771" stroke-width="1" stroke="black" />
   <line x1="-37.38452668956789" y1="-579.2803428768771" x2="-31.50667416664316" y2="-587.3705128206266" stroke-width="1" stroke="black" />
   <line x1="-43.262379212492625" y1="-571.1901729331275" x2="-40.17220926874315" y2="-580.700738096079" stroke-width="1" stroke="black" />
   <line x1="-40.17220926874315" y1="-580.700738096079" x2="-37.08203932499368" y2="-590.2113032590305" stroke-width="1" stroke="black" />
   <line x1="-37.08203932499368" y1="-590.2113032590305" x2="-37.08203932499368" y2="-600.2113032590305" stroke-width="1" stroke="black" />
   <line x1="-37.08203932499368" y1="-600.2113032590305" x2="-37.08203932499368" y2="-610.2113032590305" stroke-width="1" stroke="black" />
   <line x1="-37.08203932499368" y1="-590.2113032590305" x2="-31.204186802068946" y2="-598.30147320278" stroke-width="1" stroke="black" />
   <line x1="-31.204186802068946" y1="-598.30147320278" x2="-25.326334279144213" y2="-606.3916431465295" stroke-width="1" stroke="black" />
   <line x1="0.0" y1="-320.0" x2="3.090169943749474" y2="-329.51056516295154" stroke-width="1" stroke="black" />
   <line x1="3.090169943749474" y1="-329.51056516295154" x2="6.180339887498948" y2="-339.0211303259031" stroke-width="1" stroke="black" />
   <line x1="6.180339887498948" y1="-339.0211303259031" x2="9.270509831248422" y2="-348.5316954888546" stroke-width="1" stroke="black" />
   <line x1="9.270509831248422" y1="-348.5316954888546" x2="12.360679774997896" y2="-358.04226065180615" stroke-width="1" stroke="black" />
   <line x1="12.360679774997896" y1="-358.04226065180615" x2="15.45084971874737" y2="-367.5528258147577" stroke-width="1" stroke="black" />
   <line x1="15.45084971874737" y1="-367.5528258147577" x2="18.541019662496844" y2="-377.0633909777092" stroke-width="1" stroke="black" />
   <line x1="18.541019662496844" y1="-377.0633909777092" x2="21.631189606246316" y2="-386.57395614066075" stroke-width="1" stroke="black" />
   <line x1="21.631189606246316" y1="-386.57395614066075" x2="24.72135954999579" y2="-396.0845213036123" stroke-width="1" stroke="black" />
   <line x1="24.72135954999579" y1="-396.0845213036123" x2="30.599212072920523" y2="-404.17469124736175" stroke-width="1" stroke="black" />
   <line x1="30.599212072920523" y1="-404.17469124736175" x2="36.477064595845256" y2="-412.2648611911112" stroke-width="1" stroke="black" />
   <line x1="36.477064595845256" y1="-412.2648611911112" x2="42.35491711876999" y2="-420.35503113486067" stroke-width="1" stroke="black" />
   <line x1="42.35491711876999" y1="-420.35503113486067" x2="48.23276964169472" y2="-428.4452010786101" stroke-width="1" stroke="black" />
   <line x1="48.23276964169472" y1="-428.4452010786101" x2="56.322939585444196" y2="-434.32305360153487" stroke-width="1" stroke="black" />
   <line x1="56.322939585444196" y1="-434.32305360153487" x2="64.41310952919368" y2="-440.2009061244596" stroke-width="1" stroke="black" />
   <line x1="64.41310952919368" y1="-440.2009061244596" x2="73.92367469214521" y2="-443.29107606820907" stroke-width="1" stroke="black" />
   <line x1="73.92367469214521" y1="-443.29107606820907" x2="83.43423985509675" y2="-446.3812460119585" stroke-width="1" stroke="black" />
   <line x1="64.41310952919368" y1="-440.2009061244596" x2="72.50327947294315" y2="-446.07875864738435" stroke-width="1" stroke="black" />
   <line x1="72.50327947294315" y1="-446.07875864738435" x2="80.59344941669262" y2="-451.9566111703091" stroke-width="1" stroke="black" />
   <line x1="80.59344941669262" y1="-451.9566111703091" x2="86.47130193961735" y2="-460.04678111405855" stroke-width="1" stroke="black" />
   <line x1="86.47130193961735" y1="-460.04678111405855" x2="92.34915446254207" y2="-468.136951057808" stroke-width="1" stroke="black" />
   <line x1="80.59344941669262" y1="-451.9566111703091" x2="90.10401457964416" y2="-455.04678111405855" stroke-width="1" stroke="black" />
   <line x1="90.10401457964416" y1="-455.04678111405855" x2="99.6145797425957" y2="-458.136951057808" stroke-width="1" stroke="black" />
   <line x1="48.23276964169472" y1="-428.4452010786101" x2="54.11062216461946" y2="-436.5353710223596" stroke-width="1" stroke="black" />
   <line x1="54.11062216461946" y1="-436.5353710223596" x2="59.98847468754419" y2="-444.62554096610904" stroke-width="1" stroke="black" />
   <line x1="59.98847468754419" y1="-444.62554096610904" x2="65.86632721046892" y2="-452.7157109098585" stroke-width="1" stroke="black" />
   <line x1="65.86632721046892" y1="-452.7157109098585" x2="71.74417973339365" y2="-460.80588085360796" stroke-width="1" stroke="black" />
   <line x1="71.74417973339365" y1="-460.80588085360796" x2="74.83434967714312" y2="-470.3164460165595" stroke-width="1" stroke="black" />
   <line x1="74.83434967714312" y1="-470.3164460165595" x2="77.9245196208926" y2="-479.82701117951103" stroke-width="1" stroke="black" />
   <line x1="77.9245196208926" y1="-479.82701117951103" x2="83.80237214381732" y2="-487.9171811232605" stroke-width="1" stroke="black" />
   <line x1="83.80237214381732" y1="-487.9171811232605" x2="89.68022466674205" y2="-496.00735106700995" stroke-width="1" stroke="black" />
   <line x1="77.9245196208926" y1="-479.82701117951103" x2="81.01468956464207" y2="-489.33757634246257" stroke-width="1" stroke="black" />
   <line x1="81.01468956464207" y1="-489.33757634246257" x2="84.10485950839154" y2="-498.8481415054141" stroke-width="1" stroke="black" />
   <line x1="84.10485950839154" y1="-498.8481415054141" x2="84.10485950839154" y2="-508.8481415054141" stroke-width="1" stroke="black" />
   <line x1="84.10485950839154" y1="-508.8481415054141" x2="84.10485950839154" y2="-518.8481415054141" stroke-width="1" stroke="black" />
   <line x1="84.10485950839154" y1="-498.8481415054141" x2="89.98271203131627" y2="-506.93831144916356" stroke-width="1" stroke="black" />
   <line x1="89.98271203131627" y1="-506.93831144916356" x2="95.860564554241" y2="-515.028481392913" stroke-width="1" stroke="black" />
   <line x1="71.74417973339365" y1="-460.80588085360796" x2="79.83434967714312" y2="-466.6837333765327" stroke-width="1" stroke="black" />
   <line x1="79.83434967714312" y1="-466.6837333765327" x2="87.9245196208926" y2="-472.56158589945744" stroke-width="1" stroke="black" />
   <line x1="87.9245196208926" y1="-472.56158589945744" x2="97.43508478384413" y2="-475.6517558432069" stroke-width="1" stroke="black" />
   <line x1="97.43508478384413" y1="-475.6517558432069" x2="106.94564994679567" y2="-478.74192578695636" stroke-width="1" stroke="black" />
   <line x1="87.9245196208926" y1="-472.56158589945744" x2="96.01468956464207" y2="-478.4394384223822" stroke-width="1" stroke="black" />
   <line x1="96.01468956464207" y1="-478.4394384223822" x2="104.10485950839154" y2="-484.3172909453069" stroke-width="1" stroke="black" />
   <line x1="104.10485950839154" y1="-484.3172909453069" x2="109.98271203131627" y2="-492.4074608890564" stroke-width="1" stroke="black" />
   <line x1="109.98271203131627" y1="-492.4074608890564" x2="115.860564554241" y2="-500.49763083280584" stroke-width="1" stroke="black" />
   <line x1="104.10485950839154" y1="-484.3172909453069" x2="113.61542467134308" y2="-487.4074608890564" stroke-width="1" stroke="black" />
   <line x1="113.61542467134308" y1="-487.4074608890564" x2="123.12598983429461" y2="-490.49763083280584" stroke-width="1" stroke="black" />
   <line x1="24.72135954999579" y1="-396.0845213036123" x2="27.81152949374526" y2="-405.5950864665638" stroke-width="1" stroke="black" />
   <line x1="27.81152949374526" y1="-405.5950864665638" x2="30.901699437494734" y2="-415.10565162951536" stroke-width="1" stroke="black" />
   <line x1="30.901699437494734" y1="-415.10565162951536" x2="33.99186938124421" y2="-424.6162167924669" stroke-width="1" stroke="black" />
   <line x1="33.99186938124421" y1="-424.6162167924669" x2="37.08203932499368" y2="-434.12678195541844" stroke-width="1" stroke="black" />
   <line x1="37.08203932499368" y1="-434.12678195541844" x2="40.17220926874315" y2="-443.63734711837" stroke-width="1" stroke="black" />
   <line x1="40.17220926874315" y1="-443.63734711837" x2="43.262379212492625" y2="-453.1479122813215" stroke-width="1" stroke="black" />
   <line x1="43.262379212492625" y1="-453.1479122813215" x2="46.3525491562421" y2="-462.65847744427305" stroke-width="1" stroke="black" />
   <line x1="46.3525491562421" y1="-462.65847744427305" x2="49.44271909999157" y2="-472.1690426072246" stroke-width="1" stroke="black" />
   <line x1="49.44271909999157" y1="-472.1690426072246" x2="49.44271909999157" y2="-482.1690426072246" stroke-width="1" stroke="black" />
   <line x1="49.44271909999157" y1="-482.1690426072246" x2="49.44271909999157" y2="-492.1690426072246" stroke-width="1" stroke="black" />
   <line x1="49.44271909999157" y1="-492.1690426072246" x2="49.44271909999157" y2="-502.1690426072246" stroke-width="1" stroke="black" />
   <line x1="49.44271909999157" y1="-502.1690426072246" x2="49.44271909999157" y2="-512.1690426072246" stroke-width="1" stroke="black" />
   <line x1="49.44271909999157" y1="-512.1690426072246" x2="52.532889043741044" y2="-521.6796077701761" stroke-width="1" stroke="black" />
   <line x1="52.532889043741044" y1="-521.6796077701761" x2="55.623058987490516" y2="-531.1901729331275" stroke-width="1" stroke="black" />
   <line x1="55.623058987490516" y1="-531.1901729331275" x2="61.50091151041525" y2="-539.2803428768771" stroke-width="1" stroke="black" />
   <line x1="61.50091151041525" y1="-539.2803428768771" x2="67.37876403333998" y2="-547.3705128206266" stroke-width="1" stroke="black" />
   <line x1="55.623058987490516" y1="-531.1901729331275" x2="58.71322893123999" y2="-540.700738096079" stroke-width="1" stroke="black" />
   <line x1="58.71322893123999" y1="-540.700738096079" x2="61.80339887498946" y2="-550.2113032590305" stroke-width="1" stroke="black" />
   <line x1="61.80339887498946" y1="-550.2113032590305" x2="61.80339887498946" y2="-560.2113032590305" stroke-width="1" stroke="black" />
   <line x1="61.80339887498946" y1="-560.2113032590305" x2="61.80339887498946" y2="-570.2113032590305" stroke-width="1" stroke="black" />
   <line x1="61.80339887498946" y1="-550.2113032590305" x2="67.6812513979142" y2="-558.30147320278" stroke-width="1" stroke="black" />
   <line x1="67.6812513979142" y1="-558.30147320278" x2="73.55910392083892" y2="-566.3916431465295" stroke-width="1" stroke="black" />
   <line x1="49.44271909999157" y1="-512.1690426072246" x2="49.44271909999157" y2="-522.1690426072246" stroke-width="1" stroke="black" />
   <line x1="49.44271909999157" y1="-522.1690426072246" x2="49.44271909999157" y2="-532.1690426072246" stroke-width="1" stroke="black" />
   <line x1="49.44271909999157" y1="-532.1690426072246" x2="49.44271909999157" y2="-542.1690426072246" stroke-width="1" stroke="black" />
   <line x1="49.44271909999157" y1="-542.1690426072246" x2="49.44271909999157" y2="-552.1690426072246" stroke-width="1" stroke="black" />
   <line x1="49.44271909999157" y1="-552.1690426072246" x2="46.3525491562421" y2="-561.6796077701761" stroke-width="1" stroke="black" />
   <line x1="46.3525491562421" y1="-561.6796077701761" x2="43.262379212492625" y2="-571.1901729331275" stroke-width="1" stroke="black" />
   <line x1="43.262379212492625" y1="-571.1901729331275" x2="43.262379212492625" y2="-581.1901729331275" stroke-width="1" stroke="black" />
   <line x1="43.262379212492625" y1="-581.1901729331275" x2="43.262379212492625" y2="-591.1901729331275" stroke-width="1" stroke="black" />
   <line x1="43.262379212492625" y1="-571.1901729331275" x2="40.17220926874315" y2="-580.700738096079" stroke-width="1" stroke="black" />
   <line x1="40.17220926874315" y1="-580.700738096079" x2="37.08203932499368" y2="-590.2113032590305" stroke-width="1" stroke="black" />
   <line x1="37.08203932499368" y1="-590.2113032590305" x2="31.204186802068946" y2="-598.30147320278" stroke-width="1" stroke="black" />
   <line x1="31.204186802068946" y1="-598.30147320278" x2="25.326334279144213" y2="-606.3916431465295" stroke-width="1" stroke="black" />
   <line x1="37.08203932499368" y1="-590.2113032590305" x2="37.08203932499368" y2="-600.2113032590305" stroke-width="1" stroke="black" />
   <line x1="37.08203932499368" y1="-600.2113032590305" x2="37.08203932499368" y2="-610.2113032590305" stroke-width="1" stroke="black" />
   <line x1="49.44271909999157" y1="-552.1690426072246" x2="52.532889043741044" y2="-561.6796077701761" stroke-width="1" stroke="black" />
   <line x1="52.532889043741044" y1="-561.6796077701761" x2="55.623058987490516" y2="-571.1901729331275" stroke-width="1" stroke="black" />
   <line x1="55.623058987490516" y1="-571.1901729331275" x2="61.50091151041525" y2="-579.2803428768771" stroke-width="1" stroke="black" />
   <line x1="61.50091151041525" y1="-579.2803428768771" x2="67.37876403333998" y2="-587.3705128206266" stroke-width="1" stroke="black" />
   <line x1="55.623058987490516" y1="-571.1901729331275" x2="58.71322893123999" y2="-580.700738096079" stroke-width="1" stroke="black" />
   <line x1="58.71322893123999" y1="-580.700738096079" x2="61.80339887498946" y2="-590.2113032590305" stroke-width="1" stroke="black" />
   <line x1="61.80339887498946" y1="-590.2113032590305" x2="61.80339887498946" y2="-600.2113032590305" stroke-width="1" stroke="black" />
   <line x1="61.80339887498946" y1="-600.2113032590305" x2="61.80339887498946" y2="-610.2113032590305" stroke-width="1" stroke="black" />
   <line x1="61.80339887498946" y1="-590.2113032590305" x2="67.6812513979142" y2="-598.30147320278" stroke-width="1" stroke="black" />
   <line x1="67.6812513979142" y1="-598.30147320278" x2="73.55910392083892" y2="-606.3916431465295" stroke-width="1" stroke="black" />
   <line x1="49.44271909999157" y1="-472.1690426072246" x2="55.320571622916304" y2="-480.25921255097404" stroke-width="1" stroke="black" />
   <line x1="55.320571622916304" y1="-480.25921255097404" x2="61.19842414584104" y2="-488.3493824947235" stroke-width="1" stroke="black" />
   <line x1="61.19842414584104" y1="-488.3493824947235" x2="67.07627666876577" y2="-496.43955243847296" stroke-width="1" stroke="black" />
   <line x1="67.07627666876577" y1="-496.43955243847296" x2="72.9541291916905" y2="-504.5297223822224" stroke-width="1" stroke="black" />
   <line x1="72.9541291916905" y1="-504.5297223822224" x2="81.04429913543997" y2="-510.40757490514716" stroke-width="1" stroke="black" />
   <line x1="81.04429913543997" y1="-510.40757490514716" x2="89.13446907918944" y2="-516.2854274280719" stroke-width="1" stroke="black" />
   <line x1="89.13446907918944" y1="-516.2854274280719" x2="98.64503424214098" y2="-519.3755973718214" stroke-width="1" stroke="black" />
   <line x1="98.64503424214098" y1="-519.3755973718214" x2="108.15559940509252" y2="-522.4657673155709" stroke-width="1" stroke="black" />
   <line x1="89.13446907918944" y1="-516.2854274280719" x2="97.22463902293892" y2="-522.1632799509966" stroke-width="1" stroke="black" />
   <line x1="97.22463902293892" y1="-522.1632799509966" x2="105.31480896668839" y2="-528.0411324739214" stroke-width="1" stroke="black" />
   <line x1="105.31480896668839" y1="-528.0411324739214" x2="111.19266148961312" y2="-536.1313024176709" stroke-width="1" stroke="black" />
   <line x1="111.19266148961312" y1="-536.1313024176709" x2="117.07051401253784" y2="-544.2214723614204" stroke-width="1" stroke="black" />
   <line x1="105.31480896668839" y1="-528.0411324739214" x2="114.82537412963993" y2="-531.1313024176709" stroke-width="1" stroke="black" />
   <line x1="114.82537412963993" y1="-531.1313024176709" x2="124.33593929259146" y2="-534.2214723614204" stroke-width="1" stroke="black" />
   <line x1="72.9541291916905" y1="-504.5297223822224" x2="78.83198171461522" y2="-512.6198923259719" stroke-width="1" stroke="black" />
   <line x1="78.83198171461522" y1="-512.6198923259719" x2="84.70983423753995" y2="-520.7100622697214" stroke-width="1" stroke="black" />
   <line x1="84.70983423753995" y1="-520.7100622697214" x2="90.58768676046468" y2="-528.800232213471" stroke-width="1" stroke="black" />
   <line x1="90.58768676046468" y1="-528.800232213471" x2="96.4655392833894" y2="-536.8904021572205" stroke-width="1" stroke="black" />
   <line x1="96.4655392833894" y1="-536.8904021572205" x2="99.55570922713888" y2="-546.400967320172" stroke-width="1" stroke="black" />
   <line x1="99.55570922713888" y1="-546.400967320172" x2="102.64587917088835" y2="-555.9115324831234" stroke-width="1" stroke="black" />
   <line x1="102.64587917088835" y1="-555.9115324831234" x2="108.52373169381308" y2="-564.001702426873" stroke-width="1" stroke="black" />
   <line x1="108.52373169381308" y1="-564.001702426873" x2="114.4015842167378" y2="-572.0918723706225" stroke-width="1" stroke="black" />
   <line x1="102.64587917088835" y1="-555.9115324831234" x2="105.73604911463782" y2="-565.4220976460749" stroke-width="1" stroke="black" />
   <line x1="105.73604911463782" y1="-565.4220976460749" x2="108.8262190583873" y2="-574.9326628090264" stroke-width="1" stroke="black" />
   <line x1="108.8262190583873" y1="-574.9326628090264" x2="108.8262190583873" y2="-584.9326628090264" stroke-width="1" stroke="black" />
   <line x1="108.8262190583873" y1="-584.9326628090264" x2="108.8262190583873" y2="-594.9326628090264" stroke-width="1" stroke="black" />
   <line x1="108.8262190583873" y1="-574.9326628090264" x2="114.70407158131202" y2="-583.0228327527759" stroke-width="1" stroke="black" />
   <line x1="114.70407158131202" y1="-583.0228327527759" x2="120.58192410423675" y2="-591.1130026965254" stroke-width="1" stroke="black" />
   <line x1="96.4655392833894" y1="-536.8904021572205" x2="104.55570922713888" y2="-542.7682546801452" stroke-width="1" stroke="black" />
   <line x1="104.55570922713888" y1="-542.7682546801452" x2="112.64587917088835" y2="-548.64610720307" stroke-width="1" stroke="black" />
   <line x1="112.64587917088835" y1="-548.64610720307" x2="122.15644433383989" y2="-551.7362771468195" stroke-width="1" stroke="black" />
   <line x1="122.15644433383989" y1="-551.7362771468195" x2="131.66700949679142" y2="-554.826447090569" stroke-width="1" stroke="black" />
   <line x1="112.64587917088835" y1="-548.64610720307" x2="120.73604911463782" y2="-554.5239597259947" stroke-width="1" stroke="black" />
   <line x1="120.73604911463782" y1="-554.5239597259947" x2="128.8262190583873" y2="-560.4018122489194" stroke-width="1" stroke="black" />
   <line x1="128.8262190583873" y1="-560.4018122489194" x2="134.70407158131204" y2="-568.491982192669" stroke-width="1" stroke="black" />
   <line x1="134.70407158131204" y1="-568.491982192669" x2="140.58192410423678" y2="-576.5821521364185" stroke-width="1" stroke="black" />
   <line x1="128.8262190583873" y1="-560.4018122489194" x2="138.33678422133883" y2="-563.491982192669" stroke-width="1" stroke="black" />
   <line x1="138.33678422133883" y1="-563.491982192669" x2="147.84734938429037" y2="-566.5821521364185" stroke-width="1" stroke="black" />
</svg>