<svg viewBox="-77.94228634059951 -270.0 342.946059898638 297.00000000000045" xmlns="http://www.w3.org/2000/svg">
   <line x1="0" y1="0" x2="0.0" y2="-10.0" stroke-width="1" stroke="black" />
   <line x1="0.0" y1="-10.0" x2="-8.660254037844386" y2="-15.0" stroke-width="1" stroke="black" />
   <line x1="-8.660254037844386" y1="-15.0" x2="0.0" y2="-20.0" stroke-width="1" stroke="black" />
   <line x1="0.0" y1="-20.0" x2="0.0" y2="-30.0" stroke-width="1" stroke="black" />
   <line x1="0.0" y1="-30.0" x2="-8.660254037844386" y2="-35.0" stroke-width="1" stroke="black" />
   <line x1="-8.660254037844386" y1="-35.0" x2="-17.32050807568877" y2="-30.0" stroke-width="1" stroke="black" />
   <line x1="-17.32050807568877" y1="-30.0" x2="-17.32050807568877" y2="-40.0" stroke-width="1" stroke="black" />
   <line x1="-17.32050807568877" y1="-40.0" x2="-25.980762113533157" y2="-45.0" stroke-width="1" stroke="black" />
   <line x1="-25.980762113533157" y1="-45.0" x2="-17.32050807568877" y2="-50.0" stroke-width="1" stroke="black" />
   <line x1="-17.32050807568877" y1="-50.0" x2="-17.32050807568877" y2="-60.0" stroke-width="1" stroke="black" />
   <line x1="-17.32050807568877" y1="-60.0" x2="-8.660254037844384" y2="-55.0" stroke-width="1" stroke="black" />
   <line x1="-8.660254037844384" y1="-55.0" x2="1.7763568394002505e-15" y2="-60.0" stroke-width="1" stroke="black" />
   <line x1="1.7763568394002505e-15" y1="-60.0" x2="1.7763568394002505e-15" y2="-70.0" stroke-width="1" stroke="black" />
   <line x1="1.7763568394002505e-15" y1="-70.0" x2="-8.660254037844384" y2="-75.0" stroke-width="1" stroke="black" />
   <line x1="-8.660254037844384" y1="-75.0" x2="1.7763568394002505e-15" y2="-80.0" stroke-width="1" stroke="black" />
   <line x1="1.7763568394002505e-15" y1="-80.0" x2="1.7763568394002505e-15" y2="-90.0" stroke-width="1" stroke="black" />
   <line x1="1.7763568394002505e-15" y1="-90.0" x2="-8.660254037844384" y2="-95.0" stroke-width="1" stroke="black" />
   <line x1="-8.660254037844384" y1="-95.0" x2="-17.32050807568877" y2="-90.0" stroke-width="1" stroke="black" />
   <line x1="-17.32050807568877" y1="-90.0" x2="-17.32050807568877" y2="-100.0" stroke-width="1" stroke="black" />
   <line x1="-17.32050807568877" y1="-100.0" x2="-25.980762113533157" y2="-105.0" stroke-width="1" stroke="black" />
   <line x1="-25.980762113533157" y1="-105.0" x2="-34.64101615137754" y2="-100.0" stroke-width="1" stroke="black" />
   <line x1="-34.64101615137754" y1="-100.0" x2="-34.64101615137754" y2="-90.0" stroke-width="1" stroke="black" />
   <line x1="-34.64101615137754" y1="-90.0" x2="-43.30127018922193" y2="-95.0" stroke-width="1" stroke="black" />
   <line x1="-43.30127018922193" y1="-95.0" x2="-51.96152422706632" y2="-90.0" stroke-width="1" stroke="black" />
   <line x1="-51.96152422706632" y1="-90.0" x2="-51.96152422706633" y2="-100.0" stroke-width="1" stroke="black" />
   <line x1="-51.96152422706633" y1="-100.0" x2="-60.621778264910716" y2="-105.0" stroke-width="1" stroke="black" />
   <line x1="-60.621778264910716" y1="-105.0" x2="-51.961524227066334" y2="-110.0" stroke-width="1" stroke="black" />
   <line x1="-51.961524227066334" y1="-110.0" x2="-51.96152422706634" y2="-120.0" stroke-width="1" stroke="black" />
   <line x1="-51.96152422706634" y1="-120.0" x2="-60.62177826491073" y2="-125.0" stroke-width="1" stroke="black" />
   <line x1="-60.62177826491073" y1="-125.0" x2="-69.28203230275511" y2="-120.0" stroke-width="1" stroke="black" />
   <line x1="-69.28203230275511" y1="-120.0" x2="-69.28203230275511" y2="-130.0" stroke-width="1" stroke="black" />
   <line x1="-69.28203230275511" y1="-130.0" x2="-77.94228634059951" y2="-135.0" stroke-width="1" stroke="black" />
   <line x1="-77.94228634059951" y1="-135.0" x2="-69.28203230275513" y2="-140.0" stroke-width="1" stroke="black" />
   <line x1="-69.28203230275513" y1="-140.0" x2="-69.28203230275513" y2="-150.0" stroke-width="1" stroke="black" />
   <line x1="-69.28203230275513" y1="-150.0" x2="-60.62177826491074" y2="-145.0" stroke-width="1" stroke="black" />
   <line x1="-60.62177826491074" y1="-145.0" x2="-51.961524227066356" y2="-150.0" stroke-width="1" stroke="black" />
   <line x1="-51.961524227066356" y1="-150.0" x2="-51.96152422706636" y2="-160.0" stroke-width="1" stroke="black" />
   <line x1="-51.96152422706636" y1="-160.0" x2="-60.62177826491075" y2="-165.0" stroke-width="1" stroke="black" />
   <line x1="-60.62177826491075" y1="-165.0" x2="-51.96152422706637" y2="-170.0" stroke-width="1" stroke="black" />
   <line x1="-51.96152422706637" y1="-170.0" x2="-51.96152422706638" y2="-180.0" stroke-width="1" stroke="black" />
   <line x1="-51.96152422706638" y1="-180.0" x2="-43.30127018922199" y2="-175.0" stroke-width="1" stroke="black" />
   <line x1="-43.30127018922199" y1="-175.0" x2="-34.641016151377606" y2="-180.0" stroke-width="1" stroke="black" />
   <line x1="-34.641016151377606" y1="-180.0" x2="-34.6410161513776" y2="-170.0" stroke-width="1" stroke="black" />
   <line x1="-34.6410161513776" y1="-170.0" x2="-25.98076211353321" y2="-165.0" stroke-width="1" stroke="black" />
   <line x1="-25.98076211353321" y1="-165.0" x2="-17.320508075688828" y2="-170.0" stroke-width="1" stroke="black" />
   <line x1="-17.320508075688828" y1="-170.0" x2="-17.32050807568883" y2="-180.0" stroke-width="1" stroke="black" />
   <line x1="-17.32050807568883" y1="-180.0" x2="-8.660254037844442" y2="-175.0" stroke-width="1" stroke="black" />
   <line x1="-8.660254037844442" y1="-175.0" x2="-5.861977570020827e-14" y2="-180.0" stroke-width="1" stroke="black" />
   <line x1="-5.861977570020827e-14" y1="-180.0" x2="-6.306066779870889e-14" y2="-190.0" stroke-width="1" stroke="black" />
   <line x1="-6.306066779870889e-14" y1="-190.0" x2="-8.660254037844453" y2="-195.0" stroke-width="1" stroke="black" />
   <line x1="-8.660254037844453" y1="-195.0" x2="-6.927791673660977e-14" y2="-200.0" stroke-width="1" stroke="black" />
   <line x1="-6.927791673660977e-14" y1="-200.0" x2="-7.37188088351104e-14" y2="-210.0" stroke-width="1" stroke="black" />
   <line x1="-7.37188088351104e-14" y1="-210.0" x2="-8.660254037844464" y2="-215.0" stroke-width="1" stroke="black" />
   <line x1="-8.660254037844464" y1="-215.0" x2="-17.32050807568885" y2="-210.0" stroke-width="1" stroke="black" />
   <line x1="-17.32050807568885" y1="-210.0" x2="-17.320508075688853" y2="-220.0" stroke-width="1" stroke="black" />
   <line x1="-17.320508075688853" y1="-220.0" x2="-25.980762113533242" y2="-225.0" stroke-width="1" stroke="black" />
   <line x1="-25.980762113533242" y1="-225.0" x2="-17.320508075688856" y2="-230.0" stroke-width="1" stroke="black" />
   <line x1="-17.320508075688856" y1="-230.0" x2="-17.32050807568886" y2="-240.0" stroke-width="1" stroke="black" />
   <line x1="-17.32050807568886" y1="-240.0" x2="-8.66025403784447" y2="-235.0" stroke-width="1" stroke="black" />
   <line x1="-8.66025403784447" y1="-235.0" x2="-8.704148513061227e-14" y2="-240.0" stroke-width="1" stroke="black" />
   <line x1="-8.704148513061227e-14" y1="-240.0" x2="-9.14823772291129e-14" y2="-250.0" stroke-width="1" stroke="black" />
   <line x1="-9.14823772291129e-14" y1="-250.0" x2="-8.660254037844481" y2="-255.0" stroke-width="1" stroke="black" />
   <line x1="-8.660254037844481" y1="-255.0" x2="-9.769962616701378e-14" y2="-260.0" stroke-width="1" stroke="black" />
   <line x1="-9.769962616701378e-14" y1="-260.0" x2="-1.021405182655144e-13" y2="-270.0" stroke-width="1" stroke="black" />
   <line x1="-1.021405182655144e-13" y1="-270.0" x2="8.660254037844286" y2="-265.0" stroke-width="1" stroke="black" />
   <line x1="8.660254037844286" y1="-265.0" x2="17.32050807568867" y2="-270.0" stroke-width="1" stroke="black" />
   <line x1="17.32050807568867" y1="-270.0" x2="17.320508075688682" y2="-260.0" stroke-width="1" stroke="black" />
   <line x1="17.320508075688682" y1="-260.0" x2="25.98076211353307" y2="-255.0" stroke-width="1" stroke="black" />
   <line x1="25.98076211353307" y1="-255.0" x2="34.64101615137746" y2="-260.0" stroke-width="1" stroke="black" />
   <line x1="34.64101615137746" y1="-260.0" x2="34.64101615137745" y2="-270.0" stroke-width="1" stroke="black" />
   <line x1="34.64101615137745" y1="-270.0" x2="43.30127018922184" y2="-265.0" stroke-width="1" stroke="black" />
   <line x1="43.30127018922184" y1="-265.0" x2="51.96152422706622" y2="-270.0" stroke-width="1" stroke="black" />
   <line x1="51.96152422706622" y1="-270.0" x2="51.96152422706623" y2="-260.0" stroke-width="1" stroke="black" />
   <line x1="51.96152422706623" y1="-260.0" x2="60.62177826491062" y2="-255.0" stroke-width="1" stroke="black" />
   <line x1="60.62177826491062" y1="-255.0" x2="51.961524227066235" y2="-250.0" stroke-width="1" stroke="black" />
   <line x1="51.961524227066235" y1="-250.0" x2="51.96152422706624" y2="-240.0" stroke-width="1" stroke="black" />
   <line x1="51.96152422706624" y1="-240.0" x2="60.62177826491063" y2="-235.0" stroke-width="1" stroke="black" />
   <line x1="60.62177826491063" y1="-235.0" x2="69.28203230275501" y2="-240.0" stroke-width="1" stroke="black" />
   <line x1="69.28203230275501" y1="-240.0" x2="69.28203230275503" y2="-230.0" stroke-width="1" stroke="black" />
   <line x1="69.28203230275503" y1="-230.0" x2="77.94228634059942" y2="-225.0" stroke-width="1" stroke="black" />
   <line x1="77.94228634059942" y1="-225.0" x2="86.6025403784438" y2="-230.0" stroke-width="1" stroke="black" />
   <line x1="86.6025403784438" y1="-230.0" x2="86.6025403784438" y2="-240.0" stroke-width="1" stroke="black" />
   <line x1="86.6025403784438" y1="-240.0" x2="95.26279441628819" y2="-235.0" stroke-width="1" stroke="black" />
   <line x1="95.26279441628819" y1="-235.0" x2="103.92304845413257" y2="-240.0" stroke-width="1" stroke="black" />
   <line x1="103.92304845413257" y1="-240.0" x2="103.92304845413257" y2="-250.0" stroke-width="1" stroke="black" />
   <line x1="103.92304845413257" y1="-250.0" x2="95.26279441628819" y2="-255.0" stroke-width="1" stroke="black" />
   <line x1="95.26279441628819" y1="-255.0" x2="103.92304845413257" y2="-260.0" stroke-width="1" stroke="black" />
   <line x1="103.92304845413257" y1="-260.0" x2="103.92304845413257" y2="-270.0" stroke-width="1" stroke="black" />
   <line x1="103.92304845413257" y1="-270.0" x2="112.58330249197695" y2="-265.0" stroke-width="1" stroke="black" />
   <line x1="112.58330249197695" y1="-265.0" x2="121.24355652982133" y2="-270.0" stroke-width="1" stroke="black" />
   <line x1="121.24355652982133" y1="-270.0" x2="121.24355652982135" y2="-260.0" stroke-width="1" stroke="black" />
   <line x1="121.24355652982135" y1="-260.0" x2="129.90381056766574" y2="-255.0" stroke-width="1" stroke="black" />
   <line x1="129.90381056766574" y1="-255.0" x2="138.56406460551014" y2="-260.0" stroke-width="1" stroke="black" />
   <line x1="138.56406460551014" y1="-260.0" x2="138.56406460551014" y2="-270.0" stroke-width="1" stroke="black" />
   <line x1="138.56406460551014" y1="-270.0" x2="147.22431864335454" y2="-265.0" stroke-width="1" stroke="black" />
   <line x1="147.22431864335454" y1="-265.0" x2="155.88457268119893" y2="-270.0" stroke-width="1" stroke="black" />
   <line x1="155.88457268119893" y1="-270.0" x2="155.88457268119893" y2="-260.0" stroke-width="1" stroke="black" />
   <line x1="155.88457268119893" y1="-260.0" x2="164.54482671904333" y2="-255.0" stroke-width="1" stroke="black" />
   <line x1="164.54482671904333" y1="-255.0" x2="155.88457268119896" y2="-250.0" stroke-width="1" stroke="black" />
   <line x1="155.88457268119896" y1="-250.0" x2="155.88457268119896" y2="-240.0" stroke-width="1" stroke="black" />
   <line x1="155.88457268119896" y1="-240.0" x2="164.54482671904336" y2="-235.0" stroke-width="1" stroke="black" />
   <line x1="164.54482671904336" y1="-235.0" x2="173.20508075688775" y2="-240.0" stroke-width="1" stroke="black" />
   <line x1="173.20508075688775" y1="-240.0" x2="173.20508075688775" y2="-230.0" stroke-width="1" stroke="black" />
   <line x1="173.20508075688775" y1="-230.0" x2="181.86533479473215" y2="-225.0" stroke-width="1" stroke="black" />
   <line x1="181.86533479473215" y1="-225.0" x2="173.20508075688778" y2="-220.0" stroke-width="1" stroke="black" />
   <line x1="173.20508075688778" y1="-220.0" x2="173.20508075688778" y2="-210.0" stroke-width="1" stroke="black" />
   <line x1="173.20508075688778" y1="-210.0" x2="164.54482671904339" y2="-215.0" stroke-width="1" stroke="black" />
   <line x1="164.54482671904339" y1="-215.0" x2="155.88457268119902" y2="-210.0" stroke-width="1" stroke="black" />
   <line x1="155.88457268119902" y1="-210.0" x2="155.88457268119902" y2="-200.0" stroke-width="1" stroke="black" />
   <line x1="155.88457268119902" y1="-200.0" x2="164.5448267190434" y2="-195.0" stroke-width="1" stroke="black" />
   <line x1="164.5448267190434" y1="-195.0" x2="155.88457268119905" y2="-190.0" stroke-width="1" stroke="black" />
   <line x1="155.88457268119905" y1="-190.0" x2="155.88457268119905" y2="-180.0" stroke-width="1" stroke="black" />
   <line x1="155.88457268119905" y1="-180.0" x2="164.54482671904344" y2="-175.0" stroke-width="1" stroke="black" />
   <line x1="164.54482671904344" y1="-175.0" x2="173.20508075688784" y2="-180.0" stroke-width="1" stroke="black" />
   <line x1="173.20508075688784" y1="-180.0" x2="173.20508075688784" y2="-170.0" stroke-width="1" stroke="black" />
   <line x1="173.20508075688784" y1="-170.0" x2="181.86533479473223" y2="-165.0" stroke-width="1" stroke="black" />
   <line x1="181.86533479473223" y1="-165.0" x2="190.52558883257663" y2="-170.0" stroke-width="1" stroke="black" />
   <line x1="190.52558883257663" y1="-170.0" x2="190.52558883257663" y2="-180.0" stroke-width="1" stroke="black" />
   <line x1="190.52558883257663" y1="-180.0" x2="199.18584287042103" y2="-175.0" stroke-width="1" stroke="black" />
   <line x1="199.18584287042103" y1="-175.0" x2="207.84609690826542" y2="-180.0" stroke-width="1" stroke="black" />
   <line x1="207.84609690826542" y1="-180.0" x2="207.84609690826542" y2="-170.0" stroke-width="1" stroke="black" />
   <line x1="207.84609690826542" y1="-170.0" x2="216.50635094610982" y2="-165.0" stroke-width="1" stroke="black" />
   <line x1="216.50635094610982" y1="-165.0" x2="207.84609690826545" y2="-160.0" stroke-width="1" stroke="black" />
   <line x1="207.84609690826545" y1="-160.0" x2="207.84609690826545" y2="-150.0" stroke-width="1" stroke="black" />
   <line x1="207.84609690826545" y1="-150.0" x2="216.50635094610985" y2="-145.0" stroke-width="1" stroke="black" />
   <line x1="216.50635094610985" y1="-145.0" x2="225.16660498395424" y2="-150.0" stroke-width="1" stroke="black" />
   <line x1="225.16660498395424" y1="-150.0" x2="225.16660498395424" y2="-140.0" stroke-width="1" stroke="black" />
   <line x1="225.16660498395424" y1="-140.0" x2="233.82685902179864" y2="-135.0" stroke-width="1" stroke="black" />
   <line x1="233.82685902179864" y1="-135.0" x2="225.16660498395427" y2="-130.0" stroke-width="1" stroke="black" />
   <line x1="225.16660498395427" y1="-130.0" x2="225.16660498395427" y2="-120.0" stroke-width="1" stroke="black" />
   <line x1="225.16660498395427" y1="-120.0" x2="216.50635094610988" y2="-124.99999999999999" stroke-width="1" stroke="black" />
   <line x1="216.50635094610988" y1="-124.99999999999999" x2="207.8460969082655" y2="-119.99999999999997" stroke-width="1" stroke="black" />
   <line x1="207.8460969082655" y1="-119.99999999999997" x2="207.8460969082655" y2="-109.99999999999997" stroke-width="1" stroke="black" />
   <line x1="207.8460969082655" y1="-109.99999999999997" x2="216.5063509461099" y2="-104.99999999999997" stroke-width="1" stroke="black" />
   <line x1="216.5063509461099" y1="-104.99999999999997" x2="207.84609690826554" y2="-99.99999999999996" stroke-width="1" stroke="black" />
   <line x1="207.84609690826554" y1="-99.99999999999996" x2="207.84609690826554" y2="-89.99999999999996" stroke-width="1" stroke="black" />
   <line x1="207.84609690826554" y1="-89.99999999999996" x2="199.18584287042114" y2="-94.99999999999994" stroke-width="1" stroke="black" />
   <line x1="199.18584287042114" y1="-94.99999999999994" x2="190.52558883257677" y2="-89.99999999999993" stroke-width="1" stroke="black" />
   <line x1="190.52558883257677" y1="-89.99999999999993" x2="190.52558883257674" y2="-99.99999999999993" stroke-width="1" stroke="black" />
   <line x1="190.52558883257674" y1="-99.99999999999993" x2="181.86533479473235" y2="-104.99999999999991" stroke-width="1" stroke="black" />
   <line x1="181.86533479473235" y1="-104.99999999999991" x2="173.20508075688798" y2="-99.9999999999999" stroke-width="1" stroke="black" />
   <line x1="173.20508075688798" y1="-99.9999999999999" x2="173.20508075688798" y2="-89.9999999999999" stroke-width="1" stroke="black" />
   <line x1="173.20508075688798" y1="-89.9999999999999" x2="164.54482671904358" y2="-94.99999999999989" stroke-width="1" stroke="black" />
   <line x1="164.54482671904358" y1="-94.99999999999989" x2="155.88457268119922" y2="-89.99999999999987" stroke-width="1" stroke="black" />
   <line x1="155.88457268119922" y1="-89.99999999999987" x2="155.88457268119922" y2="-79.99999999999987" stroke-width="1" stroke="black" />
   <line x1="155.88457268119922" y1="-79.99999999999987" x2="164.5448267190436" y2="-74.99999999999987" stroke-width="1" stroke="black" />
   <line x1="164.5448267190436" y1="-74.99999999999987" x2="155.88457268119924" y2="-69.99999999999986" stroke-width="1" stroke="black" />
   <line x1="155.88457268119924" y1="-69.99999999999986" x2="155.88457268119924" y2="-59.99999999999986" stroke-width="1" stroke="black" />
   <line x1="155.88457268119924" y1="-59.99999999999986" x2="164.54482671904364" y2="-54.999999999999865" stroke-width="1" stroke="black" />
   <line x1="164.54482671904364" y1="-54.999999999999865" x2="173.20508075688804" y2="-59.99999999999987" stroke-width="1" stroke="black" />
   <line x1="173.20508075688804" y1="-59.99999999999987" x2="173.20508075688804" y2="-49.99999999999987" stroke-width="1" stroke="black" />
   <line x1="173.20508075688804" y1="-49.99999999999987" x2="181.86533479473243" y2="-44.99999999999988" stroke-width="1" stroke="black" />
   <line x1="181.86533479473243" y1="-44.99999999999988" x2="173.20508075688807" y2="-39.999999999999865" stroke-width="1" stroke="black" />
   <line x1="173.20508075688807" y1="-39.999999999999865" x2="173.20508075688807" y2="-29.999999999999865" stroke-width="1" stroke="black" />
   <line x1="173.20508075688807" y1="-29.999999999999865" x2="164.54482671904367" y2="-34.99999999999985" stroke-width="1" stroke="black" />
   <line x1="164.54482671904367" y1="-34.99999999999985" x2="155.8845726811993" y2="-29.999999999999837" stroke-width="1" stroke="black" />
   <line x1="155.8845726811993" y1="-29.999999999999837" x2="155.8845726811993" y2="-19.999999999999837" stroke-width="1" stroke="black" />
   <line x1="155.8845726811993" y1="-19.999999999999837" x2="164.5448267190437" y2="-14.999999999999844" stroke-width="1" stroke="black" />
   <line x1="164.5448267190437" y1="-14.999999999999844" x2="155.88457268119933" y2="-9.999999999999831" stroke-width="1" stroke="black" />
   <line x1="155.88457268119933" y1="-9.999999999999831" x2="155.88457268119933" y2="1.687538997430238e-13" stroke-width="1" stroke="black" />
   <line x1="155.88457268119933" y1="1.687538997430238e-13" x2="147.22431864335493" y2="-4.999999999999817" stroke-width="1" stroke="black" />
   <line x1="147.22431864335493" y1="-4.999999999999817" x2="138.56406460551057" y2="1.9539925233402755e-13" stroke-width="1" stroke="black" />
   <line x1="138.56406460551057" y1="1.9539925233402755e-13" x2="138.56406460551054" y2="-9.999999999999805" stroke-width="1" stroke="black" />
   <line x1="138.56406460551054" y1="-9.999999999999805" x2="129.90381056766614" y2="-14.99999999999979" stroke-width="1" stroke="black" />
   <line x1="129.90381056766614" y1="-14.99999999999979" x2="121.24355652982176" y2="-9.999999999999778" stroke-width="1" stroke="black" />
   <line x1="121.24355652982176" y1="-9.999999999999778" x2="121.24355652982177" y2="2.220446049250313e-13" stroke-width="1" stroke="black" />
   <line x1="121.24355652982177" y1="2.220446049250313e-13" x2="112.58330249197738" y2="-4.999999999999764" stroke-width="1" stroke="black" />
   <line x1="112.58330249197738" y1="-4.999999999999764" x2="103.923048454133" y2="2.4868995751603507e-13" stroke-width="1" stroke="black" />
   <line x1="103.923048454133" y1="2.4868995751603507e-13" x2="103.92304845413298" y2="-9.999999999999751" stroke-width="1" stroke="black" />
   <line x1="103.92304845413298" y1="-9.999999999999751" x2="95.26279441628859" y2="-14.999999999999737" stroke-width="1" stroke="black" />
   <line x1="95.26279441628859" y1="-14.999999999999737" x2="103.92304845413295" y2="-19.99999999999976" stroke-width="1" stroke="black" />
   <line x1="103.92304845413295" y1="-19.99999999999976" x2="103.92304845413294" y2="-29.99999999999976" stroke-width="1" stroke="black" />
   <line x1="103.92304845413294" y1="-29.99999999999976" x2="95.26279441628854" y2="-34.999999999999744" stroke-width="1" stroke="black" />
   <line x1="95.26279441628854" y1="-34.999999999999744" x2="86.60254037844416" y2="-29.99999999999973" stroke-width="1" stroke="black" />
   <line x1="86.60254037844416" y1="-29.99999999999973" x2="86.60254037844415" y2="-39.99999999999973" stroke-width="1" stroke="black" />
   <line x1="86.60254037844415" y1="-39.99999999999973" x2="77.94228634059975" y2="-44.999999999999716" stroke-width="1" stroke="black" />
   <line x1="77.94228634059975" y1="-44.999999999999716" x2="69.28203230275537" y2="-39.9999999999997" stroke-width="1" stroke="black" />
   <line x1="69.28203230275537" y1="-39.9999999999997" x2="69.28203230275538" y2="-29.9999999999997" stroke-width="1" stroke="black" />
   <line x1="69.28203230275538" y1="-29.9999999999997" x2="60.621778264910986" y2="-34.99999999999969" stroke-width="1" stroke="black" />
   <line x1="60.621778264910986" y1="-34.99999999999969" x2="51.961524227066604" y2="-29.999999999999673" stroke-width="1" stroke="black" />
   <line x1="51.961524227066604" y1="-29.999999999999673" x2="51.96152422706661" y2="-19.999999999999673" stroke-width="1" stroke="black" />
   <line x1="51.96152422706661" y1="-19.999999999999673" x2="60.621778264911" y2="-14.99999999999968" stroke-width="1" stroke="black" />
   <line x1="60.621778264911" y1="-14.99999999999968" x2="51.96152422706662" y2="-9.999999999999668" stroke-width="1" stroke="black" />
   <line x1="51.96152422706662" y1="-9.999999999999668" x2="51.961524227066626" y2="3.3217872896784684e-13" stroke-width="1" stroke="black" />
   <line x1="51.961524227066626" y1="3.3217872896784684e-13" x2="43.30127018922223" y2="-4.999999999999654" stroke-width="1" stroke="black" />
   <line x1="43.30127018922223" y1="-4.999999999999654" x2="34.641016151377855" y2="3.588240815588506e-13" stroke-width="1" stroke="black" />
   <line x1="34.641016151377855" y1="3.588240815588506e-13" x2="34.64101615137783" y2="-9.999999999999641" stroke-width="1" stroke="black" />
   <line x1="34.64101615137783" y1="-9.999999999999641" x2="25.980762113533437" y2="-14.999999999999627" stroke-width="1" stroke="black" />
   <line x1="25.980762113533437" y1="-14.999999999999627" x2="17.32050807568906" y2="-9.999999999999615" stroke-width="1" stroke="black" />
   <line x1="17.32050807568906" y1="-9.999999999999615" x2="17.32050807568907" y2="3.8546943414985435e-13" stroke-width="1" stroke="black" />
   <line x1="17.32050807568907" y1="3.8546943414985435e-13" x2="8.660254037844675" y2="-4.9999999999996" stroke-width="1" stroke="black" />
   <line x1="8.660254037844675" y1="-4.9999999999996" x2="2.9665159217984183e-13" y2="4.121147867408581e-13" stroke-width="1" stroke="black" />
</svg>