<svg viewBox="-1.7763568394002505e-15 -270.0 85.73651497465947 297.0" xmlns="http://www.w3.org/2000/svg">
   <line x1="0" y1="0" x2="0.0" y2="-10.0" stroke-width="1" stroke="black" />
   <line x1="0.0" y1="-10.0" x2="8.660254037844386" y2="-15.0" stroke-width="1" stroke="black" />
   <line x1="8.660254037844386" y1="-15.0" x2="0.0" y2="-20.0" stroke-width="1" stroke="black" />
   <line x1="0.0" y1="-20.0" x2="0.0" y2="-30.0" stroke-width="1" stroke="black" />
   <line x1="0.0" y1="-30.0" x2="8.660254037844386" y2="-35.0" stroke-width="1" stroke="black" />
   <line x1="8.660254037844386" y1="-35.0" x2="17.32050807568877" y2="-30.0" stroke-width="1" stroke="black" />
   <line x1="17.32050807568877" y1="-30.0" x2="17.32050807568877" y2="-40.0" stroke-width="1" stroke="black" />
   <line x1="17.32050807568877" y1="-40.0" x2="25.980762113533157" y2="-45.0" stroke-width="1" stroke="black" />
   <line x1="25.980762113533157" y1="-45.0" x2="17.32050807568877" y2="-50.0" stroke-width="1" stroke="black" />
   <line x1="17.32050807568877" y1="-50.0" x2="17.32050807568877" y2="-60.0" stroke-width="1" stroke="black" />
   <line x1="17.32050807568877" y1="-60.0" x2="8.660254037844384" y2="-55.0" stroke-width="1" stroke="black" />
   <line x1="8.660254037844384" y1="-55.0" x2="-1.7763568394002505e-15" y2="-60.0" stroke-width="1" stroke="black" />
   <line x1="-1.7763568394002505e-15" y1="-60.0" x2="-1.7763568394002505e-15" y2="-70.0" stroke-width="1" stroke="black" />
   <line x1="-1.7763568394002505e-15" y1="-70.0" x2="8.660254037844384" y2="-75.0" stroke-width="1" stroke="black" />
   <line x1="8.660254037844384" y1="-75.0" x2="-1.7763568394002505e-15" y2="-80.0" stroke-width="1" stroke="black" />
   <line x1="-1.7763568394002505e-15" y1="-80.0" x2="-1.7763568394002505e-15" y2="-90.0" stroke-width="1" stroke="black" />
   <line x1="-1.7763568394002505e-15" y1="-90.0" x2="8.660254037844384" y2="-95.0" stroke-width="1" stroke="black" />
   <line x1="8.660254037844384" y1="-95.0" x2="17.32050807568877" y2="-90.0" stroke-width="1" stroke="black" />
   <line x1="17.32050807568877" y1="-90.0" x2="17.32050807568877" y2="-100.0" stroke-width="1" stroke="black" />
   <line x1="17.32050807568877" y1="-100.0" x2="25.980762113533157" y2="-105.0" stroke-width="1" stroke="black" />
   <line x1="25.980762113533157" y1="-105.0" x2="34.64101615137754" y2="-100.0" stroke-width="1" stroke="black" />
   <line x1="34.64101615137754" y1="-100.0" x2="34.64101615137754" y2="-90.0" stroke-width="1" stroke="black" />
   <line x1="34.64101615137754" y1="-90.0" x2="43.30127018922193" y2="-95.0" stroke-width="1" stroke="black" />
   <line x1="43.30127018922193" y1="-95.0" x2="51.96152422706632" y2="-90.0" stroke-width="1" stroke="black" />
   <line x1="51.96152422706632" y1="-90.0" x2="51.96152422706633" y2="-100.0" stroke-width="1" stroke="black" />
   <line x1="51.96152422706633" y1="-100.0" x2="60.621778264910716" y2="-105.0" stroke-width="1" stroke="black" />
   <line x1="60.621778264910716" y1="-105.0" x2="51.961524227066334" y2="-110.0" stroke-width="1" stroke="black" />
   <line x1="51.961524227066334" y1="-110.0" x2="51.96152422706634" y2="-120.0" stroke-width="1" stroke="black" />
   <line x1="51.96152422706634" y1="-120.0" x2="60.62177826491073" y2="-125.0" stroke-width="1" stroke="black" />
   <line x1="60.62177826491073" y1="-125.0" x2="69.28203230275511" y2="-120.0" stroke-width="1" stroke="black" />
   <line x1="69.28203230275511" y1="-120.0" x2="69.28203230275511" y2="-130.0" stroke-width="1" stroke="black" />
   <line x1="69.28203230275511" y1="-130.0" x2="77.94228634059951" y2="-135.0" stroke-width="1" stroke="black" />
   <line x1="77.94228634059951" y1="-135.0" x2="69.28203230275513" y2="-140.0" stroke-width="1" stroke="black" />
   <line x1="69.28203230275513" y1="-140.0" x2="69.28203230275513" y2="-150.0" stroke-width="1" stroke="black" />
   <line x1="69.28203230275513" y1="-150.0" x2="60.62177826491074" y2="-145.0" stroke-width="1" stroke="black" />
   <line x1="60.62177826491074" y1="-145.0" x2="51.961524227066356" y2="-150.0" stroke-width="1" stroke="black" />
   <line x1="51.961524227066356" y1="-150.0" x2="51.96152422706636" y2="-160.0" stroke-width="1" stroke="black" />
   <line x1="51.96152422706636" y1="-160.0" x2="60.62177826491075" y2="-165.0" stroke-width="1" stroke="black" />
   <line x1="60.62177826491075" y1="-165.0" x2="51.96152422706637" y2="-170.0" stroke-width="1" stroke="black" />
   <line x1="51.96152422706637" y1="-170.0" x2="51.96152422706638" y2="-180.0" stroke-width="1" stroke="black" />
   <line x1="51.96152422706638" y1="-180.0" x2="43.30127018922199" y2="-175.0" stroke-width="1" stroke="black" />
   <line x1="43.30127018922199" y1="-175.0" x2="34.641016151377606" y2="-180.0" stroke-width="1" stroke="black" />
   <line x1="34.641016151377606" y1="-180.0" x2="34.6410161513776" y2="-170.0" stroke-width="1" stroke="black" />
   <line x1="34.6410161513776" y1="-170.0" x2="25.98076211353321" y2="-165.0" stroke-width="1" stroke="black" />
   <line x1="25.98076211353321" y1="-165.0" x2="17.320508075688828" y2="-170.0" stroke-width="1" stroke="black" />
   <line x1="17.320508075688828" y1="-170.0" x2="17.32050807568883" y2="-180.0" stroke-width="1" stroke="black" />
   <line x1="17.32050807568883" y1="-180.0" x2="8.660254037844442" y2="-175.0" stroke-width="1" stroke="black" />
   <line x1="8.660254037844442" y1="-175.0" x2="5.861977570020827e-14" y2="-180.0" stroke-width="1" stroke="black" />
   <line x1="5.861977570020827e-14" y1="-180.0" x2="6.306066779870889e-14" y2="-190.0" stroke-width="1" stroke="black" />
   <line x1="6.306066779870889e-14" y1="-190.0" x2="8.660254037844453" y2="-195.0" stroke-width="1" stroke="black" />
   <line x1="8.660254037844453" y1="-195.0" x2="6.927791673660977e-14" y2="-200.0" stroke-width="1" stroke="black" />
   <line x1="6.927791673660977e-14" y1="-200.0" x2="7.37188088351104e-14" y2="-210.0" stroke-width="1" stroke="black" />
   <line x1="7.37188088351104e-14" y1="-210.0" x2="8.660254037844464" y2="-215.0" stroke-width="1" stroke="black" />
   <line x1="8.660254037844464" y1="-215.0" x2="17.32050807568885" y2="-210.0" stroke-width="1" stroke="black" />
   <line x1="17.32050807568885" y1="-210.0" x2="17.320508075688853" y2="-220.0" stroke-width="1" stroke="black" />
   <line x1="17.320508075688853" y1="-220.0" x2="25.980762113533242" y2="-225.0" stroke-width="1" stroke="black" />
   <line x1="25.980762113533242" y1="-225.0" x2="17.320508075688856" y2="-230.0" stroke-width="1" stroke="black" />
   <line x1="17.320508075688856" y1="-230.0" x2="17.32050807568886" y2="-240.0" stroke-width="1" stroke="black" />
   <line x1="17.32050807568886" y1="-240.0" x2="8.66025403784447" y2="-235.0" stroke-width="1" stroke="black" />
   <line x1="8.66025403784447" y1="-235.0" x2="8.704148513061227e-14" y2="-240.0" stroke-width="1" stroke="black" />
   <line x1="8.704148513061227e-14" y1="-240.0" x2="9.14823772291129e-14" y2="-250.0" stroke-width="1" stroke="black" />
   <line x1="9.14823772291129e-14" y1="-250.0" x2="8.660254037844481" y2="-255.0" stroke-width="1" stroke="black" />
   <line x1="8.660254037844481" y1="-255.0" x2="9.769962616701378e-14" y2="-260.0" stroke-width="1" stroke="black" />
   <line x1="9.769962616701378e-14" y1="-260.0" x2="1.021405182655144e-13" y2="-270.0" stroke-width="1" stroke="black" />
</svg>