<svg viewBox="-277.12812921102045 -320.0 304.8409421321225 352.0000000000001" xmlns="http://www.w3.org/2000/svg">
   <line x1="0" y1="0" x2="0.0" y2="-10.0" stroke-width="1" stroke="black" />
   <line x1="0.0" y1="-10.0" x2="-8.660254037844387" y2="-5.000000000000002" stroke-width="1" stroke="black" />
   <line x1="-8.660254037844387" y1="-5.000000000000002" x2="-8.660254037844387" y2="-15.000000000000002" stroke-width="1" stroke="black" />
   <line x1="-8.660254037844387" y1="-15.000000000000002" x2="0.0" y2="-10.000000000000004" stroke-width="1" stroke="black" />
   <line x1="0.0" y1="-10.000000000000004" x2="0.0" y2="-20.000000000000004" stroke-width="1" stroke="black" />
   <line x1="0.0" y1="-20.000000000000004" x2="-8.660254037844387" y2="-15.000000000000005" stroke-width="1" stroke="black" />
   <line x1="-8.660254037844387" y1="-15.000000000000005" x2="-17.320508075688775" y2="-10.000000000000007" stroke-width="1" stroke="black" />
   <line x1="-17.320508075688775" y1="-10.000000000000007" x2="-17.320508075688775" y2="-20.000000000000007" stroke-width="1" stroke="black" />
   <line x1="-17.320508075688775" y1="-20.000000000000007" x2="-25.98076211353316" y2="-15.000000000000009" stroke-width="1" stroke="black" />
   <line x1="-25.98076211353316" y1="-15.000000000000009" x2="-25.98076211353316" y2="-25.000000000000007" stroke-width="1" stroke="black" />
   <line x1="-25.98076211353316" y1="-25.000000000000007" x2="-17.32050807568877" y2="-20.000000000000007" stroke-width="1" stroke="black" />
   <line x1="-17.32050807568877" y1="-20.000000000000007" x2="-17.32050807568877" y2="-30.000000000000007" stroke-width="1" stroke="black" />
   <line x1="-17.32050807568877" y1="-30.000000000000007" x2="-8.660254037844384" y2="-25.000000000000007" stroke-width="1" stroke="black" />
   <line x1="-8.660254037844384" y1="-25.000000000000007" x2="3.552713678800501e-15" y2="-20.000000000000007" stroke-width="1" stroke="black" />
   <line x1="3.552713678800501e-15" y1="-20.000000000000007" x2="3.552713678800501e-15" y2="-30.000000000000007" stroke-width="1" stroke="black" />
   <line x1="3.552713678800501e-15" y1="-30.000000000000007" x2="-8.660254037844384" y2="-25.000000000000007" stroke-width="1" stroke="black" />
   <line x1="-8.660254037844384" y1="-25.000000000000007" x2="-8.660254037844384" y2="-35.00000000000001" stroke-width="1" stroke="black" />
   <line x1="-8.660254037844384" y1="-35.00000000000001" x2="3.552713678800501e-15" y2="-30.000000000000007" stroke-width="1" stroke="black" />
   <line x1="3.552713678800501e-15" y1="-30.000000000000007" x2="3.552713678800501e-15" y2="-40.00000000000001" stroke-width="1" stroke="black" />
   <line x1="3.552713678800501e-15" y1="-40.00000000000001" x2="-8.660254037844384" y2="-35.00000000000001" stroke-width="1" stroke="black" />
   <line x1="-8.660254037844384" y1="-35.00000000000001" x2="-17.32050807568877" y2="-30.000000000000007" stroke-width="1" stroke="black" />
   <line x1="-17.32050807568877" y1="-30.000000000000007" x2="-25.98076211353316" y2="-25.000000000000007" stroke-width="1" stroke="black" />
   <line x1="-25.98076211353316" y1="-25.000000000000007" x2="-34.64101615137755" y2="-20.000000000000007" stroke-width="1" stroke="black" />
   <line x1="-34.64101615137755" y1="-20.000000000000007" x2="-34.64101615137755" y2="-30.000000000000007" stroke-width="1" stroke="black" />
   <line x1="-34.64101615137755" y1="-30.000000000000007" x2="-43.30127018922194" y2="-25.000000000000007" stroke-width="1" stroke="black" />
   <line x1="-43.30127018922194" y1="-25.000000000000007" x2="-43.30127018922194" y2="-35.00000000000001" stroke-width="1" stroke="black" />
   <line x1="-43.30127018922194" y1="-35.00000000000001" x2="-34.64101615137755" y2="-30.000000000000007" stroke-width="1" stroke="black" />
   <line x1="-34.64101615137755" y1="-30.000000000000007" x2="-34.64101615137755" y2="-40.00000000000001" stroke-width="1" stroke="black" />
   <line x1="-34.64101615137755" y1="-40.00000000000001" x2="-43.30127018922194" y2="-35.00000000000001" stroke-width="1" stroke="black" />
   <line x1="-43.30127018922194" y1="-35.00000000000001" x2="-51.96152422706633" y2="-30.000000000000007" stroke-width="1" stroke="black" />
   <line x1="-51.96152422706633" y1="-30.000000000000007" x2="-51.96152422706633" y2="-40.00000000000001" stroke-width="1" stroke="black" />
   <line x1="-51.96152422706633" y1="-40.00000000000001" x2="-60.621778264910716" y2="-35.00000000000001" stroke-width="1" stroke="black" />
   <line x1="-60.621778264910716" y1="-35.00000000000001" x2="-60.621778264910716" y2="-45.00000000000001" stroke-width="1" stroke="black" />
   <line x1="-60.621778264910716" y1="-45.00000000000001" x2="-51.96152422706633" y2="-40.00000000000001" stroke-width="1" stroke="black" />
   <line x1="-51.96152422706633" y1="-40.00000000000001" x2="-51.96152422706633" y2="-50.00000000000001" stroke-width="1" stroke="black" />
   <line x1="-51.96152422706633" y1="-50.00000000000001" x2="-43.30127018922194" y2="-45.00000000000001" stroke-width="1" stroke="black" />
   <line x1="-43.30127018922194" y1="-45.00000000000001" x2="-34.64101615137755" y2="-40.00000000000001" stroke-width="1" stroke="black" />
   <line x1="-34.64101615137755" y1="-40.00000000000001" x2="-34.64101615137755" y2="-50.00000000000001" stroke-width="1" stroke="black" />
   <line x1="-34.64101615137755" y1="-50.00000000000001" x2="-43.30127018922194" y2="-45.00000000000001" stroke-width="1" stroke="black" />
   <line x1="-43.30127018922194" y1="-45.00000000000001" x2="-43.30127018922194" y2="-55.00000000000001" stroke-width="1" stroke="black" />
   <line x1="-43.30127018922194" y1="-55.00000000000001" x2="-34.64101615137755" y2="-50.00000000000001" stroke-width="1" stroke="black" />
   <line x1="-34.64101615137755" y1="-50.00000000000001" x2="-34.64101615137755" y2="-60.00000000000001" stroke-width="1" stroke="black" />
   <line x1="-34.64101615137755" y1="-60.00000000000001" x2="-25.98076211353316" y2="-55.00000000000001" stroke-width="1" stroke="black" />
   <line x1="-25.98076211353316" y1="-55.00000000000001" x2="-17.32050807568877" y2="-50.00000000000001" stroke-width="1" stroke="black" />
   <line x1="-17.32050807568877" y1="-50.00000000000001" x2="-8.660254037844384" y2="-45.00000000000001" stroke-width="1" stroke="black" />
   <line x1="-8.660254037844384" y1="-45.00000000000001" x2="3.552713678800501e-15" y2="-40.00000000000001" stroke-width="1" stroke="black" />
   <line x1="3.552713678800501e-15" y1="-40.00000000000001" x2="3.552713678800501e-15" y2="-50.00000000000001" stroke-width="1" stroke="black" />
   <line x1="3.552713678800501e-15" y1="-50.00000000000001" x2="-8.660254037844384" y2="-45.00000000000001" stroke-width="1" stroke="black" />
   <line x1="-8.660254037844384" y1="-45.00000000000001" x2="-8.660254037844384" y2="-55.00000000000001" stroke-width="1" stroke="black" />
   <line x1="-8.660254037844384" y1="-55.00000000000001" x2="3.552713678800501e-15" y2="-50.00000000000001" stroke-width="1" stroke="black" />
   <line x1="3.552713678800501e-15" y1="-50.00000000000001" x2="3.552713678800501e-15" y2="-60.00000000000001" stroke-width="1" stroke="black" />
   <line x1="3.552713678800501e-15" y1="-60.00000000000001" x2="-8.660254037844384" y2="-55.00000000000001" stroke-width="1" stroke="black" />
   <line x1="-8.660254037844384" y1="-55.00000000000001" x2="-17.32050807568877" y2="-50.00000000000001" stroke-width="1" stroke="black" />
   <line x1="-17.32050807568877" y1="-50.00000000000001" x2="-17.32050807568877" y2="-60.00000000000001" stroke-width="1" stroke="black" />
   <line x1="-17.32050807568877" y1="-60.00000000000001" x2="-25.98076211353316" y2="-55.00000000000001" stroke-width="1" stroke="black" />
   <line x1="-25.98076211353316" y1="-55.00000000000001" x2="-25.98076211353316" y2="-65.0" stroke-width="1" stroke="black" />
   <line x1="-25.98076211353316" y1="-65.0" x2="-17.32050807568877" y2="-60.0" stroke-width="1" stroke="black" />
   <line x1="-17.32050807568877" y1="-60.0" x2="-17.32050807568877" y2="-70.0" stroke-width="1" stroke="black" />
   <line x1="-17.32050807568877" y1="-70.0" x2="-8.660254037844384" y2="-65.0" stroke-width="1" stroke="black" />
   <line x1="-8.660254037844384" y1="-65.0" x2="3.552713678800501e-15" y2="-60.0" stroke-width="1" stroke="black" />
   <line x1="3.552713678800501e-15" y1="-60.0" x2="3.552713678800501e-15" y2="-70.0" stroke-width="1" stroke="black" />
   <line x1="3.552713678800501e-15" y1="-70.0" x2="-8.660254037844384" y2="-65.0" stroke-width="1" stroke="black" />
   <line x1="-8.660254037844384" y1="-65.0" x2="-8.660254037844384" y2="-75.0" stroke-width="1" stroke="black" />
   <line x1="-8.660254037844384" y1="-75.0" x2="3.552713678800501e-15" y2="-70.0" stroke-width="1" stroke="black" />
   <line x1="3.552713678800501e-15" y1="-70.0" x2="3.552713678800501e-15" y2="-80.0" stroke-width="1" stroke="black" />
   <line x1="3.552713678800501e-15" y1="-80.0" x2="-8.660254037844384" y2="-75.0" stroke-width="1" stroke="black" />
   <line x1="-8.660254037844384" y1="-75.0" x2="-17.32050807568877" y2="-70.0" stroke-width="1" stroke="black" />
   <line x1="-17.32050807568877" y1="-70.0" x2="-25.98076211353316" y2="-65.0" stroke-width="1" stroke="black" />
   <line x1="-25.98076211353316" y1="-65.0" x2="-34.64101615137755" y2="-60.0" stroke-width="1" stroke="black" />
   <line x1="-34.64101615137755" y1="-60.0" x2="-43.30127018922194" y2="-55.0" stroke-width="1" stroke="black" />
   <line x1="-43.30127018922194" y1="-55.0" x2="-51.96152422706633" y2="-50.0" stroke-width="1" stroke="black" />
   <line x1="-51.96152422706633" y1="-50.0" x2="-60.621778264910716" y2="-45.0" stroke-width="1" stroke="black" />
   <line x1="-60.621778264910716" y1="-45.0" x2="-69.2820323027551" y2="-40.0" stroke-width="1" stroke="black" />
   <line x1="-69.2820323027551" y1="-40.0" x2="-69.2820323027551" y2="-50.0" stroke-width="1" stroke="black" />
   <line x1="-69.2820323027551" y1="-50.0" x2="-77.94228634059948" y2="-45.0" stroke-width="1" stroke="black" />
   <line x1="-77.94228634059948" y1="-45.0" x2="-77.94228634059948" y2="-55.0" stroke-width="1" stroke="black" />
   <line x1="-77.94228634059948" y1="-55.0" x2="-69.2820323027551" y2="-50.0" stroke-width="1" stroke="black" />
   <line x1="-69.2820323027551" y1="-50.0" x2="-69.2820323027551" y2="-60.0" stroke-width="1" stroke="black" />
   <line x1="-69.2820323027551" y1="-60.0" x2="-77.94228634059948" y2="-55.0" stroke-width="1" stroke="black" />
   <line x1="-77.94228634059948" y1="-55.0" x2="-86.60254037844386" y2="-50.0" stroke-width="1" stroke="black" />
   <line x1="-86.60254037844386" y1="-50.0" x2="-86.60254037844386" y2="-60.0" stroke-width="1" stroke="black" />
   <line x1="-86.60254037844386" y1="-60.0" x2="-95.26279441628824" y2="-55.0" stroke-width="1" stroke="black" />
   <line x1="-95.26279441628824" y1="-55.0" x2="-95.26279441628824" y2="-65.0" stroke-width="1" stroke="black" />
   <line x1="-95.26279441628824" y1="-65.0" x2="-86.60254037844386" y2="-60.0" stroke-width="1" stroke="black" />
   <line x1="-86.60254037844386" y1="-60.0" x2="-86.60254037844386" y2="-70.0" stroke-width="1" stroke="black" />
   <line x1="-86.60254037844386" y1="-70.0" x2="-77.94228634059948" y2="-65.0" stroke-width="1" stroke="black" />
   <line x1="-77.94228634059948" y1="-65.0" x2="-69.2820323027551" y2="-60.0" stroke-width="1" stroke="black" />
   <line x1="-69.2820323027551" y1="-60.0" x2="-69.2820323027551" y2="-70.0" stroke-width="1" stroke="black" />
   <line x1="-69.2820323027551" y1="-70.0" x2="-77.94228634059948" y2="-65.0" stroke-width="1" stroke="black" />
   <line x1="-77.94228634059948" y1="-65.0" x2="-77.94228634059948" y2="-75.0" stroke-width="1" stroke="black" />
   <line x1="-77.94228634059948" y1="-75.0" x2="-69.2820323027551" y2="-70.0" stroke-width="1" stroke="black" />
   <line x1="-69.2820323027551" y1="-70.0" x2="-69.2820323027551" y2="-80.0" stroke-width="1" stroke="black" />
   <line x1="-69.2820323027551" y1="-80.0" x2="-77.94228634059948" y2="-75.0" stroke-width="1" stroke="black" />
   <line x1="-77.94228634059948" y1="-75.0" x2="-86.60254037844386" y2="-70.0" stroke-width="1" stroke="black" />
   <line x1="-86.60254037844386" y1="-70.0" x2="-95.26279441628824" y2="-65.0" stroke-width="1" stroke="black" />
   <line x1="-95.26279441628824" y1="-65.0" x2="-103.92304845413263" y2="-60.0" stroke-width="1" stroke="black" />
   <line x1="-103.92304845413263" y1="-60.0" x2="-103.92304845413263" y2="-70.0" stroke-width="1" stroke="black" />
   <line x1="-103.92304845413263" y1="-70.0" x2="-112.58330249197701" y2="-65.0" stroke-width="1" stroke="black" />
   <line x1="-112.58330249197701" y1="-65.0" x2="-112.58330249197701" y2="-75.0" stroke-width="1" stroke="black" />
   <line x1="-112.58330249197701" y1="-75.0" x2="-103.92304845413263" y2="-70.0" stroke-width="1" stroke="black" />
   <line x1="-103.92304845413263" y1="-70.0" x2="-103.92304845413263" y2="-80.0" stroke-width="1" stroke="black" />
   <line x1="-103.92304845413263" y1="-80.0" x2="-112.58330249197701" y2="-75.0" stroke-width="1" stroke="black" />
   <line x1="-112.58330249197701" y1="-75.0" x2="-121.24355652982139" y2="-70.0" stroke-width="1" stroke="black" />
   <line x1="-121.24355652982139" y1="-70.0" x2="-121.24355652982139" y2="-80.0" stroke-width="1" stroke="black" />
   <line x1="-121.24355652982139" y1="-80.0" x2="-129.90381056766577" y2="-75.0" stroke-width="1" stroke="black" />
   <line x1="-129.90381056766577" y1="-75.0" x2="-129.90381056766577" y2="-85.0" stroke-width="1" stroke="black" />
   <line x1="-129.90381056766577" y1="-85.0" x2="-121.24355652982139" y2="-80.0" stroke-width="1" stroke="black" />
   <line x1="-121.24355652982139" y1="-80.0" x2="-121.24355652982139" y2="-90.0" stroke-width="1" stroke="black" />
   <line x1="-121.24355652982139" y1="-90.0" x2="-112.58330249197701" y2="-85.0" stroke-width="1" stroke="black" />
   <line x1="-112.58330249197701" y1="-85.0" x2="-103.92304845413263" y2="-80.0" stroke-width="1" stroke="black" />
   <line x1="-103.92304845413263" y1="-80.0" x2="-103.92304845413263" y2="-90.0" stroke-width="1" stroke="black" />
   <line x1="-103.92304845413263" y1="-90.0" x2="-112.58330249197701" y2="-85.0" stroke-width="1" stroke="black" />
   <line x1="-112.58330249197701" y1="-85.0" x2="-112.58330249197701" y2="-95.0" stroke-width="1" stroke="black" />
   <line x1="-112.58330249197701" y1="-95.0" x2="-103.92304845413263" y2="-90.0" stroke-width="1" stroke="black" />
   <line x1="-103.92304845413263" y1="-90.0" x2="-103.92304845413263" y2="-100.0" stroke-width="1" stroke="black" />
   <line x1="-103.92304845413263" y1="-100.0" x2="-95.26279441628824" y2="-95.0" stroke-width="1" stroke="black" />
   <line x1="-95.26279441628824" y1="-95.0" x2="-86.60254037844386" y2="-90.0" stroke-width="1" stroke="black" />
   <line x1="-86.60254037844386" y1="-90.0" x2="-77.94228634059948" y2="-85.0" stroke-width="1" stroke="black" />
   <line x1="-77.94228634059948" y1="-85.0" x2="-69.2820323027551" y2="-80.0" stroke-width="1" stroke="black" />
   <line x1="-69.2820323027551" y1="-80.0" x2="-69.2820323027551" y2="-90.0" stroke-width="1" stroke="black" />
   <line x1="-69.2820323027551" y1="-90.0" x2="-77.94228634059948" y2="-85.0" stroke-width="1" stroke="black" />
   <line x1="-77.94228634059948" y1="-85.0" x2="-77.94228634059948" y2="-95.0" stroke-width="1" stroke="black" />
   <line x1="-77.94228634059948" y1="-95.0" x2="-69.2820323027551" y2="-90.0" stroke-width="1" stroke="black" />
   <line x1="-69.2820323027551" y1="-90.0" x2="-69.2820323027551" y2="-100.0" stroke-width="1" stroke="black" />
   <line x1="-69.2820323027551" y1="-100.0" x2="-77.94228634059948" y2="-95.0" stroke-width="1" stroke="black" />
   <line x1="-77.94228634059948" y1="-95.0" x2="-86.60254037844386" y2="-90.0" stroke-width="1" stroke="black" />
   <line x1="-86.60254037844386" y1="-90.0" x2="-86.60254037844386" y2="-100.0" stroke-width="1" stroke="black" />
   <line x1="-86.60254037844386" y1="-100.0" x2="-95.26279441628824" y2="-95.0" stroke-width="1" stroke="black" />
   <line x1="-95.26279441628824" y1="-95.0" x2="-95.26279441628824" y2="-105.0" stroke-width="1" stroke="black" />
   <line x1="-95.26279441628824" y1="-105.0" x2="-86.60254037844386" y2="-100.0" stroke-width="1" stroke="black" />
   <line x1="-86.60254037844386" y1="-100.0" x2="-86.60254037844386" y2="-110.0" stroke-width="1" stroke="black" />
   <line x1="-86.60254037844386" y1="-110.0" x2="-77.94228634059948" y2="-105.0" stroke-width="1" stroke="black" />
   <line x1="-77.94228634059948" y1="-105.0" x2="-69.2820323027551" y2="-100.0" stroke-width="1" stroke="black" />
   <line x1="-69.2820323027551" y1="-100.0" x2="-69.2820323027551" y2="-110.0" stroke-width="1" stroke="black" />
   <line x1="-69.2820323027551" y1="-110.0" x2="-77.94228634059948" y2="-105.0" stroke-width="1" stroke="black" />
   <line x1="-77.94228634059948" y1="-105.0" x2="-77.94228634059948" y2="-115.0" stroke-width="1" stroke="black" />
   <line x1="-77.94228634059948" y1="-115.0" x2="-69.2820323027551" y2="-110.0" stroke-width="1" stroke="black" />
   <line x1="-69.2820323027551" y1="-110.0" x2="-69.2820323027551" y2="-120.0" stroke-width="1" stroke="black" />
   <line x1="-69.2820323027551" y1="-120.0" x2="-60.62177826491071" y2="-115.0" stroke-width="1" stroke="black" />
   <line x1="-60.62177826491071" y1="-115.0" x2="-51.96152422706632" y2="-110.0" stroke-width="1" stroke="black" />
   <line x1="-51.96152422706632" y1="-110.0" x2="-43.30127018922193" y2="-105.0" stroke-width="1" stroke="black" />
   <line x1="-43.30127018922193" y1="-105.0" x2="-34.64101615137754" y2="-100.0" stroke-width="1" stroke="black" />
   <line x1="-34.64101615137754" y1="-100.0" x2="-25.980762113533153" y2="-95.0" stroke-width="1" stroke="black" />
   <line x1="-25.980762113533153" y1="-95.0" x2="-17.320508075688764" y2="-90.0" stroke-width="1" stroke="black" />
   <line x1="-17.320508075688764" y1="-90.0" x2="-8.660254037844377" y2="-85.0" stroke-width="1" stroke="black" />
   <line x1="-8.660254037844377" y1="-85.0" x2="1.0658141036401503e-14" y2="-80.0" stroke-width="1" stroke="black" />
   <line x1="1.0658141036401503e-14" y1="-80.0" x2="1.0658141036401503e-14" y2="-90.0" stroke-width="1" stroke="black" />
   <line x1="1.0658141036401503e-14" y1="-90.0" x2="-8.660254037844377" y2="-85.0" stroke-width="1" stroke="black" />
   <line x1="-8.660254037844377" y1="-85.0" x2="-8.660254037844377" y2="-95.0" stroke-width="1" stroke="black" />
   <line x1="-8.660254037844377" y1="-95.0" x2="1.0658141036401503e-14" y2="-90.0" stroke-width="1" stroke="black" />
   <line x1="1.0658141036401503e-14" y1="-90.0" x2="1.0658141036401503e-14" y2="-100.0" stroke-width="1" stroke="black" />
   <line x1="1.0658141036401503e-14" y1="-100.0" x2="-8.660254037844377" y2="-95.0" stroke-width="1" stroke="black" />
   <line x1="-8.660254037844377" y1="-95.0" x2="-17.320508075688764" y2="-90.0" stroke-width="1" stroke="black" />
   <line x1="-17.320508075688764" y1="-90.0" x2="-17.320508075688764" y2="-100.0" stroke-width="1" stroke="black" />
   <line x1="-17.320508075688764" y1="-100.0" x2="-25.980762113533153" y2="-95.0" stroke-width="1" stroke="black" />
   <line x1="-25.980762113533153" y1="-95.0" x2="-25.980762113533153" y2="-105.0" stroke-width="1" stroke="black" />
   <line x1="-25.980762113533153" y1="-105.0" x2="-17.320508075688764" y2="-100.0" stroke-width="1" stroke="black" />
   <line x1="-17.320508075688764" y1="-100.0" x2="-17.320508075688764" y2="-110.0" stroke-width="1" stroke="black" />
   <line x1="-17.320508075688764" y1="-110.0" x2="-8.660254037844377" y2="-105.0" stroke-width="1" stroke="black" />
   <line x1="-8.660254037844377" y1="-105.0" x2="1.0658141036401503e-14" y2="-100.0" stroke-width="1" stroke="black" />
   <line x1="1.0658141036401503e-14" y1="-100.0" x2="1.0658141036401503e-14" y2="-110.0" stroke-width="1" stroke="black" />
   <line x1="1.0658141036401503e-14" y1="-110.0" x2="-8.660254037844377" y2="-105.0" stroke-width="1" stroke="black" />
   <line x1="-8.660254037844377" y1="-105.0" x2="-8.660254037844377" y2="-115.0" stroke-width="1" stroke="black" />
   <line x1="-8.660254037844377" y1="-115.0" x2="1.0658141036401503e-14" y2="-110.0" stroke-width="1" stroke="black" />
   <line x1="1.0658141036401503e-14" y1="-110.0" x2="1.0658141036401503e-14" y2="-120.0" stroke-width="1" stroke="black" />
   <line x1="1.0658141036401503e-14" y1="-120.0" x2="-8.660254037844377" y2="-115.0" stroke-width="1" stroke="black" />
   <line x1="-8.660254037844377" y1="-115.0" x2="-17.320508075688764" y2="-110.0" stroke-width="1" stroke="black" />
   <line x1="-17.320508075688764" y1="-110.0" x2="-25.980762113533153" y2="-105.0" stroke-width="1" stroke="black" />
   <line x1="-25.980762113533153" y1="-105.0" x2="-34.64101615137754" y2="-100.0" stroke-width="1" stroke="black" />
   <line x1="-34.64101615137754" y1="-100.0" x2="-34.64101615137754" y2="-110.0" stroke-width="1" stroke="black" />
   <line x1="-34.64101615137754" y1="-110.0" x2="-43.30127018922193" y2="-105.0" stroke-width="1" stroke="black" />
   <line x1="-43.30127018922193" y1="-105.0" x2="-43.30127018922193" y2="-115.0" stroke-width="1" stroke="black" />
   <line x1="-43.30127018922193" y1="-115.0" x2="-34.64101615137754" y2="-110.0" stroke-width="1" stroke="black" />
   <line x1="-34.64101615137754" y1="-110.0" x2="-34.64101615137754" y2="-120.0" stroke-width="1" stroke="black" />
   <line x1="-34.64101615137754" y1="-120.0" x2="-43.30127018922193" y2="-115.0" stroke-width="1" stroke="black" />
   <line x1="-43.30127018922193" y1="-115.0" x2="-51.96152422706632" y2="-110.0" stroke-width="1" stroke="black" />
   <line x1="-51.96152422706632" y1="-110.0" x2="-51.96152422706632" y2="-120.0" stroke-width="1" stroke="black" />
   <line x1="-51.96152422706632" y1="-120.0" x2="-60.62177826491071" y2="-115.0" stroke-width="1" stroke="black" />
   <line x1="-60.62177826491071" y1="-115.0" x2="-60.62177826491071" y2="-125.0" stroke-width="1" stroke="black" />
   <line x1="-60.62177826491071" y1="-125.0" x2="-51.96152422706632" y2="-120.0" stroke-width="1" stroke="black" />
   <line x1="-51.96152422706632" y1="-120.0" x2="-51.96152422706632" y2="-130.0" stroke-width="1" stroke="black" />
   <line x1="-51.96152422706632" y1="-130.0" x2="-43.30127018922193" y2="-125.0" stroke-width="1" stroke="black" />
   <line x1="-43.30127018922193" y1="-125.0" x2="-34.64101615137754" y2="-120.0" stroke-width="1" stroke="black" />
   <line x1="-34.64101615137754" y1="-120.0" x2="-34.64101615137754" y2="-130.0" stroke-width="1" stroke="black" />
   <line x1="-34.64101615137754" y1="-130.0" x2="-43.30127018922193" y2="-125.0" stroke-width="1" stroke="black" />
   <line x1="-43.30127018922193" y1="-125.0" x2="-43.30127018922193" y2="-135.0" stroke-width="1" stroke="black" />
   <line x1="-43.30127018922193" y1="-135.0" x2="-34.64101615137754" y2="-130.0" stroke-width="1" stroke="black" />
   <line x1="-34.64101615137754" y1="-130.0" x2="-34.64101615137754" y2="-140.0" stroke-width="1" stroke="black" />
   <line x1="-34.64101615137754" y1="-140.0" x2="-25.980762113533153" y2="-135.0" stroke-width="1" stroke="black" />
   <line x1="-25.980762113533153" y1="-135.0" x2="-17.320508075688764" y2="-130.0" stroke-width="1" stroke="black" />
   <line x1="-17.320508075688764" y1="-130.0" x2="-8.660254037844377" y2="-125.0" stroke-width="1" stroke="black" />
   <line x1="-8.660254037844377" y1="-125.0" x2="1.0658141036401503e-14" y2="-120.0" stroke-width="1" stroke="black" />
   <line x1="1.0658141036401503e-14" y1="-120.0" x2="1.0658141036401503e-14" y2="-130.0" stroke-width="1" stroke="black" />
   <line x1="1.0658141036401503e-14" y1="-130.0" x2="-8.660254037844377" y2="-125.0" stroke-width="1" stroke="black" />
   <line x1="-8.660254037844377" y1="-125.0" x2="-8.660254037844377" y2="-135.0" stroke-width="1" stroke="black" />
   <line x1="-8.660254037844377" y1="-135.0" x2="1.0658141036401503e-14" y2="-130.0" stroke-width="1" stroke="black" />
   <line x1="1.0658141036401503e-14" y1="-130.0" x2="1.0658141036401503e-14" y2="-140.0" stroke-width="1" stroke="black" />
   <line x1="1.0658141036401503e-14" y1="-140.0" x2="-8.660254037844377" y2="-135.0" stroke-width="1" stroke="black" />
   <line x1="-8.660254037844377" y1="-135.0" x2="-17.320508075688764" y2="-130.0" stroke-width="1" stroke="black" />
   <line x1="-17.320508075688764" y1="-130.0" x2="-17.320508075688764" y2="-140.0" stroke-width="1" stroke="black" />
   <line x1="-17.320508075688764" y1="-140.0" x2="-25.980762113533153" y2="-135.0" stroke-width="1" stroke="black" />
   <line x1="-25.980762113533153" y1="-135.0" x2="-25.980762113533153" y2="-145.0" stroke-width="1" stroke="black" />
   <line x1="-25.980762113533153" y1="-145.0" x2="-17.320508075688764" y2="-140.0" stroke-width="1" stroke="black" />
   <line x1="-17.320508075688764" y1="-140.0" x2="-17.320508075688764" y2="-150.0" stroke-width="1" stroke="black" />
   <line x1="-17.320508075688764" y1="-150.0" x2="-8.660254037844377" y2="-145.0" stroke-width="1" stroke="black" />
   <line x1="-8.660254037844377" y1="-145.0" x2="1.0658141036401503e-14" y2="-140.0" stroke-width="1" stroke="black" />
   <line x1="1.0658141036401503e-14" y1="-140.0" x2="1.0658141036401503e-14" y2="-150.0" stroke-width="1" stroke="black" />
   <line x1="1.0658141036401503e-14" y1="-150.0" x2="-8.660254037844377" y2="-145.0" stroke-width="1" stroke="black" />
   <line x1="-8.660254037844377" y1="-145.0" x2="-8.660254037844377" y2="-155.0" stroke-width="1" stroke="black" />
   <line x1="-8.660254037844377" y1="-155.0" x2="1.0658141036401503e-14" y2="-150.0" stroke-width="1" stroke="black" />
   <line x1="1.0658141036401503e-14" y1="-150.0" x2="1.0658141036401503e-14" y2="-160.0" stroke-width="1" stroke="black" />
   <line x1="1.0658141036401503e-14" y1="-160.0" x2="-8.660254037844377" y2="-155.0" stroke-width="1" stroke="black" />
   <line x1="-8.660254037844377" y1="-155.0" x2="-17.320508075688764" y2="-150.0" stroke-width="1" stroke="black" />
   <line x1="-17.320508075688764" y1="-150.0" x2="-25.980762113533153" y2="-145.0" stroke-width="1" stroke="black" />
   <line x1="-25.980762113533153" y1="-145.0" x2="-34.64101615137754" y2="-140.0" stroke-width="1" stroke="black" />
   <line x1="-34.64101615137754" y1="-140.0" x2="-43.30127018922193" y2="-135.0" stroke-width="1" stroke="black" />
   <line x1="-43.30127018922193" y1="-135.0" x2="-51.96152422706632" y2="-130.0" stroke-width="1" stroke="black" />
   <line x1="-51.96152422706632" y1="-130.0" x2="-60.62177826491071" y2="-125.0" stroke-width="1" stroke="black" />
   <line x1="-60.62177826491071" y1="-125.0" x2="-69.2820323027551" y2="-120.0" stroke-width="1" stroke="black" />
   <line x1="-69.2820323027551" y1="-120.0" x2="-77.94228634059948" y2="-115.0" stroke-width="1" stroke="black" />
   <line x1="-77.94228634059948" y1="-115.0" x2="-86.60254037844386" y2="-110.0" stroke-width="1" stroke="black" />
   <line x1="-86.60254037844386" y1="-110.0" x2="-95.26279441628824" y2="-105.0" stroke-width="1" stroke="black" />
   <line x1="-95.26279441628824" y1="-105.0" x2="-103.92304845413263" y2="-100.0" stroke-width="1" stroke="black" />
   <line x1="-103.92304845413263" y1="-100.0" x2="-112.58330249197701" y2="-95.0" stroke-width="1" stroke="black" />
   <line x1="-112.58330249197701" y1="-95.0" x2="-121.24355652982139" y2="-90.0" stroke-width="1" stroke="black" />
   <line x1="-121.24355652982139" y1="-90.0" x2="-129.90381056766577" y2="-85.0" stroke-width="1" stroke="black" />
   <line x1="-129.90381056766577" y1="-85.0" x2="-138.56406460551017" y2="-80.0" stroke-width="1" stroke="black" />
   <line x1="-138.56406460551017" y1="-80.0" x2="-138.56406460551017" y2="-90.0" stroke-width="1" stroke="black" />
   <line x1="-138.56406460551017" y1="-90.0" x2="-147.22431864335456" y2="-85.0" stroke-width="1" stroke="black" />
   <line x1="-147.22431864335456" y1="-85.0" x2="-147.22431864335456" y2="-95.0" stroke-width="1" stroke="black" />
   <line x1="-147.22431864335456" y1="-95.0" x2="-138.56406460551017" y2="-90.0" stroke-width="1" stroke="black" />
   <line x1="-138.56406460551017" y1="-90.0" x2="-138.56406460551017" y2="-100.0" stroke-width="1" stroke="black" />
   <line x1="-138.56406460551017" y1="-100.0" x2="-147.22431864335456" y2="-95.0" stroke-width="1" stroke="black" />
   <line x1="-147.22431864335456" y1="-95.0" x2="-155.88457268119896" y2="-90.0" stroke-width="1" stroke="black" />
   <line x1="-155.88457268119896" y1="-90.0" x2="-155.88457268119896" y2="-100.0" stroke-width="1" stroke="black" />
   <line x1="-155.88457268119896" y1="-100.0" x2="-164.54482671904336" y2="-95.0" stroke-width="1" stroke="black" />
   <line x1="-164.54482671904336" y1="-95.0" x2="-164.54482671904336" y2="-105.0" stroke-width="1" stroke="black" />
   <line x1="-164.54482671904336" y1="-105.0" x2="-155.88457268119896" y2="-100.0" stroke-width="1" stroke="black" />
   <line x1="-155.88457268119896" y1="-100.0" x2="-155.88457268119896" y2="-110.0" stroke-width="1" stroke="black" />
   <line x1="-155.88457268119896" y1="-110.0" x2="-147.22431864335456" y2="-105.0" stroke-width="1" stroke="black" />
   <line x1="-147.22431864335456" y1="-105.0" x2="-138.56406460551017" y2="-100.0" stroke-width="1" stroke="black" />
   <line x1="-138.56406460551017" y1="-100.0" x2="-138.56406460551017" y2="-110.0" stroke-width="1" stroke="black" />
   <line x1="-138.56406460551017" y1="-110.0" x2="-147.22431864335456" y2="-105.0" stroke-width="1" stroke="black" />
   <line x1="-147.22431864335456" y1="-105.0" x2="-147.22431864335456" y2="-115.0" stroke-width="1" stroke="black" />
   <line x1="-147.22431864335456" y1="-115.0" x2="-138.56406460551017" y2="-110.0" stroke-width="1" stroke="black" />
   <line x1="-138.56406460551017" y1="-110.0" x2="-138.56406460551017" y2="-120.0" stroke-width="1" stroke="black" />
   <line x1="-138.56406460551017" y1="-120.0" x2="-147.22431864335456" y2="-115.0" stroke-width="1" stroke="black" />
   <line x1="-147.22431864335456" y1="-115.0" x2="-155.88457268119896" y2="-110.0" stroke-width="1" stroke="black" />
   <line x1="-155.88457268119896" y1="-110.0" x2="-164.54482671904336" y2="-105.0" stroke-width="1" stroke="black" />
   <line x1="-164.54482671904336" y1="-105.0" x2="-173.20508075688775" y2="-100.0" stroke-width="1" stroke="black" />
   <line x1="-173.20508075688775" y1="-100.0" x2="-173.20508075688775" y2="-110.0" stroke-width="1" stroke="black" />
   <line x1="-173.20508075688775" y1="-110.0" x2="-181.86533479473215" y2="-105.0" stroke-width="1" stroke="black" />
   <line x1="-181.86533479473215" y1="-105.0" x2="-181.86533479473215" y2="-115.0" stroke-width="1" stroke="black" />
   <line x1="-181.86533479473215" y1="-115.0" x2="-173.20508075688775" y2="-110.0" stroke-width="1" stroke="black" />
   <line x1="-173.20508075688775" y1="-110.0" x2="-173.20508075688775" y2="-120.0" stroke-width="1" stroke="black" />
   <line x1="-173.20508075688775" y1="-120.0" x2="-181.86533479473215" y2="-115.0" stroke-width="1" stroke="black" />
   <line x1="-181.86533479473215" y1="-115.0" x2="-190.52558883257655" y2="-110.0" stroke-width="1" stroke="black" />
   <line x1="-190.52558883257655" y1="-110.0" x2="-190.52558883257655" y2="-120.0" stroke-width="1" stroke="black" />
   <line x1="-190.52558883257655" y1="-120.0" x2="-199.18584287042094" y2="-115.0" stroke-width="1" stroke="black" />
   <line x1="-199.18584287042094" y1="-115.0" x2="-199.18584287042094" y2="-125.0" stroke-width="1" stroke="black" />
   <line x1="-199.18584287042094" y1="-125.0" x2="-190.52558883257655" y2="-120.0" stroke-width="1" stroke="black" />
   <line x1="-190.52558883257655" y1="-120.0" x2="-190.52558883257655" y2="-130.0" stroke-width="1" stroke="black" />
   <line x1="-190.52558883257655" y1="-130.0" x2="-181.86533479473215" y2="-125.0" stroke-width="1" stroke="black" />
   <line x1="-181.86533479473215" y1="-125.0" x2="-173.20508075688775" y2="-120.0" stroke-width="1" stroke="black" />
   <line x1="-173.20508075688775" y1="-120.0" x2="-173.20508075688775" y2="-130.0" stroke-width="1" stroke="black" />
   <line x1="-173.20508075688775" y1="-130.0" x2="-181.86533479473215" y2="-125.0" stroke-width="1" stroke="black" />
   <line x1="-181.86533479473215" y1="-125.0" x2="-181.86533479473215" y2="-135.0" stroke-width="1" stroke="black" />
   <line x1="-181.86533479473215" y1="-135.0" x2="-173.20508075688775" y2="-130.0" stroke-width="1" stroke="black" />
   <line x1="-173.20508075688775" y1="-130.0" x2="-173.20508075688775" y2="-140.0" stroke-width="1" stroke="black" />
   <line x1="-173.20508075688775" y1="-140.0" x2="-164.54482671904336" y2="-135.0" stroke-width="1" stroke="black" />
   <line x1="-164.54482671904336" y1="-135.0" x2="-155.88457268119896" y2="-130.0" stroke-width="1" stroke="black" />
   <line x1="-155.88457268119896" y1="-130.0" x2="-147.22431864335456" y2="-125.0" stroke-width="1" stroke="black" />
   <line x1="-147.22431864335456" y1="-125.0" x2="-138.56406460551017" y2="-120.0" stroke-width="1" stroke="black" />
   <line x1="-138.56406460551017" y1="-120.0" x2="-138.56406460551017" y2="-130.0" stroke-width="1" stroke="black" />
   <line x1="-138.56406460551017" y1="-130.0" x2="-147.22431864335456" y2="-125.0" stroke-width="1" stroke="black" />
   <line x1="-147.22431864335456" y1="-125.0" x2="-147.22431864335456" y2="-135.0" stroke-width="1" stroke="black" />
   <line x1="-147.22431864335456" y1="-135.0" x2="-138.56406460551017" y2="-130.0" stroke-width="1" stroke="black" />
   <line x1="-138.56406460551017" y1="-130.0" x2="-138.56406460551017" y2="-140.0" stroke-width="1" stroke="black" />
   <line x1="-138.56406460551017" y1="-140.0" x2="-147.22431864335456" y2="-135.0" stroke-width="1" stroke="black" />
   <line x1="-147.22431864335456" y1="-135.0" x2="-155.88457268119896" y2="-130.0" stroke-width="1" stroke="black" />
   <line x1="-155.88457268119896" y1="-130.0" x2="-155.88457268119896" y2="-140.0" stroke-width="1" stroke="black" />
   <line x1="-155.88457268119896" y1="-140.0" x2="-164.54482671904336" y2="-135.0" stroke-width="1" stroke="black" />
   <line x1="-164.54482671904336" y1="-135.0" x2="-164.54482671904336" y2="-145.0" stroke-width="1" stroke="black" />
   <line x1="-164.54482671904336" y1="-145.0" x2="-155.88457268119896" y2="-140.0" stroke-width="1" stroke="black" />
   <line x1="-155.88457268119896" y1="-140.0" x2="-155.88457268119896" y2="-150.0" stroke-width="1" stroke="black" />
   <line x1="-155.88457268119896" y1="-150.0" x2="-147.22431864335456" y2="-145.0" stroke-width="1" stroke="black" />
   <line x1="-147.22431864335456" y1="-145.0" x2="-138.56406460551017" y2="-140.0" stroke-width="1" stroke="black" />
   <line x1="-138.56406460551017" y1="-140.0" x2="-138.56406460551017" y2="-150.0" stroke-width="1" stroke="black" />
   <line x1="-138.56406460551017" y1="-150.0" x2="-147.22431864335456" y2="-145.0" stroke-width="1" stroke="black" />
   <line x1="-147.22431864335456" y1="-145.0" x2="-147.22431864335456" y2="-155.0" stroke-width="1" stroke="black" />
   <line x1="-147.22431864335456" y1="-155.0" x2="-138.56406460551017" y2="-150.0" stroke-width="1" stroke="black" />
   <line x1="-138.56406460551017" y1="-150.0" x2="-138.56406460551017" y2="-160.0" stroke-width="1" stroke="black" />
   <line x1="-138.56406460551017" y1="-160.0" x2="-147.22431864335456" y2="-155.0" stroke-width="1" stroke="black" />
   <line x1="-147.22431864335456" y1="-155.0" x2="-155.88457268119896" y2="-150.0" stroke-width="1" stroke="black" />
   <line x1="-155.88457268119896" y1="-150.0" x2="-164.54482671904336" y2="-145.0" stroke-width="1" stroke="black" />
   <line x1="-164.54482671904336" y1="-145.0" x2="-173.20508075688775" y2="-140.0" stroke-width="1" stroke="black" />
   <line x1="-173.20508075688775" y1="-140.0" x2="-181.86533479473215" y2="-135.0" stroke-width="1" stroke="black" />
   <line x1="-181.86533479473215" y1="-135.0" x2="-190.52558883257655" y2="-130.0" stroke-width="1" stroke="black" />
   <line x1="-190.52558883257655" y1="-130.0" x2="-199.18584287042094" y2="-125.0" stroke-width="1" stroke="black" />
   <line x1="-199.18584287042094" y1="-125.0" x2="-207.84609690826534" y2="-120.0" stroke-width="1" stroke="black" />
   <line x1="-207.84609690826534" y1="-120.0" x2="-207.84609690826534" y2="-130.0" stroke-width="1" stroke="black" />
   <line x1="-207.84609690826534" y1="-130.0" x2="-216.50635094610973" y2="-125.0" stroke-width="1" stroke="black" />
   <line x1="-216.50635094610973" y1="-125.0" x2="-216.50635094610973" y2="-135.0" stroke-width="1" stroke="black" />
   <line x1="-216.50635094610973" y1="-135.0" x2="-207.84609690826534" y2="-130.0" stroke-width="1" stroke="black" />
   <line x1="-207.84609690826534" y1="-130.0" x2="-207.84609690826534" y2="-140.0" stroke-width="1" stroke="black" />
   <line x1="-207.84609690826534" y1="-140.0" x2="-216.50635094610973" y2="-135.0" stroke-width="1" stroke="black" />
   <line x1="-216.50635094610973" y1="-135.0" x2="-225.16660498395413" y2="-130.0" stroke-width="1" stroke="black" />
   <line x1="-225.16660498395413" y1="-130.0" x2="-225.16660498395413" y2="-140.0" stroke-width="1" stroke="black" />
   <line x1="-225.16660498395413" y1="-140.0" x2="-233.82685902179853" y2="-135.0" stroke-width="1" stroke="black" />
   <line x1="-233.82685902179853" y1="-135.0" x2="-233.82685902179853" y2="-145.0" stroke-width="1" stroke="black" />
   <line x1="-233.82685902179853" y1="-145.0" x2="-225.16660498395413" y2="-140.0" stroke-width="1" stroke="black" />
   <line x1="-225.16660498395413" y1="-140.0" x2="-225.16660498395413" y2="-150.0" stroke-width="1" stroke="black" />
   <line x1="-225.16660498395413" y1="-150.0" x2="-216.50635094610973" y2="-145.0" stroke-width="1" stroke="black" />
   <line x1="-216.50635094610973" y1="-145.0" x2="-207.84609690826534" y2="-140.0" stroke-width="1" stroke="black" />
   <line x1="-207.84609690826534" y1="-140.0" x2="-207.84609690826534" y2="-150.0" stroke-width="1" stroke="black" />
   <line x1="-207.84609690826534" y1="-150.0" x2="-216.50635094610973" y2="-145.0" stroke-width="1" stroke="black" />
   <line x1="-216.50635094610973" y1="-145.0" x2="-216.50635094610973" y2="-155.0" stroke-width="1" stroke="black" />
   <line x1="-216.50635094610973" y1="-155.0" x2="-207.84609690826534" y2="-150.0" stroke-width="1" stroke="black" />
   <line x1="-207.84609690826534" y1="-150.0" x2="-207.84609690826534" y2="-160.0" stroke-width="1" stroke="black" />
   <line x1="-207.84609690826534" y1="-160.0" x2="-216.50635094610973" y2="-155.0" stroke-width="1" stroke="black" />
   <line x1="-216.50635094610973" y1="-155.0" x2="-225.16660498395413" y2="-150.0" stroke-width="1" stroke="black" />
   <line x1="-225.16660498395413" y1="-150.0" x2="-233.82685902179853" y2="-145.0" stroke-width="1" stroke="black" />
   <line x1="-233.82685902179853" y1="-145.0" x2="-242.48711305964292" y2="-140.0" stroke-width="1" stroke="black" />
   <line x1="-242.48711305964292" y1="-140.0" x2="-242.48711305964292" y2="-150.0" stroke-width="1" stroke="black" />
   <line x1="-242.48711305964292" y1="-150.0" x2="-251.14736709748732" y2="-145.0" stroke-width="1" stroke="black" />
   <line x1="-251.14736709748732" y1="-145.0" x2="-251.14736709748732" y2="-155.0" stroke-width="1" stroke="black" />
   <line x1="-251.14736709748732" y1="-155.0" x2="-242.48711305964292" y2="-150.0" stroke-width="1" stroke="black" />
   <line x1="-242.48711305964292" y1="-150.0" x2="-242.48711305964292" y2="-160.0" stroke-width="1" stroke="black" />
   <line x1="-242.48711305964292" y1="-160.0" x2="-251.14736709748732" y2="-155.0" stroke-width="1" stroke="black" />
   <line x1="-251.14736709748732" y1="-155.0" x2="-259.8076211353317" y2="-150.0" stroke-width="1" stroke="black" />
   <line x1="-259.8076211353317" y1="-150.0" x2="-259.8076211353317" y2="-160.0" stroke-width="1" stroke="black" />
   <line x1="-259.8076211353317" y1="-160.0" x2="-268.4678751731761" y2="-155.0" stroke-width="1" stroke="black" />
   <line x1="-268.4678751731761" y1="-155.0" x2="-268.4678751731761" y2="-165.0" stroke-width="1" stroke="black" />
   <line x1="-268.4678751731761" y1="-165.0" x2="-259.8076211353317" y2="-160.0" stroke-width="1" stroke="black" />
   <line x1="-259.8076211353317" y1="-160.0" x2="-259.8076211353317" y2="-170.0" stroke-width="1" stroke="black" />
   <line x1="-259.8076211353317" y1="-170.0" x2="-251.14736709748732" y2="-165.0" stroke-width="1" stroke="black" />
   <line x1="-251.14736709748732" y1="-165.0" x2="-242.48711305964292" y2="-160.0" stroke-width="1" stroke="black" />
   <line x1="-242.48711305964292" y1="-160.0" x2="-242.48711305964292" y2="-170.0" stroke-width="1" stroke="black" />
   <line x1="-242.48711305964292" y1="-170.0" x2="-251.14736709748732" y2="-165.0" stroke-width="1" stroke="black" />
   <line x1="-251.14736709748732" y1="-165.0" x2="-251.14736709748732" y2="-175.0" stroke-width="1" stroke="black" />
   <line x1="-251.14736709748732" y1="-175.0" x2="-242.48711305964292" y2="-170.0" stroke-width="1" stroke="black" />
   <line x1="-242.48711305964292" y1="-170.0" x2="-242.48711305964292" y2="-180.0" stroke-width="1" stroke="black" />
   <line x1="-242.48711305964292" y1="-180.0" x2="-233.82685902179853" y2="-175.0" stroke-width="1" stroke="black" />
   <line x1="-233.82685902179853" y1="-175.0" x2="-225.16660498395413" y2="-170.0" stroke-width="1" stroke="black" />
   <line x1="-225.16660498395413" y1="-170.0" x2="-216.50635094610973" y2="-165.0" stroke-width="1" stroke="black" />
   <line x1="-216.50635094610973" y1="-165.0" x2="-207.84609690826534" y2="-160.0" stroke-width="1" stroke="black" />
   <line x1="-207.84609690826534" y1="-160.0" x2="-207.84609690826534" y2="-170.0" stroke-width="1" stroke="black" />
   <line x1="-207.84609690826534" y1="-170.0" x2="-216.50635094610973" y2="-165.0" stroke-width="1" stroke="black" />
   <line x1="-216.50635094610973" y1="-165.0" x2="-216.50635094610973" y2="-175.0" stroke-width="1" stroke="black" />
   <line x1="-216.50635094610973" y1="-175.0" x2="-207.84609690826534" y2="-170.0" stroke-width="1" stroke="black" />
   <line x1="-207.84609690826534" y1="-170.0" x2="-207.84609690826534" y2="-180.0" stroke-width="1" stroke="black" />
   <line x1="-207.84609690826534" y1="-180.0" x2="-216.50635094610973" y2="-175.0" stroke-width="1" stroke="black" />
   <line x1="-216.50635094610973" y1="-175.0" x2="-225.16660498395413" y2="-170.0" stroke-width="1" stroke="black" />
   <line x1="-225.16660498395413" y1="-170.0" x2="-225.16660498395413" y2="-180.0" stroke-width="1" stroke="black" />
   <line x1="-225.16660498395413" y1="-180.0" x2="-233.82685902179853" y2="-175.0" stroke-width="1" stroke="black" />
   <line x1="-233.82685902179853" y1="-175.0" x2="-233.82685902179853" y2="-185.0" stroke-width="1" stroke="black" />
   <line x1="-233.82685902179853" y1="-185.0" x2="-225.16660498395413" y2="-180.0" stroke-width="1" stroke="black" />
   <line x1="-225.16660498395413" y1="-180.0" x2="-225.16660498395413" y2="-190.0" stroke-width="1" stroke="black" />
   <line x1="-225.16660498395413" y1="-190.0" x2="-216.50635094610973" y2="-185.0" stroke-width="1" stroke="black" />
   <line x1="-216.50635094610973" y1="-185.0" x2="-207.84609690826534" y2="-180.0" stroke-width="1" stroke="black" />
   <line x1="-207.84609690826534" y1="-180.0" x2="-207.84609690826534" y2="-190.0" stroke-width="1" stroke="black" />
   <line x1="-207.84609690826534" y1="-190.0" x2="-216.50635094610973" y2="-185.0" stroke-width="1" stroke="black" />
   <line x1="-216.50635094610973" y1="-185.0" x2="-216.50635094610973" y2="-195.0" stroke-width="1" stroke="black" />
   <line x1="-216.50635094610973" y1="-195.0" x2="-207.84609690826534" y2="-190.0" stroke-width="1" stroke="black" />
   <line x1="-207.84609690826534" y1="-190.0" x2="-207.84609690826534" y2="-200.0" stroke-width="1" stroke="black" />
   <line x1="-207.84609690826534" y1="-200.0" x2="-199.18584287042094" y2="-195.0" stroke-width="1" stroke="black" />
   <line x1="-199.18584287042094" y1="-195.0" x2="-190.52558883257655" y2="-190.0" stroke-width="1" stroke="black" />
   <line x1="-190.52558883257655" y1="-190.0" x2="-181.86533479473215" y2="-185.0" stroke-width="1" stroke="black" />
   <line x1="-181.86533479473215" y1="-185.0" x2="-173.20508075688775" y2="-180.0" stroke-width="1" stroke="black" />
   <line x1="-173.20508075688775" y1="-180.0" x2="-164.54482671904336" y2="-175.0" stroke-width="1" stroke="black" />
   <line x1="-164.54482671904336" y1="-175.0" x2="-155.88457268119896" y2="-170.0" stroke-width="1" stroke="black" />
   <line x1="-155.88457268119896" y1="-170.0" x2="-147.22431864335456" y2="-165.0" stroke-width="1" stroke="black" />
   <line x1="-147.22431864335456" y1="-165.0" x2="-138.56406460551017" y2="-160.0" stroke-width="1" stroke="black" />
   <line x1="-138.56406460551017" y1="-160.0" x2="-138.56406460551017" y2="-170.0" stroke-width="1" stroke="black" />
   <line x1="-138.56406460551017" y1="-170.0" x2="-147.22431864335456" y2="-165.0" stroke-width="1" stroke="black" />
   <line x1="-147.22431864335456" y1="-165.0" x2="-147.22431864335456" y2="-175.0" stroke-width="1" stroke="black" />
   <line x1="-147.22431864335456" y1="-175.0" x2="-138.56406460551017" y2="-170.0" stroke-width="1" stroke="black" />
   <line x1="-138.56406460551017" y1="-170.0" x2="-138.56406460551017" y2="-180.0" stroke-width="1" stroke="black" />
   <line x1="-138.56406460551017" y1="-180.0" x2="-147.22431864335456" y2="-175.0" stroke-width="1" stroke="black" />
   <line x1="-147.22431864335456" y1="-175.0" x2="-155.88457268119896" y2="-170.0" stroke-width="1" stroke="black" />
   <line x1="-155.88457268119896" y1="-170.0" x2="-155.88457268119896" y2="-180.0" stroke-width="1" stroke="black" />
   <line x1="-155.88457268119896" y1="-180.0" x2="-164.54482671904336" y2="-175.0" stroke-width="1" stroke="black" />
   <line x1="-164.54482671904336" y1="-175.0" x2="-164.54482671904336" y2="-185.0" stroke-width="1" stroke="black" />
   <line x1="-164.54482671904336" y1="-185.0" x2="-155.88457268119896" y2="-180.0" stroke-width="1" stroke="black" />
   <line x1="-155.88457268119896" y1="-180.0" x2="-155.88457268119896" y2="-190.0" stroke-width="1" stroke="black" />
   <line x1="-155.88457268119896" y1="-190.0" x2="-147.22431864335456" y2="-185.0" stroke-width="1" stroke="black" />
   <line x1="-147.22431864335456" y1="-185.0" x2="-138.56406460551017" y2="-180.0" stroke-width="1" stroke="black" />
   <line x1="-138.56406460551017" y1="-180.0" x2="-138.56406460551017" y2="-190.0" stroke-width="1" stroke="black" />
   <line x1="-138.56406460551017" y1="-190.0" x2="-147.22431864335456" y2="-185.0" stroke-width="1" stroke="black" />
   <line x1="-147.22431864335456" y1="-185.0" x2="-147.22431864335456" y2="-195.0" stroke-width="1" stroke="black" />
   <line x1="-147.22431864335456" y1="-195.0" x2="-138.56406460551017" y2="-190.0" stroke-width="1" stroke="black" />
   <line x1="-138.56406460551017" y1="-190.0" x2="-138.56406460551017" y2="-200.0" stroke-width="1" stroke="black" />
   <line x1="-138.56406460551017" y1="-200.0" x2="-147.22431864335456" y2="-195.0" stroke-width="1" stroke="black" />
   <line x1="-147.22431864335456" y1="-195.0" x2="-155.88457268119896" y2="-190.0" stroke-width="1" stroke="black" />
   <line x1="-155.88457268119896" y1="-190.0" x2="-164.54482671904336" y2="-185.0" stroke-width="1" stroke="black" />
   <line x1="-164.54482671904336" y1="-185.0" x2="-173.20508075688775" y2="-180.0" stroke-width="1" stroke="black" />
   <line x1="-173.20508075688775" y1="-180.0" x2="-173.20508075688775" y2="-190.0" stroke-width="1" stroke="black" />
   <line x1="-173.20508075688775" y1="-190.0" x2="-181.86533479473215" y2="-185.0" stroke-width="1" stroke="black" />
   <line x1="-181.86533479473215" y1="-185.0" x2="-181.86533479473215" y2="-195.0" stroke-width="1" stroke="black" />
   <line x1="-181.86533479473215" y1="-195.0" x2="-173.20508075688775" y2="-190.0" stroke-width="1" stroke="black" />
   <line x1="-173.20508075688775" y1="-190.0" x2="-173.20508075688775" y2="-200.0" stroke-width="1" stroke="black" />
   <line x1="-173.20508075688775" y1="-200.0" x2="-181.86533479473215" y2="-195.0" stroke-width="1" stroke="black" />
   <line x1="-181.86533479473215" y1="-195.0" x2="-190.52558883257655" y2="-190.0" stroke-width="1" stroke="black" />
   <line x1="-190.52558883257655" y1="-190.0" x2="-190.52558883257655" y2="-200.0" stroke-width="1" stroke="black" />
   <line x1="-190.52558883257655" y1="-200.0" x2="-199.18584287042094" y2="-195.0" stroke-width="1" stroke="black" />
   <line x1="-199.18584287042094" y1="-195.0" x2="-199.18584287042094" y2="-205.0" stroke-width="1" stroke="black" />
   <line x1="-199.18584287042094" y1="-205.0" x2="-190.52558883257655" y2="-200.0" stroke-width="1" stroke="black" />
   <line x1="-190.52558883257655" y1="-200.0" x2="-190.52558883257655" y2="-210.0" stroke-width="1" stroke="black" />
   <line x1="-190.52558883257655" y1="-210.0" x2="-181.86533479473215" y2="-205.0" stroke-width="1" stroke="black" />
   <line x1="-181.86533479473215" y1="-205.0" x2="-173.20508075688775" y2="-200.0" stroke-width="1" stroke="black" />
   <line x1="-173.20508075688775" y1="-200.0" x2="-173.20508075688775" y2="-210.0" stroke-width="1" stroke="black" />
   <line x1="-173.20508075688775" y1="-210.0" x2="-181.86533479473215" y2="-205.0" stroke-width="1" stroke="black" />
   <line x1="-181.86533479473215" y1="-205.0" x2="-181.86533479473215" y2="-215.0" stroke-width="1" stroke="black" />
   <line x1="-181.86533479473215" y1="-215.0" x2="-173.20508075688775" y2="-210.0" stroke-width="1" stroke="black" />
   <line x1="-173.20508075688775" y1="-210.0" x2="-173.20508075688775" y2="-220.0" stroke-width="1" stroke="black" />
   <line x1="-173.20508075688775" y1="-220.0" x2="-164.54482671904336" y2="-215.0" stroke-width="1" stroke="black" />
   <line x1="-164.54482671904336" y1="-215.0" x2="-155.88457268119896" y2="-210.0" stroke-width="1" stroke="black" />
   <line x1="-155.88457268119896" y1="-210.0" x2="-147.22431864335456" y2="-205.0" stroke-width="1" stroke="black" />
   <line x1="-147.22431864335456" y1="-205.0" x2="-138.56406460551017" y2="-200.0" stroke-width="1" stroke="black" />
   <line x1="-138.56406460551017" y1="-200.0" x2="-138.56406460551017" y2="-210.0" stroke-width="1" stroke="black" />
   <line x1="-138.56406460551017" y1="-210.0" x2="-147.22431864335456" y2="-205.0" stroke-width="1" stroke="black" />
   <line x1="-147.22431864335456" y1="-205.0" x2="-147.22431864335456" y2="-215.0" stroke-width="1" stroke="black" />
   <line x1="-147.22431864335456" y1="-215.0" x2="-138.56406460551017" y2="-210.0" stroke-width="1" stroke="black" />
   <line x1="-138.56406460551017" y1="-210.0" x2="-138.56406460551017" y2="-220.0" stroke-width="1" stroke="black" />
   <line x1="-138.56406460551017" y1="-220.0" x2="-147.22431864335456" y2="-215.0" stroke-width="1" stroke="black" />
   <line x1="-147.22431864335456" y1="-215.0" x2="-155.88457268119896" y2="-210.0" stroke-width="1" stroke="black" />
   <line x1="-155.88457268119896" y1="-210.0" x2="-155.88457268119896" y2="-220.0" stroke-width="1" stroke="black" />
   <line x1="-155.88457268119896" y1="-220.0" x2="-164.54482671904336" y2="-215.0" stroke-width="1" stroke="black" />
   <line x1="-164.54482671904336" y1="-215.0" x2="-164.54482671904336" y2="-225.0" stroke-width="1" stroke="black" />
   <line x1="-164.54482671904336" y1="-225.0" x2="-155.88457268119896" y2="-220.0" stroke-width="1" stroke="black" />
   <line x1="-155.88457268119896" y1="-220.0" x2="-155.88457268119896" y2="-230.0" stroke-width="1" stroke="black" />
   <line x1="-155.88457268119896" y1="-230.0" x2="-147.22431864335456" y2="-225.0" stroke-width="1" stroke="black" />
   <line x1="-147.22431864335456" y1="-225.0" x2="-138.56406460551017" y2="-220.0" stroke-width="1" stroke="black" />
   <line x1="-138.56406460551017" y1="-220.0" x2="-138.56406460551017" y2="-230.0" stroke-width="1" stroke="black" />
   <line x1="-138.56406460551017" y1="-230.0" x2="-147.22431864335456" y2="-225.0" stroke-width="1" stroke="black" />
   <line x1="-147.22431864335456" y1="-225.0" x2="-147.22431864335456" y2="-235.0" stroke-width="1" stroke="black" />
   <line x1="-147.22431864335456" y1="-235.0" x2="-138.56406460551017" y2="-230.0" stroke-width="1" stroke="black" />
   <line x1="-138.56406460551017" y1="-230.0" x2="-138.56406460551017" y2="-240.0" stroke-width="1" stroke="black" />
   <line x1="-138.56406460551017" y1="-240.0" x2="-129.90381056766577" y2="-235.0" stroke-width="1" stroke="black" />
   <line x1="-129.90381056766577" y1="-235.0" x2="-121.24355652982139" y2="-230.0" stroke-width="1" stroke="black" />
   <line x1="-121.24355652982139" y1="-230.0" x2="-112.58330249197701" y2="-225.0" stroke-width="1" stroke="black" />
   <line x1="-112.58330249197701" y1="-225.0" x2="-103.92304845413263" y2="-220.0" stroke-width="1" stroke="black" />
   <line x1="-103.92304845413263" y1="-220.0" x2="-95.26279441628824" y2="-215.0" stroke-width="1" stroke="black" />
   <line x1="-95.26279441628824" y1="-215.0" x2="-86.60254037844386" y2="-210.0" stroke-width="1" stroke="black" />
   <line x1="-86.60254037844386" y1="-210.0" x2="-77.94228634059948" y2="-205.0" stroke-width="1" stroke="black" />
   <line x1="-77.94228634059948" y1="-205.0" x2="-69.2820323027551" y2="-200.0" stroke-width="1" stroke="black" />
   <line x1="-69.2820323027551" y1="-200.0" x2="-60.62177826491071" y2="-195.0" stroke-width="1" stroke="black" />
   <line x1="-60.62177826491071" y1="-195.0" x2="-51.96152422706632" y2="-190.0" stroke-width="1" stroke="black" />
   <line x1="-51.96152422706632" y1="-190.0" x2="-43.30127018922193" y2="-185.0" stroke-width="1" stroke="black" />
   <line x1="-43.30127018922193" y1="-185.0" x2="-34.64101615137754" y2="-180.0" stroke-width="1" stroke="black" />
   <line x1="-34.64101615137754" y1="-180.0" x2="-25.980762113533153" y2="-175.0" stroke-width="1" stroke="black" />
   <line x1="-25.980762113533153" y1="-175.0" x2="-17.320508075688764" y2="-170.0" stroke-width="1" stroke="black" />
   <line x1="-17.320508075688764" y1="-170.0" x2="-8.660254037844377" y2="-165.0" stroke-width="1" stroke="black" />
   <line x1="-8.660254037844377" y1="-165.0" x2="1.0658141036401503e-14" y2="-160.0" stroke-width="1" stroke="black" />
   <line x1="1.0658141036401503e-14" y1="-160.0" x2="1.0658141036401503e-14" y2="-170.0" stroke-width="1" stroke="black" />
   <line x1="1.0658141036401503e-14" y1="-170.0" x2="-8.660254037844377" y2="-165.0" stroke-width="1" stroke="black" />
   <line x1="-8.660254037844377" y1="-165.0" x2="-8.660254037844377" y2="-175.0" stroke-width="1" stroke="black" />
   <line x1="-8.660254037844377" y1="-175.0" x2="1.0658141036401503e-14" y2="-170.0" stroke-width="1" stroke="black" />
   <line x1="1.0658141036401503e-14" y1="-170.0" x2="1.0658141036401503e-14" y2="-180.0" stroke-width="1" stroke="black" />
   <line x1="1.0658141036401503e-14" y1="-180.0" x2="-8.660254037844377" y2="-175.0" stroke-width="1" stroke="black" />
   <line x1="-8.660254037844377" y1="-175.0" x2="-17.320508075688764" y2="-170.0" stroke-width="1" stroke="black" />
   <line x1="-17.320508075688764" y1="-170.0" x2="-17.320508075688764" y2="-180.0" stroke-width="1" stroke="black" />
   <line x1="-17.320508075688764" y1="-180.0" x2="-25.980762113533153" y2="-175.0" stroke-width="1" stroke="black" />
   <line x1="-25.980762113533153" y1="-175.0" x2="-25.980762113533153" y2="-185.0" stroke-width="1" stroke="black" />
   <line x1="-25.980762113533153" y1="-185.0" x2="-17.320508075688764" y2="-180.0" stroke-width="1" stroke="black" />
   <line x1="-17.320508075688764" y1="-180.0" x2="-17.320508075688764" y2="-190.0" stroke-width="1" stroke="black" />
   <line x1="-17.320508075688764" y1="-190.0" x2="-8.660254037844377" y2="-185.0" stroke-width="1" stroke="black" />
   <line x1="-8.660254037844377" y1="-185.0" x2="1.0658141036401503e-14" y2="-180.0" stroke-width="1" stroke="black" />
   <line x1="1.0658141036401503e-14" y1="-180.0" x2="1.0658141036401503e-14" y2="-190.0" stroke-width="1" stroke="black" />
   <line x1="1.0658141036401503e-14" y1="-190.0" x2="-8.660254037844377" y2="-185.0" stroke-width="1" stroke="black" />
   <line x1="-8.660254037844377" y1="-185.0" x2="-8.660254037844377" y2="-195.0" stroke-width="1" stroke="black" />
   <line x1="-8.660254037844377" y1="-195.0" x2="1.0658141036401503e-14" y2="-190.0" stroke-width="1" stroke="black" />
   <line x1="1.0658141036401503e-14" y1="-190.0" x2="1.0658141036401503e-14" y2="-200.0" stroke-width="1" stroke="black" />
   <line x1="1.0658141036401503e-14" y1="-200.0" x2="-8.660254037844377" y2="-195.0" stroke-width="1" stroke="black" />
   <line x1="-8.660254037844377" y1="-195.0" x2="-17.320508075688764" y2="-190.0" stroke-width="1" stroke="black" />
   <line x1="-17.320508075688764" y1="-190.0" x2="-25.980762113533153" y2="-185.0" stroke-width="1" stroke="black" />
   <line x1="-25.980762113533153" y1="-185.0" x2="-34.64101615137754" y2="-180.0" stroke-width="1" stroke="black" />
   <line x1="-34.64101615137754" y1="-180.0" x2="-34.64101615137754" y2="-190.0" stroke-width="1" stroke="black" />
   <line x1="-34.64101615137754" y1="-190.0" x2="-43.30127018922193" y2="-185.0" stroke-width="1" stroke="black" />
   <line x1="-43.30127018922193" y1="-185.0" x2="-43.30127018922193" y2="-195.0" stroke-width="1" stroke="black" />
   <line x1="-43.30127018922193" y1="-195.0" x2="-34.64101615137754" y2="-190.0" stroke-width="1" stroke="black" />
   <line x1="-34.64101615137754" y1="-190.0" x2="-34.64101615137754" y2="-200.0" stroke-width="1" stroke="black" />
   <line x1="-34.64101615137754" y1="-200.0" x2="-43.30127018922193" y2="-195.0" stroke-width="1" stroke="black" />
   <line x1="-43.30127018922193" y1="-195.0" x2="-51.96152422706632" y2="-190.0" stroke-width="1" stroke="black" />
   <line x1="-51.96152422706632" y1="-190.0" x2="-51.96152422706632" y2="-200.0" stroke-width="1" stroke="black" />
   <line x1="-51.96152422706632" y1="-200.0" x2="-60.62177826491071" y2="-195.0" stroke-width="1" stroke="black" />
   <line x1="-60.62177826491071" y1="-195.0" x2="-60.62177826491071" y2="-205.0" stroke-width="1" stroke="black" />
   <line x1="-60.62177826491071" y1="-205.0" x2="-51.96152422706632" y2="-200.0" stroke-width="1" stroke="black" />
   <line x1="-51.96152422706632" y1="-200.0" x2="-51.96152422706632" y2="-210.0" stroke-width="1" stroke="black" />
   <line x1="-51.96152422706632" y1="-210.0" x2="-43.30127018922193" y2="-205.0" stroke-width="1" stroke="black" />
   <line x1="-43.30127018922193" y1="-205.0" x2="-34.64101615137754" y2="-200.0" stroke-width="1" stroke="black" />
   <line x1="-34.64101615137754" y1="-200.0" x2="-34.64101615137754" y2="-210.0" stroke-width="1" stroke="black" />
   <line x1="-34.64101615137754" y1="-210.0" x2="-43.30127018922193" y2="-205.0" stroke-width="1" stroke="black" />
   <line x1="-43.30127018922193" y1="-205.0" x2="-43.30127018922193" y2="-215.0" stroke-width="1" stroke="black" />
   <line x1="-43.30127018922193" y1="-215.0" x2="-34.64101615137754" y2="-210.0" stroke-width="1" stroke="black" />
   <line x1="-34.64101615137754" y1="-210.0" x2="-34.64101615137754" y2="-220.0" stroke-width="1" stroke="black" />
   <line x1="-34.64101615137754" y1="-220.0" x2="-25.980762113533153" y2="-215.0" stroke-width="1" stroke="black" />
   <line x1="-25.980762113533153" y1="-215.0" x2="-17.320508075688764" y2="-210.0" stroke-width="1" stroke="black" />
   <line x1="-17.320508075688764" y1="-210.0" x2="-8.660254037844377" y2="-205.0" stroke-width="1" stroke="black" />
   <line x1="-8.660254037844377" y1="-205.0" x2="1.0658141036401503e-14" y2="-200.0" stroke-width="1" stroke="black" />
   <line x1="1.0658141036401503e-14" y1="-200.0" x2="1.0658141036401503e-14" y2="-210.0" stroke-width="1" stroke="black" />
   <line x1="1.0658141036401503e-14" y1="-210.0" x2="-8.660254037844377" y2="-205.0" stroke-width="1" stroke="black" />
   <line x1="-8.660254037844377" y1="-205.0" x2="-8.660254037844377" y2="-215.0" stroke-width="1" stroke="black" />
   <line x1="-8.660254037844377" y1="-215.0" x2="1.0658141036401503e-14" y2="-210.0" stroke-width="1" stroke="black" />
   <line x1="1.0658141036401503e-14" y1="-210.0" x2="1.0658141036401503e-14" y2="-220.0" stroke-width="1" stroke="black" />
   <line x1="1.0658141036401503e-14" y1="-220.0" x2="-8.660254037844377" y2="-215.0" stroke-width="1" stroke="black" />
   <line x1="-8.660254037844377" y1="-215.0" x2="-17.320508075688764" y2="-210.0" stroke-width="1" stroke="black" />
   <line x1="-17.320508075688764" y1="-210.0" x2="-17.320508075688764" y2="-220.0" stroke-width="1" stroke="black" />
   <line x1="-17.320508075688764" y1="-220.0" x2="-25.980762113533153" y2="-215.0" stroke-width="1" stroke="black" />
   <line x1="-25.980762113533153" y1="-215.0" x2="-25.980762113533153" y2="-225.0" stroke-width="1" stroke="black" />
   <line x1="-25.980762113533153" y1="-225.0" x2="-17.320508075688764" y2="-220.0" stroke-width="1" stroke="black" />
   <line x1="-17.320508075688764" y1="-220.0" x2="-17.320508075688764" y2="-230.0" stroke-width="1" stroke="black" />
   <line x1="-17.320508075688764" y1="-230.0" x2="-8.660254037844377" y2="-225.0" stroke-width="1" stroke="black" />
   <line x1="-8.660254037844377" y1="-225.0" x2="1.0658141036401503e-14" y2="-220.0" stroke-width="1" stroke="black" />
   <line x1="1.0658141036401503e-14" y1="-220.0" x2="1.0658141036401503e-14" y2="-230.0" stroke-width="1" stroke="black" />
   <line x1="1.0658141036401503e-14" y1="-230.0" x2="-8.660254037844377" y2="-225.0" stroke-width="1" stroke="black" />
   <line x1="-8.660254037844377" y1="-225.0" x2="-8.660254037844377" y2="-235.0" stroke-width="1" stroke="black" />
   <line x1="-8.660254037844377" y1="-235.0" x2="1.0658141036401503e-14" y2="-230.0" stroke-width="1" stroke="black" />
   <line x1="1.0658141036401503e-14" y1="-230.0" x2="1.0658141036401503e-14" y2="-240.0" stroke-width="1" stroke="black" />
   <line x1="1.0658141036401503e-14" y1="-240.0" x2="-8.660254037844377" y2="-235.0" stroke-width="1" stroke="black" />
   <line x1="-8.660254037844377" y1="-235.0" x2="-17.320508075688764" y2="-230.0" stroke-width="1" stroke="black" />
   <line x1="-17.320508075688764" y1="-230.0" x2="-25.980762113533153" y2="-225.0" stroke-width="1" stroke="black" />
   <line x1="-25.980762113533153" y1="-225.0" x2="-34.64101615137754" y2="-220.0" stroke-width="1" stroke="black" />
   <line x1="-34.64101615137754" y1="-220.0" x2="-43.30127018922193" y2="-215.0" stroke-width="1" stroke="black" />
   <line x1="-43.30127018922193" y1="-215.0" x2="-51.96152422706632" y2="-210.0" stroke-width="1" stroke="black" />
   <line x1="-51.96152422706632" y1="-210.0" x2="-60.62177826491071" y2="-205.0" stroke-width="1" stroke="black" />
   <line x1="-60.62177826491071" y1="-205.0" x2="-69.2820323027551" y2="-200.0" stroke-width="1" stroke="black" />
   <line x1="-69.2820323027551" y1="-200.0" x2="-69.2820323027551" y2="-210.0" stroke-width="1" stroke="black" />
   <line x1="-69.2820323027551" y1="-210.0" x2="-77.94228634059948" y2="-205.0" stroke-width="1" stroke="black" />
   <line x1="-77.94228634059948" y1="-205.0" x2="-77.94228634059948" y2="-215.0" stroke-width="1" stroke="black" />
   <line x1="-77.94228634059948" y1="-215.0" x2="-69.2820323027551" y2="-210.0" stroke-width="1" stroke="black" />
   <line x1="-69.2820323027551" y1="-210.0" x2="-69.2820323027551" y2="-220.0" stroke-width="1" stroke="black" />
   <line x1="-69.2820323027551" y1="-220.0" x2="-77.94228634059948" y2="-215.0" stroke-width="1" stroke="black" />
   <line x1="-77.94228634059948" y1="-215.0" x2="-86.60254037844386" y2="-210.0" stroke-width="1" stroke="black" />
   <line x1="-86.60254037844386" y1="-210.0" x2="-86.60254037844386" y2="-220.0" stroke-width="1" stroke="black" />
   <line x1="-86.60254037844386" y1="-220.0" x2="-95.26279441628824" y2="-215.0" stroke-width="1" stroke="black" />
   <line x1="-95.26279441628824" y1="-215.0" x2="-95.26279441628824" y2="-225.0" stroke-width="1" stroke="black" />
   <line x1="-95.26279441628824" y1="-225.0" x2="-86.60254037844386" y2="-220.0" stroke-width="1" stroke="black" />
   <line x1="-86.60254037844386" y1="-220.0" x2="-86.60254037844386" y2="-230.0" stroke-width="1" stroke="black" />
   <line x1="-86.60254037844386" y1="-230.0" x2="-77.94228634059948" y2="-225.0" stroke-width="1" stroke="black" />
   <line x1="-77.94228634059948" y1="-225.0" x2="-69.2820323027551" y2="-220.0" stroke-width="1" stroke="black" />
   <line x1="-69.2820323027551" y1="-220.0" x2="-69.2820323027551" y2="-230.0" stroke-width="1" stroke="black" />
   <line x1="-69.2820323027551" y1="-230.0" x2="-77.94228634059948" y2="-225.0" stroke-width="1" stroke="black" />
   <line x1="-77.94228634059948" y1="-225.0" x2="-77.94228634059948" y2="-235.0" stroke-width="1" stroke="black" />
   <line x1="-77.94228634059948" y1="-235.0" x2="-69.2820323027551" y2="-230.0" stroke-width="1" stroke="black" />
   <line x1="-69.2820323027551" y1="-230.0" x2="-69.2820323027551" y2="-240.0" stroke-width="1" stroke="black" />
   <line x1="-69.2820323027551" y1="-240.0" x2="-77.94228634059948" y2="-235.0" stroke-width="1" stroke="black" />
   <line x1="-77.94228634059948" y1="-235.0" x2="-86.60254037844386" y2="-230.0" stroke-width="1" stroke="black" />
   <line x1="-86.60254037844386" y1="-230.0" x2="-95.26279441628824" y2="-225.0" stroke-width="1" stroke="black" />
   <line x1="-95.26279441628824" y1="-225.0" x2="-103.92304845413263" y2="-220.0" stroke-width="1" stroke="black" />
   <line x1="-103.92304845413263" y1="-220.0" x2="-103.92304845413263" y2="-230.0" stroke-width="1" stroke="black" />
   <line x1="-103.92304845413263" y1="-230.0" x2="-112.58330249197701" y2="-225.0" stroke-width="1" stroke="black" />
   <line x1="-112.58330249197701" y1="-225.0" x2="-112.58330249197701" y2="-235.0" stroke-width="1" stroke="black" />
   <line x1="-112.58330249197701" y1="-235.0" x2="-103.92304845413263" y2="-230.0" stroke-width="1" stroke="black" />
   <line x1="-103.92304845413263" y1="-230.0" x2="-103.92304845413263" y2="-240.0" stroke-width="1" stroke="black" />
   <line x1="-103.92304845413263" y1="-240.0" x2="-112.58330249197701" y2="-235.0" stroke-width="1" stroke="black" />
   <line x1="-112.58330249197701" y1="-235.0" x2="-121.24355652982139" y2="-230.0" stroke-width="1" stroke="black" />
   <line x1="-121.24355652982139" y1="-230.0" x2="-121.24355652982139" y2="-240.0" stroke-width="1" stroke="black" />
   <line x1="-121.24355652982139" y1="-240.0" x2="-129.90381056766577" y2="-235.0" stroke-width="1" stroke="black" />
   <line x1="-129.90381056766577" y1="-235.0" x2="-129.90381056766577" y2="-245.0" stroke-width="1" stroke="black" />
   <line x1="-129.90381056766577" y1="-245.0" x2="-121.24355652982139" y2="-240.0" stroke-width="1" stroke="black" />
   <line x1="-121.24355652982139" y1="-240.0" x2="-121.24355652982139" y2="-250.0" stroke-width="1" stroke="black" />
   <line x1="-121.24355652982139" y1="-250.0" x2="-112.58330249197701" y2="-245.0" stroke-width="1" stroke="black" />
   <line x1="-112.58330249197701" y1="-245.0" x2="-103.92304845413263" y2="-240.0" stroke-width="1" stroke="black" />
   <line x1="-103.92304845413263" y1="-240.0" x2="-103.92304845413263" y2="-250.0" stroke-width="1" stroke="black" />
   <line x1="-103.92304845413263" y1="-250.0" x2="-112.58330249197701" y2="-245.0" stroke-width="1" stroke="black" />
   <line x1="-112.58330249197701" y1="-245.0" x2="-112.58330249197701" y2="-255.0" stroke-width="1" stroke="black" />
   <line x1="-112.58330249197701" y1="-255.0" x2="-103.92304845413263" y2="-250.0" stroke-width="1" stroke="black" />
   <line x1="-103.92304845413263" y1="-250.0" x2="-103.92304845413263" y2="-260.0" stroke-width="1" stroke="black" />
   <line x1="-103.92304845413263" y1="-260.0" x2="-95.26279441628824" y2="-255.0" stroke-width="1" stroke="black" />
   <line x1="-95.26279441628824" y1="-255.0" x2="-86.60254037844386" y2="-250.0" stroke-width="1" stroke="black" />
   <line x1="-86.60254037844386" y1="-250.0" x2="-77.94228634059948" y2="-245.0" stroke-width="1" stroke="black" />
   <line x1="-77.94228634059948" y1="-245.0" x2="-69.2820323027551" y2="-240.0" stroke-width="1" stroke="black" />
   <line x1="-69.2820323027551" y1="-240.0" x2="-69.2820323027551" y2="-250.0" stroke-width="1" stroke="black" />
   <line x1="-69.2820323027551" y1="-250.0" x2="-77.94228634059948" y2="-245.0" stroke-width="1" stroke="black" />
   <line x1="-77.94228634059948" y1="-245.0" x2="-77.94228634059948" y2="-255.0" stroke-width="1" stroke="black" />
   <line x1="-77.94228634059948" y1="-255.0" x2="-69.2820323027551" y2="-250.0" stroke-width="1" stroke="black" />
   <line x1="-69.2820323027551" y1="-250.0" x2="-69.2820323027551" y2="-260.0" stroke-width="1" stroke="black" />
   <line x1="-69.2820323027551" y1="-260.0" x2="-77.94228634059948" y2="-255.0" stroke-width="1" stroke="black" />
   <line x1="-77.94228634059948" y1="-255.0" x2="-86.60254037844386" y2="-250.0" stroke-width="1" stroke="black" />
   <line x1="-86.60254037844386" y1="-250.0" x2="-86.60254037844386" y2="-260.0" stroke-width="1" stroke="black" />
   <line x1="-86.60254037844386" y1="-260.0" x2="-95.26279441628824" y2="-255.0" stroke-width="1" stroke="black" />
   <line x1="-95.26279441628824" y1="-255.0" x2="-95.26279441628824" y2="-265.0" stroke-width="1" stroke="black" />
   <line x1="-95.26279441628824" y1="-265.0" x2="-86.60254037844386" y2="-260.0" stroke-width="1" stroke="black" />
   <line x1="-86.60254037844386" y1="-260.0" x2="-86.60254037844386" y2="-270.0" stroke-width="1" stroke="black" />
   <line x1="-86.60254037844386" y1="-270.0" x2="-77.94228634059948" y2="-265.0" stroke-width="1" stroke="black" />
   <line x1="-77.94228634059948" y1="-265.0" x2="-69.2820323027551" y2="-260.0" stroke-width="1" stroke="black" />
   <line x1="-69.2820323027551" y1="-260.0" x2="-69.2820323027551" y2="-270.0" stroke-width="1" stroke="black" />
   <line x1="-69.2820323027551" y1="-270.0" x2="-77.94228634059948" y2="-265.0" stroke-width="1" stroke="black" />
   <line x1="-77.94228634059948" y1="-265.0" x2="-77.94228634059948" y2="-275.0" stroke-width="1" stroke="black" />
   <line x1="-77.94228634059948" y1="-275.0" x2="-69.2820323027551" y2="-270.0" stroke-width="1" stroke="black" />
   <line x1="-69.2820323027551" y1="-270.0" x2="-69.2820323027551" y2="-280.0" stroke-width="1" stroke="black" />
   <line x1="-69.2820323027551" y1="-280.0" x2="-60.62177826491071" y2="-275.0" stroke-width="1" stroke="black" />
   <line x1="-60.62177826491071" y1="-275.0" x2="-51.96152422706632" y2="-270.0" stroke-width="1" stroke="black" />
   <line x1="-51.96152422706632" y1="-270.0" x2="-43.30127018922193" y2="-265.0" stroke-width="1" stroke="black" />
   <line x1="-43.30127018922193" y1="-265.0" x2="-34.64101615137754" y2="-260.0" stroke-width="1" stroke="black" />
   <line x1="-34.64101615137754" y1="-260.0" x2="-25.980762113533153" y2="-255.0" stroke-width="1" stroke="black" />
   <line x1="-25.980762113533153" y1="-255.0" x2="-17.320508075688764" y2="-250.0" stroke-width="1" stroke="black" />
   <line x1="-17.320508075688764" y1="-250.0" x2="-8.660254037844377" y2="-245.0" stroke-width="1" stroke="black" />
   <line x1="-8.660254037844377" y1="-245.0" x2="1.0658141036401503e-14" y2="-240.0" stroke-width="1" stroke="black" />
   <line x1="1.0658141036401503e-14" y1="-240.0" x2="1.0658141036401503e-14" y2="-250.0" stroke-width="1" stroke="black" />
   <line x1="1.0658141036401503e-14" y1="-250.0" x2="-8.660254037844377" y2="-245.0" stroke-width="1" stroke="black" />
   <line x1="-8.660254037844377" y1="-245.0" x2="-8.660254037844377" y2="-255.0" stroke-width="1" stroke="black" />
   <line x1="-8.660254037844377" y1="-255.0" x2="1.0658141036401503e-14" y2="-250.0" stroke-width="1" stroke="black" />
   <line x1="1.0658141036401503e-14" y1="-250.0" x2="1.0658141036401503e-14" y2="-260.0" stroke-width="1" stroke="black" />
   <line x1="1.0658141036401503e-14" y1="-260.0" x2="-8.660254037844377" y2="-255.0" stroke-width="1" stroke="black" />
   <line x1="-8.660254037844377" y1="-255.0" x2="-17.320508075688764" y2="-250.0" stroke-width="1" stroke="black" />
   <line x1="-17.320508075688764" y1="-250.0" x2="-17.320508075688764" y2="-260.0" stroke-width="1" stroke="black" />
   <line x1="-17.320508075688764" y1="-260.0" x2="-25.980762113533153" y2="-255.0" stroke-width="1" stroke="black" />
   <line x1="-25.980762113533153" y1="-255.0" x2="-25.980762113533153" y2="-265.0" stroke-width="1" stroke="black" />
   <line x1="-25.980762113533153" y1="-265.0" x2="-17.320508075688764" y2="-260.0" stroke-width="1" stroke="black" />
   <line x1="-17.320508075688764" y1="-260.0" x2="-17.320508075688764" y2="-270.0" stroke-width="1" stroke="black" />
   <line x1="-17.320508075688764" y1="-270.0" x2="-8.660254037844377" y2="-265.0" stroke-width="1" stroke="black" />
   <line x1="-8.660254037844377" y1="-265.0" x2="1.0658141036401503e-14" y2="-260.0" stroke-width="1" stroke="black" />
   <line x1="1.0658141036401503e-14" y1="-260.0" x2="1.0658141036401503e-14" y2="-270.0" stroke-width="1" stroke="black" />
   <line x1="1.0658141036401503e-14" y1="-270.0" x2="-8.660254037844377" y2="-265.0" stroke-width="1" stroke="black" />
   <line x1="-8.660254037844377" y1="-265.0" x2="-8.660254037844377" y2="-275.0" stroke-width="1" stroke="black" />
   <line x1="-8.660254037844377" y1="-275.0" x2="1.0658141036401503e-14" y2="-270.0" stroke-width="1" stroke="black" />
   <line x1="1.0658141036401503e-14" y1="-270.0" x2="1.0658141036401503e-14" y2="-280.0" stroke-width="1" stroke="black" />
   <line x1="1.0658141036401503e-14" y1="-280.0" x2="-8.660254037844377" y2="-275.0" stroke-width="1" stroke="black" />
   <line x1="-8.660254037844377" y1="-275.0" x2="-17.320508075688764" y2="-270.0" stroke-width="1" stroke="black" />
   <line x1="-17.320508075688764" y1="-270.0" x2="-25.980762113533153" y2="-265.0" stroke-width="1" stroke="black" />
   <line x1="-25.980762113533153" y1="-265.0" x2="-34.64101615137754" y2="-260.0" stroke-width="1" stroke="black" />
   <line x1="-34.64101615137754" y1="-260.0" x2="-34.64101615137754" y2="-270.0" stroke-width="1" stroke="black" />
   <line x1="-34.64101615137754" y1="-270.0" x2="-43.30127018922193" y2="-265.0" stroke-width="1" stroke="black" />
   <line x1="-43.30127018922193" y1="-265.0" x2="-43.30127018922193" y2="-275.0" stroke-width="1" stroke="black" />
   <line x1="-43.30127018922193" y1="-275.0" x2="-34.64101615137754" y2="-270.0" stroke-width="1" stroke="black" />
   <line x1="-34.64101615137754" y1="-270.0" x2="-34.64101615137754" y2="-280.0" stroke-width="1" stroke="black" />
   <line x1="-34.64101615137754" y1="-280.0" x2="-43.30127018922193" y2="-275.0" stroke-width="1" stroke="black" />
   <line x1="-43.30127018922193" y1="-275.0" x2="-51.96152422706632" y2="-270.0" stroke-width="1" stroke="black" />
   <line x1="-51.96152422706632" y1="-270.0" x2="-51.96152422706632" y2="-280.0" stroke-width="1" stroke="black" />
   <line x1="-51.96152422706632" y1="-280.0" x2="-60.62177826491071" y2="-275.0" stroke-width="1" stroke="black" />
   <line x1="-60.62177826491071" y1="-275.0" x2="-60.62177826491071" y2="-285.0" stroke-width="1" stroke="black" />
   <line x1="-60.62177826491071" y1="-285.0" x2="-51.96152422706632" y2="-280.0" stroke-width="1" stroke="black" />
   <line x1="-51.96152422706632" y1="-280.0" x2="-51.96152422706632" y2="-290.0" stroke-width="1" stroke="black" />
   <line x1="-51.96152422706632" y1="-290.0" x2="-43.30127018922193" y2="-285.0" stroke-width="1" stroke="black" />
   <line x1="-43.30127018922193" y1="-285.0" x2="-34.64101615137754" y2="-280.0" stroke-width="1" stroke="black" />
   <line x1="-34.64101615137754" y1="-280.0" x2="-34.64101615137754" y2="-290.0" stroke-width="1" stroke="black" />
   <line x1="-34.64101615137754" y1="-290.0" x2="-43.30127018922193" y2="-285.0" stroke-width="1" stroke="black" />
   <line x1="-43.30127018922193" y1="-285.0" x2="-43.30127018922193" y2="-295.0" stroke-width="1" stroke="black" />
   <line x1="-43.30127018922193" y1="-295.0" x2="-34.64101615137754" y2="-290.0" stroke-width="1" stroke="black" />
   <line x1="-34.64101615137754" y1="-290.0" x2="-34.64101615137754" y2="-300.0" stroke-width="1" stroke="black" />
   <line x1="-34.64101615137754" y1="-300.0" x2="-25.980762113533153" y2="-295.0" stroke-width="1" stroke="black" />
   <line x1="-25.980762113533153" y1="-295.0" x2="-17.320508075688764" y2="-290.0" stroke-width="1" stroke="black" />
   <line x1="-17.320508075688764" y1="-290.0" x2="-8.660254037844377" y2="-285.0" stroke-width="1" stroke="black" />
   <line x1="-8.660254037844377" y1="-285.0" x2="1.0658141036401503e-14" y2="-280.0" stroke-width="1" stroke="black" />
   <line x1="1.0658141036401503e-14" y1="-280.0" x2="1.0658141036401503e-14" y2="-290.0" stroke-width="1" stroke="black" />
   <line x1="1.0658141036401503e-14" y1="-290.0" x2="-8.660254037844377" y2="-285.0" stroke-width="1" stroke="black" />
   <line x1="-8.660254037844377" y1="-285.0" x2="-8.660254037844377" y2="-295.0" stroke-width="1" stroke="black" />
   <line x1="-8.660254037844377" y1="-295.0" x2="1.0658141036401503e-14" y2="-290.0" stroke-width="1" stroke="black" />
   <line x1="1.0658141036401503e-14" y1="-290.0" x2="1.0658141036401503e-14" y2="-300.0" stroke-width="1" stroke="black" />
   <line x1="1.0658141036401503e-14" y1="-300.0" x2="-8.660254037844377" y2="-295.0" stroke-width="1" stroke="black" />
   <line x1="-8.660254037844377" y1="-295.0" x2="-17.320508075688764" y2="-290.0" stroke-width="1" stroke="black" />
   <line x1="-17.320508075688764" y1="-290.0" x2="-17.320508075688764" y2="-300.0" stroke-width="1" stroke="black" />
   <line x1="-17.320508075688764" y1="-300.0" x2="-25.980762113533153" y2="-295.0" stroke-width="1" stroke="black" />
   <line x1="-25.980762113533153" y1="-295.0" x2="-25.980762113533153" y2="-305.0" stroke-width="1" stroke="black" />
   <line x1="-25.980762113533153" y1="-305.0" x2="-17.320508075688764" y2="-300.0" stroke-width="1" stroke="black" />
   <line x1="-17.320508075688764" y1="-300.0" x2="-17.320508075688764" y2="-310.0" stroke-width="1" stroke="black" />
   <line x1="-17.320508075688764" y1="-310.0" x2="-8.660254037844377" y2="-305.0" stroke-width="1" stroke="black" />
   <line x1="-8.660254037844377" y1="-305.0" x2="1.0658141036401503e-14" y2="-300.0" stroke-width="1" stroke="black" />
   <line x1="1.0658141036401503e-14" y1="-300.0" x2="1.0658141036401503e-14" y2="-310.0" stroke-width="1" stroke="black" />
   <line x1="1.0658141036401503e-14" y1="-310.0" x2="-8.660254037844377" y2="-305.0" stroke-width="1" stroke="black" />
   <line x1="-8.660254037844377" y1="-305.0" x2="-8.660254037844377" y2="-315.0" stroke-width="1" stroke="black" />
   <line x1="-8.660254037844377" y1="-315.0" x2="1.0658141036401503e-14" y2="-310.0" stroke-width="1" stroke="black" />
   <line x1="1.0658141036401503e-14" y1="-310.0" x2="1.0658141036401503e-14" y2="-320.0" stroke-width="1" stroke="black" />
   <line x1="1.0658141036401503e-14" y1="-320.0" x2="-8.660254037844377" y2="-315.0" stroke-width="1" stroke="black" />
   <line x1="-8.660254037844377" y1="-315.0" x2="-17.320508075688764" y2="-310.0" stroke-width="1" stroke="black" />
   <line x1="-17.320508075688764" y1="-310.0" x2="-25.980762113533153" y2="-305.0" stroke-width="1" stroke="black" />
   <line x1="-25.980762113533153" y1="-305.0" x2="-34.64101615137754" y2="-300.0" stroke-width="1" stroke="black" />
   <line x1="-34.64101615137754" y1="-300.0" x2="-43.30127018922193" y2="-295.0" stroke-width="1" stroke="black" />
   <line x1="-43.30127018922193" y1="-295.0" x2="-51.96152422706632" y2="-290.0" stroke-width="1" stroke="black" />
   <line x1="-51.96152422706632" y1="-290.0" x2="-60.62177826491071" y2="-285.0" stroke-width="1" stroke="black" />
   <line x1="-60.62177826491071" y1="-285.0" x2="-69.2820323027551" y2="-280.0" stroke-width="1" stroke="black" />
   <line x1="-69.2820323027551" y1="-280.0" x2="-77.94228634059948" y2="-275.0" stroke-width="1" stroke="black" />
   <line x1="-77.94228634059948" y1="-275.0" x2="-86.60254037844386" y2="-270.0" stroke-width="1" stroke="black" />
   <line x1="-86.60254037844386" y1="-270.0" x2="-95.26279441628824" y2="-265.0" stroke-width="1" stroke="black" />
   <line x1="-95.26279441628824" y1="-265.0" x2="-103.92304845413263" y2="-260.0" stroke-width="1" stroke="black" />
   <line x1="-103.92304845413263" y1="-260.0" x2="-112.58330249197701" y2="-255.0" stroke-width="1" stroke="black" />
   <line x1="-112.58330249197701" y1="-255.0" x2="-121.24355652982139" y2="-250.0" stroke-width="1" stroke="black" />
   <line x1="-121.24355652982139" y1="-250.0" x2="-129.90381056766577" y2="-245.0" stroke-width="1" stroke="black" />
   <line x1="-129.90381056766577" y1="-245.0" x2="-138.56406460551017" y2="-240.0" stroke-width="1" stroke="black" />
   <line x1="-138.56406460551017" y1="-240.0" x2="-147.22431864335456" y2="-235.0" stroke-width="1" stroke="black" />
   <line x1="-147.22431864335456" y1="-235.0" x2="-155.88457268119896" y2="-230.0" stroke-width="1" stroke="black" />
   <line x1="-155.88457268119896" y1="-230.0" x2="-164.54482671904336" y2="-225.0" stroke-width="1" stroke="black" />
   <line x1="-164.54482671904336" y1="-225.0" x2="-173.20508075688775" y2="-220.0" stroke-width="1" stroke="black" />
   <line x1="-173.20508075688775" y1="-220.0" x2="-181.86533479473215" y2="-215.0" stroke-width="1" stroke="black" />
   <line x1="-181.86533479473215" y1="-215.0" x2="-190.52558883257655" y2="-210.0" stroke-width="1" stroke="black" />
   <line x1="-190.52558883257655" y1="-210.0" x2="-199.18584287042094" y2="-205.0" stroke-width="1" stroke="black" />
   <line x1="-199.18584287042094" y1="-205.0" x2="-207.84609690826534" y2="-200.0" stroke-width="1" stroke="black" />
   <line x1="-207.84609690826534" y1="-200.0" x2="-216.50635094610973" y2="-195.0" stroke-width="1" stroke="black" />
   <line x1="-216.50635094610973" y1="-195.0" x2="-225.16660498395413" y2="-190.0" stroke-width="1" stroke="black" />
   <line x1="-225.16660498395413" y1="-190.0" x2="-233.82685902179853" y2="-185.0" stroke-width="1" stroke="black" />
   <line x1="-233.82685902179853" y1="-185.0" x2="-242.48711305964292" y2="-180.0" stroke-width="1" stroke="black" />
   <line x1="-242.48711305964292" y1="-180.0" x2="-251.14736709748732" y2="-175.0" stroke-width="1" stroke="black" />
   <line x1="-251.14736709748732" y1="-175.0" x2="-259.8076211353317" y2="-170.0" stroke-width="1" stroke="black" />
   <line x1="-259.8076211353317" y1="-170.0" x2="-268.4678751731761" y2="-165.0" stroke-width="1" stroke="black" />
   <line x1="-268.4678751731761" y1="-165.0" x2="-277.12812921102045" y2="-160.0" stroke-width="1" stroke="black" />
   <line x1="-277.12812921102045" y1="-160.0" x2="-268.4678751731761" y2="-155.0" stroke-width="1" stroke="black" />
   <line x1="-268.4678751731761" y1="-155.0" x2="-259.8076211353317" y2="-150.0" stroke-width="1" stroke="black" />
   <line x1="-259.8076211353317" y1="-150.0" x2="-251.14736709748732" y2="-145.0" stroke-width="1" stroke="black" />
   <line x1="-251.14736709748732" y1="-145.0" x2="-242.48711305964292" y2="-140.0" stroke-width="1" stroke="black" />
   <line x1="-242.48711305964292" y1="-140.0" x2="-233.82685902179853" y2="-135.0" stroke-width="1" stroke="black" />
   <line x1="-233.82685902179853" y1="-135.0" x2="-225.16660498395413" y2="-130.0" stroke-width="1" stroke="black" />
   <line x1="-225.16660498395413" y1="-130.0" x2="-216.50635094610973" y2="-125.0" stroke-width="1" stroke="black" />
   <line x1="-216.50635094610973" y1="-125.0" x2="-207.84609690826534" y2="-120.0" stroke-width="1" stroke="black" />
   <line x1="-207.84609690826534" y1="-120.0" x2="-199.18584287042094" y2="-115.0" stroke-width="1" stroke="black" />
   <line x1="-199.18584287042094" y1="-115.0" x2="-190.52558883257655" y2="-110.0" stroke-width="1" stroke="black" />
   <line x1="-190.52558883257655" y1="-110.0" x2="-181.86533479473215" y2="-105.0" stroke-width="1" stroke="black" />
   <line x1="-181.86533479473215" y1="-105.0" x2="-173.20508075688775" y2="-100.0" stroke-width="1" stroke="black" />
   <line x1="-173.20508075688775" y1="-100.0" x2="-164.54482671904336" y2="-95.0" stroke-width="1" stroke="black" />
   <line x1="-164.54482671904336" y1="-95.0" x2="-155.88457268119896" y2="-90.0" stroke-width="1" stroke="black" />
   <line x1="-155.88457268119896" y1="-90.0" x2="-147.22431864335456" y2="-85.0" stroke-width="1" stroke="black" />
   <line x1="-147.22431864335456" y1="-85.0" x2="-138.56406460551017" y2="-80.0" stroke-width="1" stroke="black" />
   <line x1="-138.56406460551017" y1="-80.0" x2="-129.90381056766577" y2="-75.0" stroke-width="1" stroke="black" />
   <line x1="-129.90381056766577" y1="-75.0" x2="-121.24355652982139" y2="-70.0" stroke-width="1" stroke="black" />
   <line x1="-121.24355652982139" y1="-70.0" x2="-112.58330249197701" y2="-65.0" stroke-width="1" stroke="black" />
   <line x1="-112.58330249197701" y1="-65.0" x2="-103.92304845413263" y2="-59.99999999999999" stroke-width="1" stroke="black" />
   <line x1="-103.92304845413263" y1="-59.99999999999999" x2="-95.26279441628824" y2="-54.999999999999986" stroke-width="1" stroke="black" />
   <line x1="-95.26279441628824" y1="-54.999999999999986" x2="-86.60254037844386" y2="-49.99999999999998" stroke-width="1" stroke="black" />
   <line x1="-86.60254037844386" y1="-49.99999999999998" x2="-77.94228634059948" y2="-44.99999999999997" stroke-width="1" stroke="black" />
   <line x1="-77.94228634059948" y1="-44.99999999999997" x2="-69.2820323027551" y2="-39.999999999999964" stroke-width="1" stroke="black" />
   <line x1="-69.2820323027551" y1="-39.999999999999964" x2="-60.621778264910716" y2="-34.99999999999996" stroke-width="1" stroke="black" />
   <line x1="-60.621778264910716" y1="-34.99999999999996" x2="-51.961524227066334" y2="-29.999999999999954" stroke-width="1" stroke="black" />
   <line x1="-51.961524227066334" y1="-29.999999999999954" x2="-43.30127018922195" y2="-24.99999999999995" stroke-width="1" stroke="black" />
   <line x1="-43.30127018922195" y1="-24.99999999999995" x2="-34.64101615137757" y2="-19.999999999999947" stroke-width="1" stroke="black" />
   <line x1="-34.64101615137757" y1="-19.999999999999947" x2="-25.98076211353319" y2="-14.999999999999943" stroke-width="1" stroke="black" />
   <line x1="-25.98076211353319" y1="-14.999999999999943" x2="-17.320508075688807" y2="-9.99999999999994" stroke-width="1" stroke="black" />
   <line x1="-17.320508075688807" y1="-9.99999999999994" x2="-8.660254037844423" y2="-4.999999999999935" stroke-width="1" stroke="black" />
   <line x1="-8.660254037844423" y1="-4.999999999999935" x2="-3.907985046680551e-14" y2="6.927791673660977e-14" stroke-width="1" stroke="black" />
</svg>